<?xml version="1.0" encoding="iso-8859-1"?>
<!-- Generator: Adobe Illustrator 19.0.0, SVG Export Plug-In . SVG Version: 6.00 Build 0)  -->
<svg version="1.1" id="Layer_1" xmlns="http://www.w3.org/2000/svg" xmlns:xlink="http://www.w3.org/1999/xlink" x="0px" y="0px"
	 viewBox="0 0 496.158 496.158" style="enable-background:new 0 0 496.158 496.158;" xml:space="preserve">
<path style="fill:#48A1AF;" d="M0,248.085C0,111.063,111.069,0.003,248.075,0.003c137.013,0,248.083,111.061,248.083,248.082
	c0,137.002-111.07,248.07-248.083,248.07C111.069,496.155,0,385.087,0,248.085z"/>
<path style="fill:#FFFFFF;" d="M420.148,248.075c0,95.037-77.037,172.071-172.067,172.071c-95.032,0-172.071-77.034-172.071-172.071
	c0-95.025,77.039-172.063,172.071-172.063C343.111,76.012,420.148,153.05,420.148,248.075z"/>
<g>
	<path style="fill:#48A1AF;" d="M248.077,94.964c84.565,0,153.118,68.548,153.118,153.119c0,0-153.121,0.003-153.118,0
		S248.077,94.964,248.077,94.964z"/>
	<circle style="fill:#48A1AF;" cx="248.079" cy="376.129" r="9.958"/>
	<circle style="fill:#48A1AF;" cx="120.029" cy="248.079" r="9.958"/>
	<circle style="fill:#48A1AF;" cx="157.539" cy="338.619" r="9.958"/>
	<circle style="fill:#48A1AF;" cx="338.619" cy="338.619" r="9.958"/>
	<circle style="fill:#48A1AF;" cx="157.539" cy="157.539" r="9.958"/>
</g>
<g>
</g>
<g>
</g>
<g>
</g>
<g>
</g>
<g>
</g>
<g>
</g>
<g>
</g>
<g>
</g>
<g>
</g>
<g>
</g>
<g>
</g>
<g>
</g>
<g>
</g>
<g>
</g>
<g>
</g>
</svg>
