<?xml version="1.0" encoding="iso-8859-1"?>
<!-- Generator: Adobe Illustrator 19.0.0, SVG Export Plug-In . SVG Version: 6.00 Build 0)  -->
<svg version="1.1" id="Layer_1" xmlns="http://www.w3.org/2000/svg" xmlns:xlink="http://www.w3.org/1999/xlink" x="0px" y="0px"
	 viewBox="0 0 496.158 496.158" style="enable-background:new 0 0 496.158 496.158;" xml:space="preserve">
<path style="fill:#48A1AF;" d="M0,248.085C0,111.063,111.069,0.003,248.075,0.003c137.013,0,248.083,111.061,248.083,248.082
	c0,137.002-111.07,248.07-248.083,248.07C111.069,496.155,0,385.087,0,248.085z"/>
<polygon style="fill:#F5F5F5;" points="334.88,110.792 161.117,110.792 64.076,208.887 248.275,422.128 432.081,208.869 "/>
<polygon style="fill:#48A1AF;" points="414.206,208.715 248.265,401.245 81.956,208.715 166.944,125.077 329.06,125.077 "/>
<g>
	<polygon style="fill:#FFFFFF;" points="241.488,403.619 165.995,206.35 165.92,205.541 159.862,125.868 174.025,124.286 
		180.007,203.148 255.04,398.87 	"/>
	<polygon style="fill:#FFFFFF;" points="254.386,403.619 240.834,398.869 315.833,203.314 321.848,124.284 336.012,125.87 
		329.842,206.517 329.613,207.291 	"/>
	<polygon style="fill:#FFFFFF;" points="316.289,213.305 242.36,122.491 253.801,113.278 327.728,204.091 	"/>
	<polygon style="fill:#FFFFFF;" points="179.872,213.305 168.431,204.091 242.36,113.278 253.801,122.491 	"/>
	<rect x="81.959" y="200.979" style="fill:#FFFFFF;" width="332.6" height="15.476"/>
</g>
<g>
</g>
<g>
</g>
<g>
</g>
<g>
</g>
<g>
</g>
<g>
</g>
<g>
</g>
<g>
</g>
<g>
</g>
<g>
</g>
<g>
</g>
<g>
</g>
<g>
</g>
<g>
</g>
<g>
</g>
</svg>
