<?xml version="1.0" encoding="iso-8859-1"?>
<!-- Generator: Adobe Illustrator 19.0.0, SVG Export Plug-In . SVG Version: 6.00 Build 0)  -->
<svg xmlns="http://www.w3.org/2000/svg" xmlns:xlink="http://www.w3.org/1999/xlink" version="1.1" id="Layer_1" x="0px" y="0px" viewBox="0 0 512 512" style="enable-background:new 0 0 512 512;" xml:space="preserve">
<rect x="66" y="2" style="fill:#FFFFFF;" width="380" height="508"/>
<path style="fill:#CCCCCC;" d="M444,4v504H68V4H444 M448,0H64v512h384V0L448,0z"/>
<rect x="64" y="0.001" width="384" height="61.616"/>
<rect x="218.672" y="15.552" style="fill:#F2F2F2;" width="189.216" height="32"/>
<g>
	<rect x="372.104" y="15.552" style="fill:#E21B1B;" width="35.784" height="32"/>
	<path style="fill:#E21B1B;" d="M190.368,47.56h-46.856c-1.784,0-3.24-1.464-3.24-3.24V18.8c0-1.784,1.464-3.24,3.24-3.24h46.856   c1.784,0,3.24,1.464,3.24,3.24v25.52C193.608,46.088,192.152,47.56,190.368,47.56z"/>
</g>
<g>
	<path style="fill:#FFFFFF;" d="M150.048,27.992h-3.784v-2.024h10.04v2.024h-3.824v11.264h-2.432L150.048,27.992L150.048,27.992z"/>
	<path style="fill:#FFFFFF;" d="M165.384,36.376c0,1.144,0.032,2.096,0.072,2.88h-2.128l-0.12-1.464h-0.032   c-0.416,0.688-1.36,1.68-3.072,1.68c-1.752,0-3.344-1.048-3.344-4.176v-5.648h2.416v5.224c0,1.592,0.512,2.632,1.8,2.632   c0.968,0,1.592-0.688,1.848-1.312c0.08-0.216,0.128-0.464,0.128-0.752v-5.792h2.432L165.384,36.376L165.384,36.376z"/>
	<path style="fill:#FFFFFF;" d="M167.92,39.256c0.032-0.656,0.08-1.712,0.08-2.704V25.256h2.416v5.712h0.032   c0.584-0.92,1.632-1.536,3.072-1.536c2.344,0,4.024,1.952,4,4.872c0,3.456-2.192,5.168-4.36,5.168c-1.24,0-2.344-0.48-3.04-1.656   h-0.032l-0.12,1.44H167.92z M170.432,35.296c0,0.2,0.008,0.392,0.056,0.568c0.248,0.968,1.096,1.704,2.144,1.704   c1.512,0,2.44-1.224,2.44-3.152c0-1.704-0.808-3.08-2.432-3.08c-0.976,0-1.872,0.712-2.144,1.776   c-0.032,0.176-0.072,0.392-0.072,0.632L170.432,35.296z"/>
	<path style="fill:#FFFFFF;" d="M181.256,35.136c0.056,1.736,1.416,2.488,2.952,2.488c1.12,0,1.928-0.168,2.656-0.44l0.36,1.68   c-0.832,0.336-1.976,0.592-3.36,0.592c-3.104,0-4.944-1.92-4.944-4.856c0-2.656,1.616-5.168,4.688-5.168   c3.12,0,4.144,2.568,4.144,4.68c0,0.456-0.032,0.808-0.072,1.024H181.256z M185.472,33.432c0.024-0.88-0.368-2.344-1.992-2.344   c-1.504,0-2.128,1.368-2.224,2.344H185.472z"/>
	<path style="fill:#FFFFFF;" d="M108.528,39.256V33.72l-4.2-7.752h2.76l1.592,3.408c0.456,0.992,0.784,1.736,1.144,2.64h0.032   c0.336-0.848,0.704-1.68,1.168-2.64l1.592-3.408h2.736l-4.416,7.688v5.6H108.528z"/>
	<path style="fill:#FFFFFF;" d="M124.032,34.36c0,3.536-2.48,5.112-4.928,5.112c-2.712,0-4.808-1.872-4.808-4.944   c0-3.168,2.072-5.096,4.968-5.096C122.112,29.432,124.032,31.448,124.032,34.36z M116.792,34.472c0,1.848,0.904,3.248,2.384,3.248   c1.384,0,2.344-1.36,2.344-3.296c0-1.504-0.664-3.216-2.32-3.216C117.48,31.208,116.792,32.864,116.792,34.472z"/>
	<path style="fill:#FFFFFF;" d="M134.616,36.376c0,1.144,0.032,2.096,0.072,2.88h-2.128l-0.12-1.464h-0.04   c-0.416,0.688-1.36,1.68-3.072,1.68c-1.752,0-3.344-1.048-3.344-4.176v-5.648h2.416v5.224c0,1.592,0.512,2.632,1.8,2.632   c0.968,0,1.592-0.688,1.848-1.312c0.08-0.216,0.128-0.464,0.128-0.752v-5.792h2.432v6.728H134.616z"/>
	<path style="fill:#FFFFFF;" d="M389.264,36.856c-4.216,0-7.648-3.432-7.648-7.648s3.432-7.648,7.648-7.648s7.648,3.432,7.648,7.648   S393.472,36.856,389.264,36.856z M389.264,23.304c-3.248,0-5.904,2.656-5.904,5.904s2.656,5.904,5.904,5.904   s5.904-2.656,5.904-5.904S392.512,23.304,389.264,23.304z"/>
	<polygon style="fill:#FFFFFF;" points="397.872,41.544 393.024,35.16 394.408,34.112 399.24,40.496  "/>
</g>
<path d="M234.472,36.032c0.656,0.408,1.608,0.736,2.608,0.736c1.488,0,2.36-0.784,2.36-1.928c0-1.048-0.592-1.656-2.12-2.24  c-1.832-0.656-2.976-1.608-2.976-3.2c0-1.76,1.456-3.064,3.64-3.064c1.152,0,1.992,0.264,2.488,0.544l-0.408,1.2  c-0.368-0.2-1.12-0.536-2.144-0.536c-1.536,0-2.12,0.92-2.12,1.688c0,1.056,0.68,1.568,2.24,2.176  c1.904,0.736,2.88,1.656,2.88,3.312c0,1.736-1.288,3.248-3.952,3.248c-1.08,0-2.272-0.32-2.88-0.712L234.472,36.032z"/>
<path d="M243.84,34.016c0.032,2,1.312,2.808,2.776,2.808c1.048,0,1.688-0.176,2.24-0.416l0.248,1.056  c-0.512,0.24-1.408,0.504-2.688,0.504c-2.488,0-3.976-1.64-3.976-4.088s1.44-4.368,3.8-4.368c2.64,0,3.344,2.32,3.344,3.824  c0,0.296-0.032,0.536-0.048,0.68H243.84z M248.16,32.968c0.024-0.944-0.384-2.392-2.04-2.392c-1.488,0-2.144,1.368-2.264,2.392  H248.16z"/>
<path d="M255.936,37.808l-0.12-1.024h-0.048c-0.456,0.64-1.32,1.2-2.48,1.2c-1.64,0-2.48-1.152-2.48-2.32  c0-1.968,1.736-3.04,4.872-3.016V32.48c0-0.664-0.176-1.88-1.848-1.88c-0.752,0-1.536,0.24-2.104,0.608l-0.336-0.976  c0.664-0.432,1.64-0.712,2.656-0.712c2.48,0,3.072,1.688,3.072,3.312v3.04c0,0.704,0.032,1.392,0.144,1.944L255.936,37.808z   M255.72,33.672c-1.608-0.032-3.432,0.248-3.432,1.824c0,0.952,0.632,1.408,1.384,1.408c1.056,0,1.728-0.664,1.952-1.36  c0.048-0.152,0.08-0.32,0.08-0.464v-1.408H255.72z"/>
<path d="M259.568,32.232c0-0.952-0.024-1.776-0.072-2.536h1.288l0.056,1.592h0.056c0.368-1.08,1.264-1.776,2.248-1.776  c0.168,0,0.272,0.008,0.416,0.048v1.4c-0.152-0.032-0.312-0.048-0.504-0.048c-1.048,0-1.784,0.784-1.976,1.896  c-0.032,0.192-0.072,0.432-0.072,0.68v4.32h-1.456v-5.576H259.568z"/>
<path d="M270.68,37.504c-0.392,0.2-1.24,0.464-2.336,0.464c-2.44,0-4.04-1.656-4.04-4.128c0-2.504,1.712-4.312,4.36-4.312  c0.872,0,1.64,0.224,2.048,0.416l-0.336,1.144c-0.36-0.2-0.904-0.384-1.712-0.384c-1.856,0-2.856,1.368-2.856,3.064  c0,1.88,1.2,3.04,2.808,3.04c0.832,0,1.392-0.224,1.808-0.408L270.68,37.504z"/>
<path d="M272.44,25.92h1.464v5.048h0.032c0.24-0.416,0.608-0.784,1.056-1.032c0.432-0.248,0.952-0.416,1.504-0.416  c1.096,0,2.832,0.664,2.832,3.464v4.824h-1.48v-4.656c0-1.312-0.48-2.408-1.872-2.408c-0.952,0-1.712,0.664-1.976,1.464  c-0.08,0.2-0.104,0.416-0.104,0.704v4.896h-1.464L272.44,25.92z"/>
<rect x="122.848" y="362.72" width="266.24" height="8"/>
<g>
	<rect x="122.848" y="397.424" style="fill:#CCCCCC;" width="266.24" height="8"/>
	<rect x="122.848" y="422.76" style="fill:#CCCCCC;" width="266.24" height="8"/>
	<rect x="122.848" y="448.08" style="fill:#CCCCCC;" width="266.24" height="8"/>
</g>
<path d="M345.144,237.984H330.96V201.2c0-41.336-33.624-74.96-74.96-74.96s-74.96,33.624-74.96,74.96v36.784h-14.184V201.2  c0-49.152,39.992-89.144,89.144-89.144s89.144,39.992,89.144,89.144L345.144,237.984L345.144,237.984z"/>
<path d="M329.656,222.728v93.592c22.4-3.84,39.464-23.296,39.464-46.792C369.112,246.032,352.056,226.568,329.656,222.728z"/>
<path d="M182.344,222.728v93.592c-22.4-3.84-39.464-23.296-39.464-46.792C142.888,246.032,159.944,226.568,182.344,222.728z"/>
<path style="fill:#E21B1B;" d="M192.816,222.728h-10.464v93.592h10.464c3.08,0,5.6-2.52,5.6-5.6v-82.384  C198.424,225.248,195.896,222.728,192.816,222.728z"/>
<g style="opacity:0.35;enable-background:new    ;">
	<rect x="182.344" y="248.48" style="fill:#FFFFFF;" width="16.08" height="42.112"/>
</g>
<path style="fill:#E21B1B;" d="M319.184,222.728c-3.08,0-5.6,2.52-5.6,5.6v82.384c0,3.08,2.52,5.6,5.6,5.6h10.464v-93.584H319.184z"/>
<g style="opacity:0.35;enable-background:new    ;">
	<rect x="313.6" y="248.48" style="fill:#FFFFFF;" width="16.08" height="42.112"/>
</g>
<g>
</g>
<g>
</g>
<g>
</g>
<g>
</g>
<g>
</g>
<g>
</g>
<g>
</g>
<g>
</g>
<g>
</g>
<g>
</g>
<g>
</g>
<g>
</g>
<g>
</g>
<g>
</g>
<g>
</g>
</svg>
