<?xml version="1.0" encoding="iso-8859-1"?>
<!-- Generator: Adobe Illustrator 19.0.0, SVG Export Plug-In . SVG Version: 6.00 Build 0)  -->
<svg xmlns="http://www.w3.org/2000/svg" xmlns:xlink="http://www.w3.org/1999/xlink" version="1.1" id="Layer_1" x="0px" y="0px" viewBox="0 0 512 512" style="enable-background:new 0 0 512 512;" xml:space="preserve">
<path d="M469.32,396.792V102.4c0-7.04-5.76-12.8-12.8-12.8H55.536c-7.04,0-12.8,5.76-12.8,12.8v294.392  C42.736,396.792,470.384,396.792,469.32,396.792z"/>
<rect y="396.8" style="fill:#D8D8D8;" width="512" height="8.536"/>
<polygon style="fill:#BCBCBC;" points="486.4,422.4 25.6,422.4 0,405.328 512,405.328 "/>
<g style="opacity:0.7;">
	<path style="fill:#FFFFFF;" d="M299.04,396.8h-86.08c0.816,4.792,4.824,8.536,9.832,8.536H289.2   C294.216,405.328,298.224,401.592,299.04,396.8z"/>
</g>
<g>
	<rect x="246.912" y="187.76" style="fill:#999999;" width="162.16" height="25.6"/>
	<rect x="246.912" y="230.4" style="fill:#999999;" width="162.16" height="25.6"/>
</g>
<rect x="246.912" y="162.104" style="fill:#E21B1B;" width="162.168" height="8"/>
<rect x="101.872" y="286.16" style="fill:#FFFFFF;" width="307.2" height="8"/>
<rect x="101.872" y="320.32" style="fill:#999999;" width="307.2" height="8"/>
<path style="fill:#E21B1B;" d="M208.192,256h-99.6c-3.68,0-6.72-3.04-6.72-6.72V168.8c0-3.68,3.04-6.72,6.72-6.72h99.6  c3.68,0,6.72,3.04,6.72,6.72v80.48C214.912,252.96,211.872,256,208.192,256z"/>
<polygon style="fill:#FFFFFF;" points="144.672,184.96 185.792,208.64 144.672,232.4 "/>
<g>
</g>
<g>
</g>
<g>
</g>
<g>
</g>
<g>
</g>
<g>
</g>
<g>
</g>
<g>
</g>
<g>
</g>
<g>
</g>
<g>
</g>
<g>
</g>
<g>
</g>
<g>
</g>
<g>
</g>
</svg>
