<?xml version="1.0" encoding="iso-8859-1"?>
<!-- Generator: Adobe Illustrator 19.0.0, SVG Export Plug-In . SVG Version: 6.00 Build 0)  -->
<svg xmlns="http://www.w3.org/2000/svg" xmlns:xlink="http://www.w3.org/1999/xlink" version="1.1" id="Layer_1" x="0px" y="0px" viewBox="0 0 512 512" style="enable-background:new 0 0 512 512;" xml:space="preserve">
<circle style="fill:#E0E0E0;" cx="256" cy="256" r="256"/>
<rect x="123" y="78" style="fill:#FFFFFF;" width="266" height="356"/>
<path style="fill:#CCCCCC;" d="M387,80v352H125V80H387 M391,76H121v360h270V76L391,76z"/>
<rect x="120.96" y="76" width="270" height="43.328"/>
<rect x="229.752" y="86.936" style="fill:#F2F2F2;" width="133.04" height="22.504"/>
<g>
	<rect x="337.6" y="86.936" style="fill:#E21B1B;" width="25.16" height="22.504"/>
	<path style="fill:#E21B1B;" d="M209.848,109.44h-32.944c-1.256,0-2.28-1.032-2.28-2.28V89.216c0-1.256,1.032-2.28,2.28-2.28h32.944   c1.256,0,2.28,1.032,2.28,2.28v17.944C212.128,108.408,211.104,109.44,209.848,109.44z"/>
</g>
<g>
	<path style="fill:#FFFFFF;" d="M181.504,95.68h-2.664v-1.424h7.056v1.424h-2.688v7.92h-1.704V95.68z"/>
	<path style="fill:#FFFFFF;" d="M192.288,101.576c0,0.8,0.024,1.472,0.048,2.024h-1.496l-0.08-1.032h-0.024   c-0.296,0.488-0.952,1.184-2.16,1.184c-1.232,0-2.352-0.736-2.352-2.936v-3.968h1.696v3.672c0,1.12,0.36,1.848,1.264,1.848   c0.68,0,1.12-0.488,1.296-0.92c0.056-0.152,0.096-0.328,0.096-0.528v-4.08h1.704v4.728h0.008V101.576z"/>
	<path style="fill:#FFFFFF;" d="M194.072,103.6c0.024-0.464,0.056-1.208,0.056-1.904V93.76h1.696v4.016h0.024   c0.408-0.648,1.144-1.08,2.16-1.08c1.648,0,2.832,1.376,2.816,3.424c0,2.424-1.544,3.632-3.064,3.632   c-0.872,0-1.648-0.336-2.136-1.16H195.6l-0.08,1.016h-1.448V103.6z M195.84,100.816c0,0.144,0.008,0.28,0.04,0.4   c0.176,0.68,0.768,1.2,1.504,1.2c1.064,0,1.72-0.864,1.72-2.216c0-1.2-0.568-2.168-1.704-2.168c-0.688,0-1.312,0.504-1.504,1.248   c-0.024,0.128-0.048,0.28-0.048,0.44L195.84,100.816z"/>
	<path style="fill:#FFFFFF;" d="M203.448,100.704c0.04,1.224,1,1.752,2.08,1.752c0.784,0,1.36-0.12,1.864-0.312l0.248,1.184   c-0.584,0.232-1.392,0.416-2.36,0.416c-2.184,0-3.472-1.344-3.472-3.416c0-1.864,1.136-3.632,3.296-3.632   c2.192,0,2.912,1.808,2.912,3.288c0,0.32-0.024,0.568-0.048,0.72H203.448z M206.408,99.512c0.016-0.616-0.256-1.648-1.4-1.648   c-1.056,0-1.496,0.96-1.568,1.648H206.408z"/>
	<path style="fill:#FFFFFF;" d="M152.312,103.6v-3.896l-2.952-5.448h1.944l1.12,2.392c0.32,0.696,0.552,1.224,0.8,1.856h0.024   c0.232-0.592,0.496-1.184,0.824-1.856l1.12-2.392h1.928l-3.104,5.408v3.936C154.016,103.6,152.312,103.6,152.312,103.6z"/>
	<path style="fill:#FFFFFF;" d="M163.208,100.16c0,2.488-1.744,3.592-3.464,3.592c-1.912,0-3.384-1.312-3.384-3.472   c0-2.224,1.456-3.584,3.488-3.584C161.864,96.696,163.208,98.112,163.208,100.16z M158.12,100.24c0,1.296,0.64,2.288,1.672,2.288   c0.968,0,1.648-0.952,1.648-2.32c0-1.056-0.472-2.264-1.632-2.264C158.608,97.944,158.12,99.104,158.12,100.24z"/>
	<path style="fill:#FFFFFF;" d="M170.656,101.576c0,0.8,0.024,1.472,0.048,2.024h-1.496l-0.08-1.032h-0.024   c-0.296,0.488-0.952,1.184-2.16,1.184c-1.232,0-2.352-0.736-2.352-2.936v-3.968h1.696v3.672c0,1.12,0.36,1.848,1.264,1.848   c0.68,0,1.12-0.488,1.296-0.92c0.056-0.152,0.096-0.328,0.096-0.528v-4.08h1.704v4.728h0.008V101.576z"/>
	<path style="fill:#FFFFFF;" d="M349.696,101.912c-2.96,0-5.376-2.408-5.376-5.376s2.408-5.376,5.376-5.376   c2.96,0,5.376,2.408,5.376,5.376S352.664,101.912,349.696,101.912z M349.696,92.384c-2.288,0-4.152,1.864-4.152,4.152   s1.864,4.152,4.152,4.152s4.152-1.864,4.152-4.152C353.848,94.248,351.984,92.384,349.696,92.384z"/>
	<polygon style="fill:#FFFFFF;" points="355.752,105.208 352.344,100.72 353.312,99.984 356.712,104.472  "/>
</g>
<path d="M240.864,101.336c0.464,0.288,1.128,0.52,1.832,0.52c1.048,0,1.656-0.552,1.656-1.36c0-0.736-0.416-1.16-1.488-1.576  c-1.288-0.464-2.096-1.128-2.096-2.256c0-1.24,1.024-2.152,2.56-2.152c0.816,0,1.4,0.184,1.752,0.384l-0.28,0.848  c-0.256-0.144-0.784-0.376-1.504-0.376c-1.08,0-1.488,0.648-1.488,1.192c0,0.744,0.48,1.104,1.576,1.536  c1.336,0.52,2.024,1.16,2.024,2.328c0,1.224-0.904,2.288-2.776,2.288c-0.76,0-1.6-0.224-2.024-0.504L240.864,101.336z"/>
<path d="M247.448,99.92c0.024,1.408,0.92,1.976,1.952,1.976c0.736,0,1.192-0.128,1.576-0.296l0.176,0.744  c-0.36,0.168-0.984,0.352-1.896,0.352c-1.752,0-2.8-1.152-2.8-2.872s1.016-3.072,2.672-3.072c1.856,0,2.352,1.632,2.352,2.688  c0,0.208-0.024,0.376-0.032,0.48C251.448,99.92,247.448,99.92,247.448,99.92z M250.488,99.184c0.016-0.664-0.264-1.68-1.432-1.68  c-1.048,0-1.504,0.96-1.592,1.68H250.488z"/>
<path d="M255.96,102.584l-0.08-0.72h-0.04c-0.32,0.456-0.928,0.848-1.744,0.848c-1.152,0-1.744-0.816-1.744-1.632  c0-1.384,1.224-2.136,3.424-2.12v-0.12c0-0.472-0.128-1.32-1.296-1.32c-0.528,0-1.08,0.168-1.48,0.424l-0.232-0.688  c0.472-0.304,1.152-0.504,1.864-0.504c1.744,0,2.16,1.192,2.16,2.328v2.136c0,0.496,0.024,0.976,0.104,1.368H255.96z M255.808,99.68  c-1.128-0.024-2.408,0.176-2.408,1.28c0,0.672,0.44,0.984,0.968,0.984c0.744,0,1.216-0.472,1.376-0.952  c0.032-0.112,0.056-0.224,0.056-0.328V99.68H255.808z"/>
<path d="M258.512,98.664c0-0.672-0.016-1.248-0.048-1.784h0.904l0.04,1.12h0.04c0.256-0.76,0.888-1.248,1.584-1.248  c0.12,0,0.192,0.008,0.296,0.032v0.976c-0.112-0.024-0.216-0.032-0.352-0.032c-0.736,0-1.256,0.552-1.392,1.328  c-0.024,0.136-0.048,0.304-0.048,0.48v3.04h-1.024L258.512,98.664L258.512,98.664z"/>
<path d="M266.32,102.376c-0.28,0.144-0.872,0.328-1.64,0.328c-1.72,0-2.84-1.16-2.84-2.904c0-1.76,1.208-3.032,3.064-3.032  c0.608,0,1.152,0.16,1.44,0.296l-0.232,0.8c-0.248-0.144-0.64-0.264-1.208-0.264c-1.304,0-2.008,0.96-2.008,2.152  c0,1.32,0.848,2.136,1.976,2.136c0.584,0,0.976-0.16,1.272-0.288L266.32,102.376z"/>
<path d="M267.56,94.224h1.032v3.552h0.024c0.168-0.296,0.424-0.552,0.744-0.728c0.304-0.176,0.672-0.296,1.056-0.296  c0.768,0,1.992,0.472,1.992,2.44v3.392h-1.04v-3.272c0-0.92-0.336-1.688-1.312-1.688c-0.672,0-1.208,0.472-1.392,1.032  c-0.056,0.144-0.072,0.296-0.072,0.496v3.44h-1.032L267.56,94.224z"/>
<rect x="162.384" y="331.864" width="187.224" height="4"/>
<g>
	<rect x="162.384" y="356.248" style="fill:#CCCCCC;" width="187.224" height="4"/>
	<rect x="162.384" y="374.064" style="fill:#CCCCCC;" width="187.224" height="4"/>
	<rect x="162.384" y="391.872" style="fill:#CCCCCC;" width="187.224" height="4"/>
</g>
<path d="M318.68,243.336h-9.976v-25.864c0-29.064-23.64-52.704-52.704-52.704s-52.704,23.64-52.704,52.704v25.864h-9.976v-25.864  c0-34.56,28.12-62.68,62.68-62.68s62.68,28.12,62.68,62.68V243.336z"/>
<path d="M307.784,232.608v65.808c15.752-2.696,27.752-16.384,27.752-32.904C335.536,248.992,323.536,235.304,307.784,232.608z"/>
<path d="M204.216,232.608v65.808c-15.752-2.696-27.752-16.384-27.752-32.904C176.464,248.992,188.464,235.304,204.216,232.608z"/>
<path style="fill:#E21B1B;" d="M211.576,232.608h-7.36v65.808h7.36c2.168,0,3.936-1.776,3.936-3.936v-57.928  C215.512,234.376,213.744,232.608,211.576,232.608z"/>
<g style="opacity:0.35;enable-background:new    ;">
	<rect x="204.216" y="250.72" style="fill:#FFFFFF;" width="11.296" height="29.616"/>
</g>
<path style="fill:#E21B1B;" d="M300.424,232.608c-2.168,0-3.936,1.776-3.936,3.936v57.928c0,2.168,1.776,3.936,3.936,3.936h7.36  V232.6h-7.36V232.608z"/>
<g style="opacity:0.35;enable-background:new    ;">
	<rect x="296.48" y="250.72" style="fill:#FFFFFF;" width="11.296" height="29.616"/>
</g>
<g>
</g>
<g>
</g>
<g>
</g>
<g>
</g>
<g>
</g>
<g>
</g>
<g>
</g>
<g>
</g>
<g>
</g>
<g>
</g>
<g>
</g>
<g>
</g>
<g>
</g>
<g>
</g>
<g>
</g>
</svg>
