<?xml version="1.0" encoding="iso-8859-1"?>
<!-- Generator: Adobe Illustrator 19.0.0, SVG Export Plug-In . SVG Version: 6.00 Build 0)  -->
<svg xmlns="http://www.w3.org/2000/svg" xmlns:xlink="http://www.w3.org/1999/xlink" version="1.1" id="Layer_1" x="0px" y="0px" viewBox="0 0 512 512" style="enable-background:new 0 0 512 512;" xml:space="preserve">
<path style="fill:#FFFFFF;" d="M256,508C117.048,508,4,394.952,4,256S117.048,4,256,4s252,113.048,252,252S394.952,508,256,508z"/>
<path style="fill:#CCCCCC;" d="M256,8c136.744,0,248,111.256,248,248S392.744,504,256,504S8,392.744,8,256S119.256,8,256,8 M256,0  C114.616,0,0,114.616,0,256s114.616,256,256,256s256-114.616,256-256S397.384,0,256,0L256,0z"/>
<path style="fill:#E21B1B;" d="M256,50.976c113.056,0,205.024,91.976,205.024,205.024c0,113.056-91.976,205.024-205.024,205.024  S50.976,369.056,50.976,256S142.944,50.976,256,50.976 M256,34.976C133.928,34.976,34.976,133.928,34.976,256  S133.936,477.024,256,477.024c122.072,0,221.024-98.96,221.024-221.024C477.024,133.928,378.072,34.976,256,34.976L256,34.976z"/>
<path d="M151.432,293.576l-21.128-86.304h16.776l8.192,39.176c2.176,10.496,4.224,21.512,5.632,30.096h0.256  c1.408-9.096,3.84-19.336,6.272-30.216l9.352-39.056h16.512l8.576,39.696c2.176,10.24,3.968,19.84,5.248,29.192h0.256  c1.536-9.48,3.584-19.336,5.888-29.832l8.96-39.056h16.008l-23.176,86.304H198.16l-8.96-40.592c-2.176-9.856-3.72-18.056-4.744-27.4  H184.2c-1.528,9.216-3.192,17.536-5.76,27.4l-9.992,40.592H151.432z"/>
<path d="M258.952,269.112l-7.424,24.464h-16.264l27.664-86.304h20.104l28.04,86.304h-16.896l-7.816-24.464H258.952z   M283.672,257.208l-6.792-21.256c-1.664-5.248-3.072-11.144-4.352-16.136h-0.256c-1.28,4.992-2.56,11.016-4.096,16.136  l-6.664,21.256H283.672z"/>
<path d="M335.504,293.576l-27.912-86.304h17.16l11.784,39.176c3.328,10.88,6.152,21,8.456,31.504h0.256  c2.304-10.24,5.376-20.744,8.832-31.24l12.544-39.44H383.4l-29.832,86.304H335.504z"/>
<g>
</g>
<g>
</g>
<g>
</g>
<g>
</g>
<g>
</g>
<g>
</g>
<g>
</g>
<g>
</g>
<g>
</g>
<g>
</g>
<g>
</g>
<g>
</g>
<g>
</g>
<g>
</g>
<g>
</g>
</svg>
