<?xml version="1.0" encoding="iso-8859-1"?>
<!-- Generator: Adobe Illustrator 19.0.0, SVG Export Plug-In . SVG Version: 6.00 Build 0)  -->
<svg xmlns="http://www.w3.org/2000/svg" xmlns:xlink="http://www.w3.org/1999/xlink" version="1.1" id="Layer_1" x="0px" y="0px" viewBox="0 0 512 512" style="enable-background:new 0 0 512 512;" xml:space="preserve">
<g>
	<path style="fill:#E21B1B;" d="M262.244,484.256c0,11.368-10.56,20.576-23.584,20.576s-23.584-9.216-23.584-20.576   c0-11.368,10.56-20.576,23.584-20.576c5.688,0,10.912,1.76,14.984,4.688v-48.344l-64.528,12.56v58.84   c0,11.368-10.56,20.576-23.584,20.576s-23.584-9.216-23.584-20.576c0-11.368,10.56-20.576,23.584-20.576   c5.688,0,10.912,1.76,14.984,4.688v-60.928l0,0v-13.016l81.736-15.912v98.576H262.244z"/>
	<path style="fill:#E21B1B;" d="M260.572,180.072c6.672,20.76-7.216,43.784-31.008,51.432s-48.488-2.984-55.16-23.744   s7.216-43.784,31.008-51.432c10.392-3.336,20.96-3.192,30.12-0.232l-28.376-88.32L96.644,128.592L131.18,236.08   c6.672,20.76-7.216,43.784-31.008,51.432c-23.792,7.648-48.488-2.984-55.16-23.744s7.216-43.784,31.008-51.432   c10.392-3.336,20.96-3.192,30.12-0.232L70.38,100.808l0,0L62.74,77.04L202.716,0L260.572,180.072z"/>
</g>
<path style="fill:#999999;" d="M432.156,347.072c-4.208,17.664-24.032,28.072-44.28,23.256c-20.248-4.824-33.248-23.056-29.04-40.72  s24.032-28.072,44.28-23.256c8.848,2.104,16.304,6.776,21.552,12.832l17.904-75.152l-104.96-4.368l-21.784,91.456  c-4.208,17.664-24.032,28.072-44.28,23.256c-20.248-4.824-33.248-23.056-29.04-40.72c4.208-17.664,24.032-28.072,44.28-23.256  c8.848,2.104,16.304,6.776,21.552,12.832l22.56-94.704l0,0l4.816-20.232l132.944,5.536L432.156,347.072z"/>
<g>
</g>
<g>
</g>
<g>
</g>
<g>
</g>
<g>
</g>
<g>
</g>
<g>
</g>
<g>
</g>
<g>
</g>
<g>
</g>
<g>
</g>
<g>
</g>
<g>
</g>
<g>
</g>
<g>
</g>
</svg>
