<?xml version="1.0" encoding="iso-8859-1"?>
<!-- Generator: Adobe Illustrator 19.0.0, SVG Export Plug-In . SVG Version: 6.00 Build 0)  -->
<svg xmlns="http://www.w3.org/2000/svg" xmlns:xlink="http://www.w3.org/1999/xlink" version="1.1" id="Layer_1" x="0px" y="0px" viewBox="0 0 512 512" style="enable-background:new 0 0 512 512;" xml:space="preserve">
<path style="fill:#E21B1B;" d="M302.516,89.352c2.76,10.304-4.576,21.216-16.384,24.376s-23.616-2.624-26.368-12.928  c-2.76-10.304,4.576-21.216,16.384-24.376c5.16-1.384,10.312-1.056,14.72,0.608L279.14,33.208L223.7,60.256l14.28,53.336  c2.76,10.304-4.576,21.216-16.384,24.376c-11.808,3.16-23.616-2.624-26.368-12.928c-2.76-10.304,4.576-21.216,16.384-24.376  c5.16-1.384,10.312-1.056,14.72,0.608l-14.784-55.224l0,0l-3.16-11.792L278.596,0L302.516,89.352z"/>
<path style="fill:#999999;" d="M451.452,224.968c-3.456,15.032-20.224,24.008-37.456,20.048c-17.232-3.96-28.4-19.36-24.944-34.392  s20.224-24.008,37.456-20.048c7.528,1.728,13.896,5.64,18.392,10.752l14.696-63.952l-89.184-3.008L352.524,212.2  c-3.456,15.032-20.224,24.008-37.456,20.048c-17.232-3.96-28.4-19.36-24.944-34.392s20.224-24.008,37.456-20.048  c7.528,1.728,13.896,5.64,18.392,10.752l18.52-80.592l0,0l3.96-17.216l112.96,3.808L451.452,224.968z"/>
<path d="M30.596,206.12v279.616C30.596,500.24,42.356,512,56.86,512h169.888c14.512,0,26.272-11.76,26.272-26.272V206.12  c0-14.512-11.76-26.272-26.272-26.272H56.86C42.356,179.848,30.596,191.608,30.596,206.12z"/>
<g>
	<path style="fill:#999999;" d="M141.804,484.496c-41.128,0-74.584-33.456-74.584-74.576s33.464-74.584,74.584-74.584   s74.584,33.464,74.584,74.584S182.932,484.496,141.804,484.496z M141.804,339.328c-38.92,0-70.584,31.664-70.584,70.584   c0,38.912,31.664,70.576,70.584,70.576s70.584-31.664,70.584-70.576C212.396,370.992,180.732,339.328,141.804,339.328z"/>
	<path style="fill:#999999;" d="M141.804,302.464c-26.216,0-47.552-21.336-47.552-47.552s21.336-47.552,47.552-47.552   s47.552,21.336,47.552,47.552S168.028,302.464,141.804,302.464z M141.804,211.352c-24.016,0-43.552,19.536-43.552,43.552   s19.536,43.552,43.552,43.552s43.552-19.536,43.552-43.552S165.82,211.352,141.804,211.352z"/>
</g>
<circle style="fill:#FFFFFF;" cx="141.804" cy="409.92" r="53.616"/>
<circle style="fill:#E21B1B;" cx="141.804" cy="409.92" r="19.952"/>
<circle style="fill:#FFFFFF;" cx="141.804" cy="254.912" r="27.728"/>
<circle style="fill:#E21B1B;" cx="141.804" cy="254.904" r="8.92"/>
<g style="opacity:0.35;">
	<path style="fill:#FFFFFF;" d="M56.86,179.848c-14.512,0-26.272,11.76-26.272,26.272v41.816l68.088-68.088H56.86z"/>
</g>
<g>
</g>
<g>
</g>
<g>
</g>
<g>
</g>
<g>
</g>
<g>
</g>
<g>
</g>
<g>
</g>
<g>
</g>
<g>
</g>
<g>
</g>
<g>
</g>
<g>
</g>
<g>
</g>
<g>
</g>
</svg>
