<?xml version="1.0" encoding="iso-8859-1"?>
<!-- Generator: Adobe Illustrator 19.0.0, SVG Export Plug-In . SVG Version: 6.00 Build 0)  -->
<svg xmlns="http://www.w3.org/2000/svg" xmlns:xlink="http://www.w3.org/1999/xlink" version="1.1" id="Layer_1" x="0px" y="0px" viewBox="0 0 512.008 512.008" style="enable-background:new 0 0 512.008 512.008;" xml:space="preserve">
<path d="M84.568,40.496v431.016c0,22.36,18.128,40.496,40.496,40.496h261.88c22.36,0,40.496-18.128,40.496-40.496V40.496  C427.432,18.128,409.304,0,386.936,0H125.064C102.696,0,84.568,18.128,84.568,40.496z"/>
<g>
	<path style="fill:#999999;" d="M256,468.512c-62.8,0-113.88-51.088-113.88-113.872c0-62.8,51.088-113.888,113.88-113.888   S369.88,291.84,369.88,354.64C369.88,417.432,318.8,468.512,256,468.512z M256,244.752c-60.584,0-109.88,49.296-109.88,109.888   c0,60.584,49.296,109.872,109.88,109.872s109.88-49.288,109.88-109.872C365.88,294.048,316.584,244.752,256,244.752z"/>
	<path style="fill:#999999;" d="M256,187.92c-39.824,0-72.216-32.4-72.216-72.216S216.176,43.488,256,43.488   s72.216,32.4,72.216,72.216S295.824,187.92,256,187.92z M256,47.488c-37.616,0-68.216,30.6-68.216,68.216   s30.6,68.216,68.216,68.216s68.216-30.6,68.216-68.216S293.616,47.488,256,47.488z"/>
</g>
<path style="fill:#FFFFFF;" d="M256,271.992c-45.576,0-82.64,37.072-82.64,82.64s37.072,82.64,82.64,82.64s82.64-37.072,82.64-82.64  S301.576,271.992,256,271.992z"/>
<circle style="fill:#E21B1B;" cx="256" cy="354.64" r="30.76"/>
<circle style="fill:#FFFFFF;" cx="256" cy="115.704" r="42.744"/>
<circle style="fill:#E21B1B;" cx="256" cy="115.704" r="13.744"/>
<g style="opacity:0.35;">
	<path style="fill:#FFFFFF;" d="M125.064,0c-22.36,0-40.496,18.128-40.496,40.496v64.464L189.52,0H125.064z"/>
</g>
<g>
</g>
<g>
</g>
<g>
</g>
<g>
</g>
<g>
</g>
<g>
</g>
<g>
</g>
<g>
</g>
<g>
</g>
<g>
</g>
<g>
</g>
<g>
</g>
<g>
</g>
<g>
</g>
<g>
</g>
</svg>
