<?xml version="1.0" encoding="iso-8859-1"?>
<!-- Generator: Adobe Illustrator 19.0.0, SVG Export Plug-In . SVG Version: 6.00 Build 0)  -->
<svg xmlns="http://www.w3.org/2000/svg" xmlns:xlink="http://www.w3.org/1999/xlink" version="1.1" id="Layer_1" x="0px" y="0px" viewBox="0 0 512 512" style="enable-background:new 0 0 512 512;" xml:space="preserve">
<circle style="fill:#E0E0E0;" cx="256" cy="256" r="256"/>
<path d="M135.464,104.472v303.056c0,15.728,12.744,28.472,28.472,28.472h184.128c15.728,0,28.472-12.744,28.472-28.472V104.472  c0-15.728-12.744-28.472-28.472-28.472H163.936C148.208,76,135.464,88.744,135.464,104.472z"/>
<g>
	<path style="fill:#999999;" d="M256,406.016c-44.48,0-80.664-36.184-80.664-80.664S211.52,244.688,256,244.688   c44.488,0,80.672,36.184,80.672,80.664S300.488,406.016,256,406.016z M256,248.688c-42.272,0-76.664,34.392-76.664,76.664   s34.392,76.664,76.664,76.664s76.672-34.392,76.672-76.664S298.272,248.688,256,248.688z"/>
	<path style="fill:#999999;" d="M256,208.728c-28.32,0-51.368-23.048-51.368-51.376S227.68,105.976,256,105.976   c28.328,0,51.376,23.048,51.376,51.376S284.328,208.728,256,208.728z M256,109.976c-26.12,0-47.368,21.248-47.368,47.376   S229.88,204.728,256,204.728c26.128,0,47.376-21.248,47.376-47.376S282.128,109.976,256,109.976z"/>
</g>
<circle style="fill:#FFFFFF;" cx="256" cy="325.352" r="58.104"/>
<circle style="fill:#E21B1B;" cx="256" cy="325.352" r="21.632"/>
<circle style="fill:#FFFFFF;" cx="256" cy="157.352" r="30.056"/>
<circle style="fill:#E21B1B;" cx="256" cy="157.352" r="9.664"/>
<g style="opacity:0.35;">
	<path style="fill:#FFFFFF;" d="M163.936,76c-15.728,0-28.472,12.744-28.472,28.472v45.32L209.256,76H163.936z"/>
</g>
<g>
</g>
<g>
</g>
<g>
</g>
<g>
</g>
<g>
</g>
<g>
</g>
<g>
</g>
<g>
</g>
<g>
</g>
<g>
</g>
<g>
</g>
<g>
</g>
<g>
</g>
<g>
</g>
<g>
</g>
</svg>
