<?xml version="1.0" encoding="iso-8859-1"?>
<!-- Generator: Adobe Illustrator 19.0.0, SVG Export Plug-In . SVG Version: 6.00 Build 0)  -->
<svg xmlns="http://www.w3.org/2000/svg" xmlns:xlink="http://www.w3.org/1999/xlink" version="1.1" id="Layer_1" x="0px" y="0px" viewBox="0 0 512 512" style="enable-background:new 0 0 512 512;" xml:space="preserve">
<g>
	<rect x="116.616" y="416.4" style="fill:#848484;" width="278.768" height="12"/>
	<rect y="498.44" style="fill:#848484;" width="512" height="12"/>
</g>
<g>
	<rect x="346.24" y="285.04" style="fill:#E21B1B;" width="85.928" height="29.88"/>
	<rect x="346.24" y="228.4" style="fill:#E21B1B;" width="85.928" height="29.88"/>
	<rect x="346.24" y="171.752" style="fill:#E21B1B;" width="85.928" height="29.88"/>
	<rect x="346.24" y="115.112" style="fill:#E21B1B;" width="85.928" height="29.88"/>
	<rect x="213.04" y="285.04" style="fill:#E21B1B;" width="85.928" height="29.88"/>
	<rect x="213.04" y="228.4" style="fill:#E21B1B;" width="85.928" height="29.88"/>
	<rect x="213.04" y="171.752" style="fill:#E21B1B;" width="85.928" height="29.88"/>
	<rect x="213.04" y="115.112" style="fill:#E21B1B;" width="85.928" height="29.88"/>
	<rect x="213.04" y="58.2" style="fill:#E21B1B;" width="85.928" height="29.88"/>
	<rect x="213.04" y="1.56" style="fill:#E21B1B;" width="85.928" height="29.88"/>
	<rect x="79.824" y="285.04" style="fill:#E21B1B;" width="85.928" height="29.88"/>
	<rect x="79.824" y="228.4" style="fill:#E21B1B;" width="85.928" height="29.88"/>
	<rect x="79.824" y="171.752" style="fill:#E21B1B;" width="85.928" height="29.88"/>
</g>
<g>
</g>
<g>
</g>
<g>
</g>
<g>
</g>
<g>
</g>
<g>
</g>
<g>
</g>
<g>
</g>
<g>
</g>
<g>
</g>
<g>
</g>
<g>
</g>
<g>
</g>
<g>
</g>
<g>
</g>
</svg>
