<?xml version="1.0" encoding="iso-8859-1"?>
<!-- Generator: Adobe Illustrator 19.0.0, SVG Export Plug-In . SVG Version: 6.00 Build 0)  -->
<svg xmlns="http://www.w3.org/2000/svg" xmlns:xlink="http://www.w3.org/1999/xlink" version="1.1" id="Layer_1" x="0px" y="0px" viewBox="0 0 512 512" style="enable-background:new 0 0 512 512;" xml:space="preserve">
<path style="fill:#FFFFFF;" d="M256,508C117.048,508,4,394.952,4,256S117.048,4,256,4s252,113.048,252,252S394.952,508,256,508z"/>
<path style="fill:#CCCCCC;" d="M256,8c136.744,0,248,111.256,248,248S392.744,504,256,504S8,392.744,8,256S119.256,8,256,8 M256,0  C114.616,0,0,114.616,0,256s114.616,256,256,256s256-114.616,256-256S397.384,0,256,0L256,0z"/>
<path style="fill:#E21B1B;" d="M256,50.976c113.056,0,205.024,91.976,205.024,205.024S369.056,461.024,256,461.024  S50.976,369.056,50.976,256S142.944,50.976,256,50.976 M256,34.976C133.928,34.976,34.976,133.928,34.976,256  S133.928,477.024,256,477.024S477.024,378.072,477.024,256S378.072,34.976,256,34.976L256,34.976z"/>
<path d="M253.848,294.496h4.312c23.04,0,41.896-18.848,41.896-41.896V136c0-23.04-18.848-41.896-41.896-41.896h-4.312  c-23.04,0-41.896,18.848-41.896,41.896v116.6C211.952,275.64,230.8,294.496,253.848,294.496z"/>
<path style="fill:#E21B1B;" d="M330.36,255.744H313.6c0,31.76-25.84,57.6-57.6,57.6s-57.6-25.84-57.6-57.6h-16.76  c0,38.28,29.08,69.872,66.304,73.904h-0.32v53.376H208.56v16.76h94.88v-16.76h-39.064v-53.376h-0.32  C301.28,325.616,330.36,294.016,330.36,255.744z"/>
<g>
</g>
<g>
</g>
<g>
</g>
<g>
</g>
<g>
</g>
<g>
</g>
<g>
</g>
<g>
</g>
<g>
</g>
<g>
</g>
<g>
</g>
<g>
</g>
<g>
</g>
<g>
</g>
<g>
</g>
</svg>
