<?xml version="1.0" encoding="iso-8859-1"?>
<!-- Generator: Adobe Illustrator 19.0.0, SVG Export Plug-In . SVG Version: 6.00 Build 0)  -->
<svg xmlns="http://www.w3.org/2000/svg" xmlns:xlink="http://www.w3.org/1999/xlink" version="1.1" id="Layer_1" x="0px" y="0px" viewBox="0 0 512 512" style="enable-background:new 0 0 512 512;" xml:space="preserve">
<rect x="98.784" y="19.136" style="fill:#666666;" width="24" height="157.928"/>
<rect y="174.456" width="512" height="318.408"/>
<g>
	<circle style="fill:#E21B1B;" cx="110.824" cy="371.352" r="65.848"/>
	<circle style="fill:#E21B1B;" cx="401.2" cy="371.352" r="65.848"/>
</g>
<path d="M110.832,413.024c-22.992,0-41.696-18.704-41.696-41.696c0-22.984,18.704-41.688,41.696-41.688  c22.984,0,41.688,18.704,41.688,41.688C152.512,394.328,133.816,413.024,110.832,413.024z M110.832,337.648  c-18.576,0-33.696,15.112-33.696,33.688s15.12,33.696,33.696,33.696s33.688-15.12,33.688-33.696S129.408,337.648,110.832,337.648z"/>
<path d="M401.176,413.024c-22.984,0-41.688-18.704-41.688-41.696c0-22.984,18.704-41.688,41.688-41.688  c22.992,0,41.696,18.704,41.696,41.688C442.864,394.328,424.168,413.024,401.176,413.024z M401.176,337.648  c-18.576,0-33.688,15.112-33.688,33.688s15.112,33.696,33.688,33.696s33.696-15.12,33.696-33.696S419.752,337.648,401.176,337.648z"/>
<g>
	<rect x="209.04" y="329.672" style="fill:#666666;" width="93.968" height="8"/>
	<rect x="209.04" y="354.792" style="fill:#666666;" width="93.968" height="8"/>
	<rect x="209.04" y="379.912" style="fill:#666666;" width="93.968" height="8"/>
	<rect x="209.04" y="405.024" style="fill:#666666;" width="93.968" height="8"/>
	<rect x="44.976" y="213.648" style="fill:#666666;" width="422.04" height="35.504"/>
</g>
<g>
</g>
<g>
</g>
<g>
</g>
<g>
</g>
<g>
</g>
<g>
</g>
<g>
</g>
<g>
</g>
<g>
</g>
<g>
</g>
<g>
</g>
<g>
</g>
<g>
</g>
<g>
</g>
<g>
</g>
</svg>
