<?xml version="1.0" encoding="iso-8859-1"?>
<!-- Generator: Adobe Illustrator 19.0.0, SVG Export Plug-In . SVG Version: 6.00 Build 0)  -->
<svg xmlns="http://www.w3.org/2000/svg" xmlns:xlink="http://www.w3.org/1999/xlink" version="1.1" id="Layer_1" x="0px" y="0px" viewBox="0 0 512 512" style="enable-background:new 0 0 512 512;" xml:space="preserve">
<rect x="60.816" y="92.524" transform="matrix(-0.9811 0.1933 -0.1933 -0.9811 442.3257 149.8886)" style="fill:#00000A;" width="306.068" height="8"/>
<rect x="53.232" y="80.143" width="139.576" height="46.08"/>
<path style="fill:#E21B1B;" d="M482.52,448.983H29.48c-16.28,0-29.48-13.2-29.48-29.48v-275.2c0-16.28,13.2-29.48,29.48-29.48  h453.04c16.28,0,29.48,13.2,29.48,29.48v275.2C512,435.783,498.8,448.983,482.52,448.983z"/>
<circle cx="355.68" cy="281.903" r="81.072"/>
<g style="opacity:0.25;">
	<circle style="fill:#FFFFFF;" cx="355.68" cy="281.903" r="38.504"/>
</g>
<path d="M355.688,388.991c-59.048,0-107.088-48.04-107.088-107.088s48.04-107.08,107.088-107.08s107.08,48.032,107.08,107.08  S414.736,388.991,355.688,388.991z M355.688,182.823c-54.632,0-99.088,44.448-99.088,99.08s44.456,99.088,99.088,99.088  s99.08-44.456,99.08-99.088S410.32,182.823,355.688,182.823z"/>
<g>
	<rect x="53.232" y="206.615" style="fill:#FFFFFF;" width="139.576" height="8"/>
	<rect x="53.232" y="254.143" style="fill:#FFFFFF;" width="139.576" height="8"/>
	<rect x="53.232" y="301.671" style="fill:#FFFFFF;" width="139.576" height="8"/>
	<rect x="53.232" y="349.175" style="fill:#FFFFFF;" width="139.576" height="8"/>
</g>
<g>
</g>
<g>
</g>
<g>
</g>
<g>
</g>
<g>
</g>
<g>
</g>
<g>
</g>
<g>
</g>
<g>
</g>
<g>
</g>
<g>
</g>
<g>
</g>
<g>
</g>
<g>
</g>
<g>
</g>
</svg>
