<?xml version="1.0" encoding="iso-8859-1"?>
<!-- Generator: Adobe Illustrator 19.0.0, SVG Export Plug-In . SVG Version: 6.00 Build 0)  -->
<svg xmlns="http://www.w3.org/2000/svg" xmlns:xlink="http://www.w3.org/1999/xlink" version="1.1" id="Layer_1" x="0px" y="0px" viewBox="0 0 512 512" style="enable-background:new 0 0 512 512;" xml:space="preserve">
<path d="M469.32,396.792V102.4c0-7.04-5.76-12.8-12.8-12.8H55.536c-7.04,0-12.8,5.76-12.8,12.8v294.392  C42.736,396.792,470.384,396.792,469.32,396.792z"/>
<rect y="396.8" style="fill:#D8D8D8;" width="512" height="8.536"/>
<polygon style="fill:#BCBCBC;" points="486.4,422.4 25.6,422.4 0,405.328 512,405.328 "/>
<g style="opacity:0.7;">
	<path style="fill:#FFFFFF;" d="M299.04,396.8h-86.08c0.816,4.792,4.824,8.536,9.832,8.536H289.2   C294.216,405.328,298.224,401.592,299.04,396.8z"/>
</g>
<rect x="93.088" y="303.032" style="fill:#E21B1B;" width="325.824" height="8"/>
<g>
	<rect x="93.088" y="302.512" style="fill:#FFFFFF;" width="85.2" height="9.048"/>
	<circle style="fill:#FFFFFF;" cx="160.96" cy="307.04" r="20"/>
</g>
<circle style="fill:#E21B1B;" cx="160.96" cy="307.04" r="8.56"/>
<path style="fill:#FFFFFF;" d="M260.528,157.696c-27.512,0-49.776,22.264-49.776,49.776s22.264,49.776,49.776,49.776  s49.776-22.264,49.776-49.776S288.04,157.696,260.528,157.696L260.528,157.696z"/>
<polygon style="fill:#E21B1B;" points="247.76,184.848 285.416,206.576 247.76,228.296 "/>
<g>
</g>
<g>
</g>
<g>
</g>
<g>
</g>
<g>
</g>
<g>
</g>
<g>
</g>
<g>
</g>
<g>
</g>
<g>
</g>
<g>
</g>
<g>
</g>
<g>
</g>
<g>
</g>
<g>
</g>
</svg>
