<?xml version="1.0" encoding="iso-8859-1"?>
<!-- Generator: Adobe Illustrator 19.0.0, SVG Export Plug-In . SVG Version: 6.00 Build 0)  -->
<svg xmlns="http://www.w3.org/2000/svg" xmlns:xlink="http://www.w3.org/1999/xlink" version="1.1" id="Layer_1" x="0px" y="0px" viewBox="0 0 512.432 512.432" style="enable-background:new 0 0 512.432 512.432;" xml:space="preserve">
<rect x="152.16" y="340.196" style="fill:#333333;" width="119.112" height="89.584"/>
<polygon points="152.128,355.684 222.992,355.684 152.128,403.564 "/>
<g>
	<path style="fill:#E0E0E0;" d="M305.544,447.108h-187.72c-7.28,0-13.232-5.96-13.232-13.232l0,0c0-7.28,5.96-13.232,13.232-13.232   h187.704c7.28,0,13.232,5.96,13.232,13.232l0,0C318.776,441.156,312.816,447.108,305.544,447.108z"/>
	<path style="fill:#E0E0E0;" d="M396.896,355.684H26.456C11.904,355.684,0,343.78,0,329.228V91.092   C0,76.54,11.904,64.636,26.456,64.636h370.44c14.552,0,26.456,11.904,26.456,26.456v238.136   C423.36,343.78,411.456,355.684,396.896,355.684z"/>
</g>
<rect x="18.168" y="82.764" width="387.04" height="254.784"/>
<path d="M359.232,237.116V429.7c0,9.992,8.104,18.096,18.096,18.096h117.008c9.992,0,18.096-8.104,18.096-18.096V237.116  c0-9.992-8.104-18.096-18.096-18.096H377.32C367.328,219.02,359.232,227.124,359.232,237.116z"/>
<g>
	<path style="fill:#999999;" d="M435.832,429.468c-28.672,0-51.992-23.32-51.992-51.984c0-28.672,23.32-51.992,51.992-51.992   s51.992,23.32,51.992,51.992C487.824,406.14,464.504,429.468,435.832,429.468z M435.832,329.484   c-26.464,0-47.992,21.528-47.992,47.992s21.528,47.984,47.992,47.984s47.992-21.52,47.992-47.984S462.288,329.484,435.832,329.484z   "/>
	<path style="fill:#999999;" d="M435.832,304.092c-18.408,0-33.376-14.968-33.376-33.368c0-18.408,14.968-33.384,33.376-33.384   s33.376,14.976,33.376,33.384C469.2,289.124,454.232,304.092,435.832,304.092z M435.832,241.34   c-16.192,0-29.376,13.176-29.376,29.384c0,16.192,13.176,29.368,29.376,29.368s29.376-13.168,29.376-29.368   C465.2,254.516,452.024,241.34,435.832,241.34z"/>
</g>
<circle style="fill:#FFFFFF;" cx="435.84" cy="377.5" r="36.928"/>
<circle style="fill:#E21B1B;" cx="435.84" cy="377.5" r="13.744"/>
<circle style="fill:#FFFFFF;" cx="435.84" cy="270.716" r="19.096"/>
<circle style="fill:#E21B1B;" cx="435.84" cy="270.716" r="6.144"/>
<g style="opacity:0.35;">
	<path style="fill:#FFFFFF;" d="M377.32,219.02c-9.992,0-18.096,8.104-18.096,18.096v28.8l46.896-46.896L377.32,219.02   L377.32,219.02z"/>
</g>
<g>
</g>
<g>
</g>
<g>
</g>
<g>
</g>
<g>
</g>
<g>
</g>
<g>
</g>
<g>
</g>
<g>
</g>
<g>
</g>
<g>
</g>
<g>
</g>
<g>
</g>
<g>
</g>
<g>
</g>
</svg>
