<?xml version="1.0" encoding="iso-8859-1"?>
<!-- Generator: Adobe Illustrator 19.0.0, SVG Export Plug-In . SVG Version: 6.00 Build 0)  -->
<svg xmlns="http://www.w3.org/2000/svg" xmlns:xlink="http://www.w3.org/1999/xlink" version="1.1" id="Layer_1" x="0px" y="0px" viewBox="0 0 512 512" style="enable-background:new 0 0 512 512;" xml:space="preserve">
<rect x="183.976" y="357.984" style="fill:#333333;" width="144.08" height="108.336"/>
<polygon points="183.976,376.72 269.688,376.72 183.976,434.624 "/>
<g>
	<path style="fill:#E0E0E0;" d="M369.52,487.28H142.496c-8.808,0-16-7.208-16-16l0,0c0-8.808,7.208-16,16-16h227.008   c8.808,0,16,7.208,16,16l0,0C385.52,480.088,378.312,487.28,369.52,487.28z"/>
	<path style="fill:#E0E0E0;" d="M480,376.72H32c-17.6,0-32-14.4-32-32v-288c0-17.6,14.4-32,32-32h448c17.6,0,32,14.4,32,32v288   C512,362.32,497.6,376.72,480,376.72z"/>
</g>
<rect x="21.968" y="46.656" style="fill:#FFFFFF;" width="468.08" height="308.128"/>
<g>
	<path style="fill:#E21B1B;" d="M301.536,90.744v154.104c-8.224-5.624-18.904-9.04-30.592-9.04c-25.976,0-47.04,16.768-47.04,37.448   s21.056,37.448,47.04,37.448c25.976,0,47.04-16.768,47.04-37.448V143.232l60.464,31.304V128.56L301.536,90.744z"/>
	<path style="fill:#E21B1B;" d="M186.856,90.744v105.808c-5.648-3.864-12.976-6.208-21.008-6.208   c-17.84,0-32.296,11.512-32.296,25.712c0,14.2,14.456,25.712,32.296,25.712s32.296-11.512,32.296-25.712v-89.272l41.52,21.488   v-31.568L186.856,90.744z"/>
</g>
<g>
</g>
<g>
</g>
<g>
</g>
<g>
</g>
<g>
</g>
<g>
</g>
<g>
</g>
<g>
</g>
<g>
</g>
<g>
</g>
<g>
</g>
<g>
</g>
<g>
</g>
<g>
</g>
<g>
</g>
</svg>
