<?xml version="1.0" encoding="iso-8859-1"?>
<!-- Generator: Adobe Illustrator 19.0.0, SVG Export Plug-In . SVG Version: 6.00 Build 0)  -->
<svg xmlns="http://www.w3.org/2000/svg" xmlns:xlink="http://www.w3.org/1999/xlink" version="1.1" id="Layer_1" x="0px" y="0px" viewBox="0 0 512 512" style="enable-background:new 0 0 512 512;" xml:space="preserve">
<path style="fill:#FFFFFF;" d="M256,508C117.048,508,4,394.952,4,256S117.048,4,256,4s252,113.048,252,252S394.952,508,256,508z"/>
<path style="fill:#CCCCCC;" d="M256,8c136.744,0,248,111.256,248,248S392.744,504,256,504S8,392.744,8,256S119.256,8,256,8 M256,0  C114.616,0,0,114.616,0,256s114.616,256,256,256s256-114.616,256-256S397.384,0,256,0L256,0z"/>
<g>
	<path style="fill:#E21B1B;" d="M256,50.976c113.056,0,205.024,91.976,205.024,205.024S369.056,461.024,256,461.024   S50.976,369.056,50.976,256S142.944,50.976,256,50.976 M256,34.976C133.928,34.976,34.976,133.928,34.976,256   S133.928,477.024,256,477.024S477.024,378.072,477.024,256S378.072,34.976,256,34.976L256,34.976z"/>
	<path style="fill:#E21B1B;" d="M337.712,150.464V303.32c-8.16-5.576-18.752-8.968-30.352-8.968   c-25.768,0-46.656,16.632-46.656,37.144c0,20.512,20.888,37.144,46.656,37.144s46.656-16.632,46.656-37.144V196.88l59.976,31.824   v-39.952L337.712,150.464z"/>
	<rect x="128" y="292.44" style="fill:#E21B1B;" width="91.272" height="16"/>
	<rect x="128" y="233.68" style="fill:#E21B1B;" width="143.024" height="16"/>
	<rect x="128" y="174.976" style="fill:#E21B1B;" width="143.024" height="16"/>
</g>
<g>
</g>
<g>
</g>
<g>
</g>
<g>
</g>
<g>
</g>
<g>
</g>
<g>
</g>
<g>
</g>
<g>
</g>
<g>
</g>
<g>
</g>
<g>
</g>
<g>
</g>
<g>
</g>
<g>
</g>
</svg>
