<?xml version="1.0" encoding="iso-8859-1"?>
<!-- Generator: Adobe Illustrator 19.0.0, SVG Export Plug-In . SVG Version: 6.00 Build 0)  -->
<svg xmlns="http://www.w3.org/2000/svg" xmlns:xlink="http://www.w3.org/1999/xlink" version="1.1" id="Layer_1" x="0px" y="0px" viewBox="0 0 512.004 512.004" style="enable-background:new 0 0 512.004 512.004;" xml:space="preserve">
<path style="fill:#E21B1B;" d="M286.858,237.784c8.808,27.416-9.528,57.816-40.944,67.912c-31.424,10.096-64.032-3.944-72.84-31.36  s9.528-57.816,40.944-67.912c13.728-4.408,27.68-4.216,39.776-0.312L216.322,89.496l-145.928,80.32l45.6,141.936  c8.808,27.416-9.528,57.824-40.944,67.912c-31.424,10.096-64.032-3.944-72.84-31.36c-8.808-27.416,9.528-57.824,40.944-67.912  c13.728-4.408,27.68-4.216,39.776-0.312L35.714,133.12l0,0l-10.088-31.392L210.458,0L286.858,237.784z"/>
<path style="fill:#999999;" d="M426.378,494.224c-9.872,17.848-34.456,23.144-54.912,11.824  c-20.456-11.312-29.032-34.952-19.16-52.8s34.456-23.144,54.912-11.824c8.936,4.944,15.6,12.24,19.456,20.368l41.992-75.92  l-112.248-36.328l-51.104,92.4c-9.872,17.848-34.456,23.144-54.912,11.824c-20.456-11.312-29.032-34.952-19.16-52.8  s34.456-23.144,54.912-11.824c8.936,4.944,15.6,12.24,19.456,20.368l52.92-95.672l0,0l11.304-20.432l142.168,46.016L426.378,494.224  z"/>
<g>
</g>
<g>
</g>
<g>
</g>
<g>
</g>
<g>
</g>
<g>
</g>
<g>
</g>
<g>
</g>
<g>
</g>
<g>
</g>
<g>
</g>
<g>
</g>
<g>
</g>
<g>
</g>
<g>
</g>
</svg>
