<?xml version="1.0" encoding="iso-8859-1"?>
<!-- Generator: Adobe Illustrator 19.0.0, SVG Export Plug-In . SVG Version: 6.00 Build 0)  -->
<svg xmlns="http://www.w3.org/2000/svg" xmlns:xlink="http://www.w3.org/1999/xlink" version="1.1" id="Layer_1" x="0px" y="0px" viewBox="0 0 512 512" style="enable-background:new 0 0 512 512;" xml:space="preserve">
<g>
	<rect x="116.616" y="398.976" style="fill:#848484;" width="278.768" height="12"/>
	<rect y="480.984" style="fill:#848484;" width="512" height="12"/>
</g>
<path style="fill:#E21B1B;" d="M389.016,236.992c0,25.128-23.352,45.504-52.152,45.504c-28.8,0-52.152-20.368-52.152-45.504  s23.352-45.504,52.152-45.504c12.584,0,24.12,3.888,33.128,10.36V94.952l-142.696,27.776V252.84  c0,25.128-23.352,45.504-52.152,45.504c-28.808,0-52.152-20.368-52.152-45.504c0-25.128,23.352-45.504,52.152-45.504  c12.584,0,24.12,3.888,33.128,10.36V82.976l0,0V54.2l180.744-35.184V236.992z"/>
<g>
</g>
<g>
</g>
<g>
</g>
<g>
</g>
<g>
</g>
<g>
</g>
<g>
</g>
<g>
</g>
<g>
</g>
<g>
</g>
<g>
</g>
<g>
</g>
<g>
</g>
<g>
</g>
<g>
</g>
</svg>
