<?xml version="1.0" encoding="iso-8859-1"?>
<!-- Generator: Adobe Illustrator 19.0.0, SVG Export Plug-In . SVG Version: 6.00 Build 0)  -->
<svg xmlns="http://www.w3.org/2000/svg" xmlns:xlink="http://www.w3.org/1999/xlink" version="1.1" id="Layer_1" x="0px" y="0px" viewBox="0 0 512 512" style="enable-background:new 0 0 512 512;" xml:space="preserve">
<path style="fill:#E21B1B;" d="M512,413.964c0,27.264-25.336,49.368-56.592,49.368s-56.592-22.104-56.592-49.368  s25.336-49.368,56.592-49.368c13.648,0,26.176,4.216,35.944,11.24v-116L336.52,289.972v141.176  c0,27.264-25.336,49.368-56.592,49.368s-56.592-22.104-56.592-49.368s25.336-49.368,56.592-49.368  c13.648,0,26.176,4.216,35.944,11.24V246.844l0,0V215.62L512,177.452V413.964z"/>
<path d="M246.592,31.484L79.056,64.1v26.672l0,0v124.88c-8.352-6-19.048-9.608-30.712-9.608C21.648,206.044,0,224.932,0,248.228  s21.648,42.176,48.344,42.176s48.344-18.88,48.344-42.176V127.62l132.272-25.744v99.096c-8.352-6-19.048-9.608-30.712-9.608  c-26.696,0-48.344,18.88-48.344,42.176s21.648,42.176,48.344,42.176s48.344-18.88,48.344-42.176L246.592,31.484L246.592,31.484z"/>
<g>
</g>
<g>
</g>
<g>
</g>
<g>
</g>
<g>
</g>
<g>
</g>
<g>
</g>
<g>
</g>
<g>
</g>
<g>
</g>
<g>
</g>
<g>
</g>
<g>
</g>
<g>
</g>
<g>
</g>
</svg>
