<?xml version="1.0" encoding="iso-8859-1"?>
<!-- Generator: Adobe Illustrator 19.0.0, SVG Export Plug-In . SVG Version: 6.00 Build 0)  -->
<svg xmlns="http://www.w3.org/2000/svg" xmlns:xlink="http://www.w3.org/1999/xlink" version="1.1" id="Layer_1" x="0px" y="0px" viewBox="0 0 512 512" style="enable-background:new 0 0 512 512;" xml:space="preserve">
<g>
	<path style="fill:#E21B1B;" d="M351.208,26.068v322.176c-17.2-11.752-39.52-18.904-63.968-18.904   c-54.312,0-98.336,35.056-98.336,78.296s44.024,78.296,98.336,78.296s98.336-35.056,98.336-78.296V135.82L512,201.26v-96.12   L351.208,26.068z"/>
	<path style="fill:#E21B1B;" d="M111.44,26.068v221.208C99.632,239.204,84.304,234.3,67.52,234.3C30.232,234.3,0,258.372,0,288.06   c0,29.688,30.232,53.76,67.52,53.76s67.52-24.072,67.52-53.76V101.428l86.8,44.936v-66L111.44,26.068z"/>
</g>
<g>
</g>
<g>
</g>
<g>
</g>
<g>
</g>
<g>
</g>
<g>
</g>
<g>
</g>
<g>
</g>
<g>
</g>
<g>
</g>
<g>
</g>
<g>
</g>
<g>
</g>
<g>
</g>
<g>
</g>
</svg>
