<?xml version="1.0" encoding="iso-8859-1"?>
<!-- Generator: Adobe Illustrator 19.0.0, SVG Export Plug-In . SVG Version: 6.00 Build 0)  -->
<svg xmlns="http://www.w3.org/2000/svg" xmlns:xlink="http://www.w3.org/1999/xlink" version="1.1" id="Layer_1" x="0px" y="0px" viewBox="0 0 512 512" style="enable-background:new 0 0 512 512;" xml:space="preserve">
<path style="fill:#E21B1B;" d="M256,0C114.616,0,0,114.616,0,256s114.616,256,256,256s256-114.616,256-256S397.384,0,256,0z"/>
<path style="fill:#FFFFFF;" d="M387.208,333.208c0,24.792-23.032,44.88-51.448,44.88c-28.408,0-51.448-20.096-51.448-44.88  s23.032-44.88,51.448-44.88c12.408,0,23.792,3.832,32.68,10.224V193.096l-140.752,27.4V348.84c0,24.784-23.032,44.88-51.448,44.88  s-51.448-20.096-51.448-44.88c0-24.792,23.032-44.88,51.448-44.88c12.408,0,23.792,3.832,32.68,10.224V181.288l0,0v-28.384  L387.2,118.2v215.008H387.208z"/>
<g>
</g>
<g>
</g>
<g>
</g>
<g>
</g>
<g>
</g>
<g>
</g>
<g>
</g>
<g>
</g>
<g>
</g>
<g>
</g>
<g>
</g>
<g>
</g>
<g>
</g>
<g>
</g>
<g>
</g>
</svg>
