<?xml version="1.0" encoding="iso-8859-1"?>
<!-- Generator: Adobe Illustrator 19.0.0, SVG Export Plug-In . SVG Version: 6.00 Build 0)  -->
<svg xmlns="http://www.w3.org/2000/svg" xmlns:xlink="http://www.w3.org/1999/xlink" version="1.1" id="Layer_1" x="0px" y="0px" viewBox="0 0 512 512" style="enable-background:new 0 0 512 512;" xml:space="preserve">
<rect x="183.976" y="357.984" style="fill:#333333;" width="144.08" height="108.336"/>
<polygon points="183.976,376.72 269.688,376.72 183.976,434.624 "/>
<g>
	<path style="fill:#E0E0E0;" d="M369.52,487.28H142.496c-8.808,0-16-7.208-16-16l0,0c0-8.808,7.208-16,16-16h227.008   c8.808,0,16,7.208,16,16l0,0C385.52,480.088,378.312,487.28,369.52,487.28z"/>
	<path style="fill:#E0E0E0;" d="M480,376.72H32c-17.6,0-32-14.4-32-32v-288c0-17.6,14.4-32,32-32h448c17.6,0,32,14.4,32,32v288   C512,362.32,497.6,376.72,480,376.72z"/>
</g>
<rect x="21.968" y="46.656" style="fill:#FFFFFF;" width="468.08" height="308.128"/>
<path d="M232.904,288.144c-0.288-6.264-0.648-13.832-0.576-20.384h-0.208c-1.584,5.904-3.6,12.464-5.768,18.576l-7.056,21.032h-6.84  l-6.488-20.744c-1.872-6.192-3.6-12.824-4.896-18.864h-0.144c-0.216,6.336-0.504,14.048-0.864,20.672l-1.08,19.512h-8.28  l3.24-48.536h11.664l6.336,19.512c1.736,5.688,3.24,11.456,4.472,16.848h0.216c1.288-5.256,2.952-11.232,4.824-16.92l6.704-19.448  h11.52l2.808,48.536h-8.64L232.904,288.144z"/>
<path d="M251.472,260.064c3.168-0.576,7.552-1.016,13.536-1.016c6.48,0,11.232,1.376,14.328,3.968  c2.88,2.376,4.76,6.184,4.76,10.728c0,4.608-1.448,8.432-4.176,11.024c-3.528,3.52-9.08,5.176-15.344,5.176  c-1.656,0-3.16-0.072-4.32-0.288v18.296h-8.784L251.472,260.064L251.472,260.064z M260.256,282.672c1.088,0.288,2.52,0.36,4.32,0.36  c6.624,0,10.664-3.24,10.664-8.928c0-5.4-3.752-8.28-9.864-8.28c-2.448,0-4.176,0.216-5.112,0.432v16.416H260.256z"/>
<path d="M309.216,307.952v-11.88H288.04v-5.768l19.088-29.168h10.448v28.232h6.048v6.696h-6.048v11.88h-8.36V307.952z   M309.216,289.376v-12.752c0-2.664,0.072-5.408,0.288-8.144h-0.288c-1.448,2.952-2.664,5.328-4.112,7.92l-8.568,12.824l-0.072,0.152  H309.216z"/>
<polygon style="fill:#E21B1B;" points="177.92,123.592 256,46.656 334.08,123.592 293.144,123.592 293.144,207.704 218.856,207.704   218.856,123.592 "/>
<g>
</g>
<g>
</g>
<g>
</g>
<g>
</g>
<g>
</g>
<g>
</g>
<g>
</g>
<g>
</g>
<g>
</g>
<g>
</g>
<g>
</g>
<g>
</g>
<g>
</g>
<g>
</g>
<g>
</g>
</svg>
