<?xml version="1.0" encoding="iso-8859-1"?>
<!-- Generator: Adobe Illustrator 19.0.0, SVG Export Plug-In . SVG Version: 6.00 Build 0)  -->
<svg xmlns="http://www.w3.org/2000/svg" xmlns:xlink="http://www.w3.org/1999/xlink" version="1.1" id="Layer_1" x="0px" y="0px" viewBox="0 0 512 512" style="enable-background:new 0 0 512 512;" xml:space="preserve">
<path style="fill:#FFFFFF;" d="M256,508C117.048,508,4,394.96,4,256C4,117.048,117.048,4,256,4s252,113.048,252,252  C508,394.96,394.952,508,256,508z"/>
<path style="fill:#CCCCCC;" d="M256,8c136.744,0,248,111.256,248,248S392.744,504,256,504S8,392.744,8,256S119.256,8,256,8 M256,0  C114.616,0,0,114.616,0,256s114.616,256,256,256s256-114.616,256-256S397.384,0,256,0L256,0z"/>
<path style="fill:#E21B1B;" d="M256,50.976c113.056,0,205.024,91.976,205.024,205.024S369.056,461.024,256,461.024  S50.976,369.056,50.976,256S142.944,50.976,256,50.976 M256,34.976C133.928,34.976,34.976,133.928,34.976,256  S133.928,477.024,256,477.024S477.024,378.072,477.024,256S378.072,34.976,256,34.976L256,34.976z"/>
<path d="M214.944,258.36c-0.512-11.144-1.16-24.584-1.024-36.24h-0.384c-2.824,10.496-6.408,22.16-10.248,33.04l-12.544,37.392  h-12.168l-11.52-36.88c-3.328-11.008-6.408-22.792-8.712-33.544h-0.248c-0.392,11.264-0.896,24.968-1.536,36.752l-1.92,34.704  h-14.728l5.768-86.304h20.744l11.264,34.704c3.08,10.112,5.768,20.36,7.944,29.96h0.384c2.304-9.352,5.248-19.976,8.576-30.096  l11.904-34.568h20.496l4.992,86.304h-15.368L214.944,258.36z"/>
<path d="M247.944,208.416c5.632-1.024,13.448-1.792,24.072-1.792c11.52,0,19.976,2.432,25.488,7.04  c5.128,4.224,8.456,11.016,8.456,19.08c0,8.192-2.56,14.984-7.432,19.592c-6.272,6.272-16.136,9.216-27.272,9.216  c-2.944,0-5.632-0.128-7.688-0.504v32.52h-15.616v-85.152H247.944z M263.56,248.632c1.92,0.504,4.488,0.64,7.688,0.64  c11.784,0,18.952-5.768,18.952-15.88c0-9.6-6.664-14.728-17.544-14.728c-4.352,0-7.432,0.392-9.096,0.776L263.56,248.632  L263.56,248.632z"/>
<path d="M350.608,293.576v-21.128H312.96V262.2l33.928-51.856h18.568v50.192h10.76v11.912h-10.76v21.128H350.608z M350.608,260.536  v-22.664c0-4.736,0.128-9.6,0.504-14.472h-0.504c-2.56,5.248-4.744,9.48-7.304,14.088l-15.232,22.792l-0.128,0.256H350.608z"/>
<g>
</g>
<g>
</g>
<g>
</g>
<g>
</g>
<g>
</g>
<g>
</g>
<g>
</g>
<g>
</g>
<g>
</g>
<g>
</g>
<g>
</g>
<g>
</g>
<g>
</g>
<g>
</g>
<g>
</g>
</svg>
