<?xml version="1.0" encoding="iso-8859-1"?>
<!-- Generator: Adobe Illustrator 19.0.0, SVG Export Plug-In . SVG Version: 6.00 Build 0)  -->
<svg xmlns="http://www.w3.org/2000/svg" xmlns:xlink="http://www.w3.org/1999/xlink" version="1.1" id="Layer_1" x="0px" y="0px" viewBox="0 0 512 512" style="enable-background:new 0 0 512 512;" xml:space="preserve">
<path style="fill:#FFFFFF;" d="M104.808,508c-17.944,0-32.544-14.592-32.544-32.536V36.544C72.264,18.6,86.864,4,104.808,4h302.376  c17.944,0,32.544,14.6,32.544,32.544v438.912c0,17.944-14.6,32.536-32.544,32.536H104.808V508z"/>
<path style="fill:#CCCCCC;" d="M407.192,8c15.736,0,28.544,12.808,28.544,28.544v438.912c0,15.736-12.808,28.544-28.544,28.544  H104.808c-15.736,0-28.544-12.808-28.544-28.544V36.544C76.264,20.808,89.072,8,104.808,8H407.192 M407.192,0H104.808  C84.712,0,68.264,16.448,68.264,36.544v438.912c0,20.096,16.448,36.544,36.544,36.544h302.384c20.096,0,36.544-16.448,36.544-36.544  V36.544C443.736,16.448,427.288,0,407.192,0L407.192,0z"/>
<g>
	<rect x="128" y="355.44" style="fill:#666666;" width="256" height="8"/>
	<rect x="128" y="390.928" style="fill:#666666;" width="256" height="8"/>
	<rect x="128" y="427.12" style="fill:#666666;" width="256" height="8"/>
</g>
<path d="M215.128,178.672c-0.488-10.496-1.088-23.176-0.968-34.168h-0.36c-2.656,9.896-6.032,20.888-9.656,31.152l-11.832,35.248  H180.84l-10.864-34.768c-3.136-10.384-6.032-21.496-8.208-31.632h-0.24c-0.36,10.624-0.848,23.544-1.448,34.648l-1.816,32.72h-13.88  l5.432-81.368h19.56L180,163.216c2.896,9.536,5.432,19.192,7.488,28.248h0.36c2.176-8.816,4.952-18.832,8.088-28.368l11.224-32.592  h19.32l4.712,81.368h-14.488L215.128,178.672z"/>
<path d="M246.76,172.64c0-7.728-0.24-14.008-0.488-19.56h13.04l0.728,9.056h0.24c4.352-6.64,11.232-10.384,20.168-10.384  c13.52,0,24.752,11.592,24.752,29.944c0,21.24-13.4,31.504-26.8,31.504c-7.368,0-13.52-3.144-16.544-7.84h-0.24v30.424h-14.848  V172.64H246.76z M261.608,187.248c0,1.448,0.12,2.776,0.488,4.104c1.448,6.04,6.768,10.384,13.04,10.384  c9.424,0,14.976-7.848,14.976-19.44c0-10.384-5.072-18.832-14.608-18.832c-6.168,0-11.832,4.472-13.288,10.992  c-0.36,1.2-0.608,2.528-0.608,3.744L261.608,187.248L261.608,187.248z"/>
<path d="M317.632,196.536c3.016,1.816,10.384,4.832,17.864,4.832c11.344,0,15.936-6.4,15.816-12.56  c0-9.288-8.688-13.272-17.744-13.272h-6.88v-10.864h6.64c6.88,0,15.568-3.144,15.568-10.984c0-5.312-3.984-9.784-12.552-9.784  c-6.4,0-12.8,2.776-16.056,4.944l-3.384-10.744c4.472-3.144,13.16-6.04,22.576-6.04c16.176,0,24.504,8.936,24.504,19.2  c0,8.2-4.832,14.968-14.496,18.344v0.24c9.536,1.696,17.264,8.936,17.264,19.56c0,13.28-11.104,23.784-30.536,23.784  c-9.536,0-17.752-2.656-21.976-5.432L317.632,196.536z"/>
<g>
</g>
<g>
</g>
<g>
</g>
<g>
</g>
<g>
</g>
<g>
</g>
<g>
</g>
<g>
</g>
<g>
</g>
<g>
</g>
<g>
</g>
<g>
</g>
<g>
</g>
<g>
</g>
<g>
</g>
</svg>
