<?xml version="1.0" encoding="iso-8859-1"?>
<!-- Generator: Adobe Illustrator 19.0.0, SVG Export Plug-In . SVG Version: 6.00 Build 0)  -->
<svg xmlns="http://www.w3.org/2000/svg" xmlns:xlink="http://www.w3.org/1999/xlink" version="1.1" id="Layer_1" x="0px" y="0px" viewBox="0 0 512 512" style="enable-background:new 0 0 512 512;" xml:space="preserve">
<path style="fill:#999999;" d="M256,0C114.4,0,0,114.4,0,256s114.4,256,256,256s256-114.4,256-256S397.6,0,256,0z"/>
<path style="fill:#FFFFFF;" d="M392.8,416H119.2c-12.8,0-23.2-10.4-23.2-23.2V119.2c0-12.8,10.4-23.2,23.2-23.2h274.4  c12.8,0,23.2,10.4,23.2,23.2v274.4C416,405.6,405.6,416,392.8,416z"/>
<circle style="fill:#303030;" cx="252" cy="256" r="115.2"/>
<circle cx="256" cy="256" r="128.8"/>
<circle cx="256" cy="256" r="115.2"/>
<path style="fill:#999999;" d="M256,372.8c-64.8,0-116.8-52.8-116.8-116.8c0-64.8,52.8-116.8,116.8-116.8s116.8,52,116.8,116.8  S320.8,372.8,256,372.8z M256,143.2c-62.4,0-112.8,50.4-112.8,112.8S193.6,368.8,256,368.8S368.8,318.4,368.8,256  S318.4,143.2,256,143.2z"/>
<circle style="fill:#E21B1B;" cx="256" cy="256" r="42.4"/>
<circle cx="121.6" cy="119.2" r="5.6"/>
<g>
	<circle style="fill:#999999;" cx="136.8" cy="119.2" r="5.6"/>
	<circle style="fill:#999999;" cx="152.8" cy="119.2" r="5.6"/>
</g>
<circle style="fill:#E21B1B;" cx="121.6" cy="372" r="5.6"/>
<circle style="fill:#999999;" cx="143.2" cy="372" r="5.6"/>
<rect x="116" y="385.6" width="45.6" height="5.6"/>
<g>
	<polygon style="fill:#999999;" points="315.2,325.6 305.6,319.2 361.6,233.6 361.6,129.6 373.6,129.6 373.6,236.8  "/>
	<polygon style="fill:#999999;" points="344,281.6 308.8,336 296.8,312.8 317.6,280  "/>
</g>
<g style="opacity:0.4;">
	<polygon style="fill:#FFFFFF;" points="304.8,328.8 308.8,336 373.6,236.8 373.6,129.6 367.2,129.6 367.2,233.6  "/>
</g>
<circle style="fill:#999999;" cx="367.2" cy="136" r="23.2"/>
<circle cx="367.2" cy="136" r="12.8"/>
<g>
</g>
<g>
</g>
<g>
</g>
<g>
</g>
<g>
</g>
<g>
</g>
<g>
</g>
<g>
</g>
<g>
</g>
<g>
</g>
<g>
</g>
<g>
</g>
<g>
</g>
<g>
</g>
<g>
</g>
</svg>
