<?xml version="1.0" encoding="iso-8859-1"?>
<!-- Generator: Adobe Illustrator 19.0.0, SVG Export Plug-In . SVG Version: 6.00 Build 0)  -->
<svg xmlns="http://www.w3.org/2000/svg" xmlns:xlink="http://www.w3.org/1999/xlink" version="1.1" id="Layer_1" x="0px" y="0px" viewBox="0 0 512 512" style="enable-background:new 0 0 512 512;" xml:space="preserve">
<path style="fill:#FFFFFF;" d="M256,508C117.048,508,4,394.952,4,256S117.048,4,256,4s252,113.048,252,252S394.96,508,256,508z"/>
<path style="fill:#CCCCCC;" d="M256,8c136.744,0,248,111.256,248,248S392.744,504,256,504S8,392.744,8,256S119.256,8,256,8 M256,0  C114.616,0,0,114.616,0,256s114.616,256,256,256s256-114.616,256-256S397.384,0,256,0L256,0z"/>
<rect x="244" y="296.48" width="24" height="155.504"/>
<rect x="179.928" y="204.168" style="fill:#E21B1B;" width="152.16" height="123.104"/>
<rect x="179.928" y="233.68" width="152.16" height="16"/>
<path style="fill:#CCCCCC;" d="M256,204.168L256,204.168c-27.12,0-49.312-22.192-49.312-49.312V109.32  c0-27.12,22.192-49.312,49.312-49.312l0,0c27.12,0,49.312,22.192,49.312,49.312v45.536C305.312,181.976,283.12,204.168,256,204.168z  "/>
<g>
</g>
<g>
</g>
<g>
</g>
<g>
</g>
<g>
</g>
<g>
</g>
<g>
</g>
<g>
</g>
<g>
</g>
<g>
</g>
<g>
</g>
<g>
</g>
<g>
</g>
<g>
</g>
<g>
</g>
</svg>
