<?xml version="1.0" encoding="iso-8859-1"?>
<!-- Generator: Adobe Illustrator 19.0.0, SVG Export Plug-In . SVG Version: 6.00 Build 0)  -->
<svg xmlns="http://www.w3.org/2000/svg" xmlns:xlink="http://www.w3.org/1999/xlink" version="1.1" id="Layer_1" x="0px" y="0px" viewBox="0 0 512 512" style="enable-background:new 0 0 512 512;" xml:space="preserve">
<circle style="fill:#E21B1B;" cx="256" cy="256" r="256"/>
<path style="fill:#666666;" d="M456,155.68v200c0,6.56-5.36,12-12,12H68c-6.64,0-12-5.44-12-12v-200c0-6.56,5.36-12,12-12h376  C450.64,143.68,456,149.04,456,155.68z"/>
<rect x="88" y="155.68" width="320" height="200"/>
<g>
	<path style="fill:#E8E8E8;" d="M76,231.84v48c0,2.24-1.84,4-4,4l0,0c-2.16,0-4-1.76-4-4v-48c0-2.16,1.76-4,4-4l0,0   C74.24,227.84,76,229.68,76,231.84z"/>
	<path style="fill:#E8E8E8;" d="M432,231.68v48c0,2.16-1.76,4-4,4l0,0c-2.24,0-4-1.84-4-4v-48c0-2.16,1.76-4,4-4l0,0   C430.24,227.68,432,229.44,432,231.68z"/>
</g>
<rect x="112" y="312.72" style="fill:#E21B1B;" width="272" height="6"/>
<g>
	<rect x="112" y="313.68" style="fill:#FFFFFF;" width="69.848" height="4"/>
	<circle style="fill:#FFFFFF;" cx="172" cy="315.68" r="16"/>
</g>
<circle style="fill:#E21B1B;" cx="172" cy="315.68" r="6.848"/>
<path style="fill:#FFFFFF;" d="M248.032,187.68c22.056,0,40,17.944,40,40s-17.944,40-40,40s-40-17.944-40-40  S225.976,187.68,248.032,187.68 M248.032,183.68c-24.32,0-44,19.68-44,44s19.68,44,44,44s44-19.68,44-44  C292.032,203.36,272.352,183.68,248.032,183.68L248.032,183.68z"/>
<polygon style="fill:#E21B1B;" points="237.44,207.68 270.72,226.88 237.44,246.08 "/>
<g>
</g>
<g>
</g>
<g>
</g>
<g>
</g>
<g>
</g>
<g>
</g>
<g>
</g>
<g>
</g>
<g>
</g>
<g>
</g>
<g>
</g>
<g>
</g>
<g>
</g>
<g>
</g>
<g>
</g>
</svg>
