<?xml version="1.0" encoding="iso-8859-1"?>
<!-- Generator: Adobe Illustrator 19.0.0, SVG Export Plug-In . SVG Version: 6.00 Build 0)  -->
<svg xmlns="http://www.w3.org/2000/svg" xmlns:xlink="http://www.w3.org/1999/xlink" version="1.1" id="Layer_1" x="0px" y="0px" viewBox="0 0 512 512" style="enable-background:new 0 0 512 512;" xml:space="preserve">
<path style="fill:#AAAAAA;" d="M380.216,512H131.784c-4.408,0-8.016-3.608-8.016-8.016V8.016c0-4.408,3.608-8.016,8.016-8.016  h248.432c4.408,0,8.016,3.608,8.016,8.016v495.976C388.232,508.392,384.624,512,380.216,512z"/>
<path style="fill:#FFFFFF;" d="M363.744,495.08H148.256c-6.608,0-12.024-5.408-12.024-12.024V28.936  c0-6.608,5.408-12.024,12.024-12.024h215.488c6.608,0,12.024,5.408,12.024,12.024v454.12  C375.76,489.672,370.352,495.08,363.744,495.08z"/>
<rect x="153.6" y="34.808" width="204.8" height="371.28"/>
<circle style="fill:#FFFFFF;" cx="249.68" cy="392.4" r="3.536"/>
<g style="opacity:0.25;">
	<circle style="fill:#FFFFFF;" cx="262.32" cy="392.4" r="3.536"/>
</g>
<g>
	<path style="fill:#FFFFFF;" d="M225.84,45.928h-0.032l-1.712,0.92l-0.256-1.008l2.144-1.16h1.136v9.84h-1.28V45.928z"/>
	<path style="fill:#FFFFFF;" d="M230.736,54.528v-0.816l1.056-1.024c2.512-2.384,3.648-3.656,3.656-5.144c0-1-0.48-1.92-1.944-1.92   c-0.896,0-1.632,0.448-2.096,0.824l-0.416-0.936c0.68-0.576,1.648-1,2.784-1c2.112,0,3.008,1.456,3.008,2.864   c0,1.816-1.312,3.28-3.384,5.28l-0.792,0.728v0.032h4.416v1.104L230.736,54.528L230.736,54.528z"/>
	<path style="fill:#FFFFFF;" d="M238.64,48.408c0-0.56,0.376-0.96,0.904-0.96s0.872,0.392,0.888,0.96   c0,0.528-0.344,0.936-0.904,0.936C238.992,49.344,238.64,48.944,238.64,48.408z M238.64,53.752c0-0.56,0.376-0.96,0.904-0.96   s0.872,0.392,0.888,0.96c0,0.528-0.344,0.936-0.904,0.936C238.992,54.688,238.64,54.288,238.64,53.752z"/>
	<path style="fill:#FFFFFF;" d="M248.208,49.504c0,3.344-1.24,5.184-3.416,5.184c-1.928,0-3.232-1.8-3.264-5.056   c0-3.304,1.424-5.128,3.424-5.128C247.032,44.512,248.208,46.368,248.208,49.504z M242.872,49.648c0,2.56,0.792,4.008,2,4.008   c1.368,0,2.008-1.584,2.008-4.104c0-2.416-0.616-4.008-2-4.008C243.72,45.544,242.872,46.976,242.872,49.648z"/>
	<path style="fill:#FFFFFF;" d="M256,49.504c0,3.344-1.24,5.184-3.416,5.184c-1.928,0-3.232-1.8-3.264-5.056   c0-3.304,1.424-5.128,3.424-5.128C254.824,44.512,256,46.368,256,49.504z M250.656,49.648c0,2.56,0.792,4.008,2,4.008   c1.368,0,2.008-1.584,2.008-4.104c0-2.416-0.616-4.008-2-4.008C251.512,45.544,250.656,46.976,250.656,49.648z"/>
	<path style="fill:#FFFFFF;" d="M260.944,44.44c0.632-0.104,1.472-0.2,2.528-0.2c1.304,0,2.264,0.304,2.864,0.856   c0.56,0.48,0.888,1.216,0.888,2.136s-0.272,1.648-0.784,2.176c-0.696,0.736-1.832,1.112-3.112,1.112   c-0.392,0-0.76-0.008-1.064-0.08v4.08h-1.32L260.944,44.44z M262.264,49.36c0.28,0.08,0.648,0.112,1.08,0.112   c1.592,0,2.56-0.768,2.56-2.184c0-1.344-0.944-1.992-2.408-1.992c-0.576,0-1.008,0.04-1.24,0.104L262.264,49.36L262.264,49.36z"/>
	<path style="fill:#FFFFFF;" d="M277.448,50.048c-0.072-1.424-0.168-3.136-0.16-4.408h-0.04c-0.344,1.2-0.768,2.472-1.288,3.872   l-1.8,4.952h-0.992l-1.656-4.856c-0.48-1.44-0.896-2.76-1.176-3.968h-0.032c-0.032,1.272-0.104,2.976-0.2,4.512l-0.264,4.376   h-1.264l0.72-10.2h1.68l1.736,4.928c0.424,1.264,0.768,2.376,1.032,3.44h0.04c0.264-1.032,0.624-2.144,1.072-3.44l1.824-4.928h1.68   l0.632,10.2h-1.28L277.448,50.048z"/>
	<rect x="326.968" y="43.544" style="fill:#FFFFFF;" width="19.88" height="9.96"/>
	<rect x="328.72" y="45.256" style="fill:#FFFFFF;" width="16.408" height="6.536"/>
	<rect x="346.88" y="46.568" style="fill:#FFFFFF;" width="1.952" height="3.92"/>
</g>
<circle style="fill:#AAAAAA;" cx="255.664" cy="450.48" r="30.224"/>
<path style="fill:#FFFFFF;" d="M255.672,464.288c-7.592,0-13.768-6.176-13.768-13.768s6.176-13.768,13.768-13.768  s13.768,6.176,13.768,13.768S263.264,464.288,255.672,464.288z M255.672,439.408c-6.128,0-11.104,4.976-11.104,11.104  s4.976,11.104,11.104,11.104c6.128,0,11.104-4.976,11.104-11.104S261.792,439.408,255.672,439.408z"/>
<path style="fill:#E21B1B;" d="M279.456,121.712v79.368c-4.24-2.896-9.736-4.656-15.76-4.656c-13.376,0-24.224,8.632-24.224,19.288  c0,10.648,10.848,19.288,24.224,19.288s24.224-8.632,24.224-19.288v-66.96l31.144,16.12v-23.68L279.456,121.712z"/>
<path style="fill:#FFFFFF;" d="M220.392,121.712V176.2c-2.912-1.992-6.68-3.2-10.816-3.2c-9.184,0-16.632,5.928-16.632,13.24  c0,7.312,7.448,13.24,16.632,13.24s16.632-5.928,16.632-13.24v-45.976l21.384,11.072V135.08L220.392,121.712z"/>
<g>
	<rect x="184" y="277.232" style="fill:#999999;" width="144" height="4"/>
	<rect x="184" y="301.608" style="fill:#999999;" width="144" height="4"/>
	<rect x="184" y="325.984" style="fill:#999999;" width="144" height="4"/>
</g>
<g>
</g>
<g>
</g>
<g>
</g>
<g>
</g>
<g>
</g>
<g>
</g>
<g>
</g>
<g>
</g>
<g>
</g>
<g>
</g>
<g>
</g>
<g>
</g>
<g>
</g>
<g>
</g>
<g>
</g>
</svg>
