<?xml version="1.0" encoding="iso-8859-1"?>
<!-- Generator: Adobe Illustrator 19.0.0, SVG Export Plug-In . SVG Version: 6.00 Build 0)  -->
<svg xmlns="http://www.w3.org/2000/svg" xmlns:xlink="http://www.w3.org/1999/xlink" version="1.1" id="Layer_1" x="0px" y="0px" viewBox="0 0 512 512" style="enable-background:new 0 0 512 512;" xml:space="preserve">
<path style="fill:#FFFFFF;" d="M104.808,508c-17.944,0-32.536-14.6-32.536-32.544V36.536C72.272,18.592,86.864,4,104.808,4h302.384  c17.944,0,32.544,14.592,32.544,32.536v438.912c0,17.944-14.6,32.544-32.544,32.544H104.808V508z"/>
<path style="fill:#CCCCCC;" d="M407.192,8c15.736,0,28.544,12.808,28.544,28.544v438.912c0,15.736-12.808,28.544-28.544,28.544  H104.808c-15.736,0-28.544-12.808-28.544-28.544V36.544C76.264,20.808,89.072,8,104.808,8H407.192 M407.192,0H104.808  C84.712,0,68.264,16.448,68.264,36.544v438.912c0,20.096,16.448,36.544,36.544,36.544h302.384c20.096,0,36.544-16.448,36.544-36.544  V36.544C443.736,16.448,427.288,0,407.192,0L407.192,0z"/>
<g>
	<rect x="128" y="355.44" style="fill:#666666;" width="256" height="8"/>
	<rect x="128" y="390.928" style="fill:#666666;" width="256" height="8"/>
	<rect x="128" y="427.12" style="fill:#666666;" width="256" height="8"/>
</g>
<path d="M344.64,257.696H327.8v-88.992c0-39.592-32.208-71.808-71.8-71.808s-71.808,32.208-71.808,71.808v88.992H167.36v-88.992  c0-48.88,39.768-88.648,88.648-88.648c48.872,0,88.64,39.768,88.64,88.648v88.992H344.64z"/>
<g>
	<path style="fill:#E21B1B;" d="M353.88,174.544v83.152c15.904-7.112,27-23.032,27-41.576S369.784,181.648,353.88,174.544z"/>
	<path style="fill:#E21B1B;" d="M158.12,174.544v83.152c-15.904-7.112-27-23.032-27-41.576S142.216,181.648,158.12,174.544z"/>
</g>
<g>
</g>
<g>
</g>
<g>
</g>
<g>
</g>
<g>
</g>
<g>
</g>
<g>
</g>
<g>
</g>
<g>
</g>
<g>
</g>
<g>
</g>
<g>
</g>
<g>
</g>
<g>
</g>
<g>
</g>
</svg>
