<?xml version="1.0" encoding="iso-8859-1"?>
<!-- Generator: Adobe Illustrator 19.0.0, SVG Export Plug-In . SVG Version: 6.00 Build 0)  -->
<svg xmlns="http://www.w3.org/2000/svg" xmlns:xlink="http://www.w3.org/1999/xlink" version="1.1" id="Layer_1" x="0px" y="0px" viewBox="0 0 512 512" style="enable-background:new 0 0 512 512;" xml:space="preserve">
<path style="fill:#FFFFFF;" d="M256,508C117.048,508,4,394.952,4,256S117.048,4,256,4s252,113.048,252,252S394.952,508,256,508z"/>
<path style="fill:#CCCCCC;" d="M256,8c136.744,0,248,111.256,248,248S392.744,504,256,504S8,392.744,8,256S119.256,8,256,8 M256,0  C114.616,0,0,114.616,0,256s114.616,256,256,256s256-114.616,256-256S397.384,0,256,0L256,0z"/>
<rect x="113.424" y="372.08" width="285.144" height="8"/>
<rect x="157.296" y="404.08" width="197.408" height="8"/>
<path d="M360.416,223.608H343.8V180.52c0-48.416-39.384-87.8-87.8-87.8s-87.8,39.384-87.8,87.8v43.08h-16.616v-43.08  c0-57.576,46.84-104.416,104.416-104.416s104.416,46.84,104.416,104.416V223.608z"/>
<path d="M342.272,205.736V315.36c26.24-4.496,46.224-27.288,46.224-54.808C388.488,233.032,368.512,210.232,342.272,205.736z"/>
<path d="M169.728,205.736V315.36c-26.24-4.496-46.224-27.288-46.224-54.808C123.512,233.032,143.488,210.232,169.728,205.736z"/>
<path style="fill:#E21B1B;" d="M181.992,205.736h-12.256V315.36h12.256c3.608,0,6.56-2.952,6.56-6.56v-96.496  C188.56,208.696,185.6,205.736,181.992,205.736z"/>
<g style="opacity:0.35;enable-background:new    ;">
	<rect x="169.76" y="235.888" style="fill:#FFFFFF;" width="18.824" height="49.328"/>
</g>
<path style="fill:#E21B1B;" d="M330.008,205.736c-3.608,0-6.56,2.952-6.56,6.56V308.8c0,3.608,2.952,6.56,6.56,6.56h12.256V205.736  H330.008z"/>
<g style="opacity:0.35;enable-background:new    ;">
	<rect x="323.44" y="235.888" style="fill:#FFFFFF;" width="18.824" height="49.328"/>
</g>
<g>
</g>
<g>
</g>
<g>
</g>
<g>
</g>
<g>
</g>
<g>
</g>
<g>
</g>
<g>
</g>
<g>
</g>
<g>
</g>
<g>
</g>
<g>
</g>
<g>
</g>
<g>
</g>
<g>
</g>
</svg>
