<?xml version="1.0" encoding="iso-8859-1"?>
<!-- Generator: Adobe Illustrator 19.0.0, SVG Export Plug-In . SVG Version: 6.00 Build 0)  -->
<svg xmlns="http://www.w3.org/2000/svg" xmlns:xlink="http://www.w3.org/1999/xlink" version="1.1" id="Layer_1" x="0px" y="0px" viewBox="0 0 512 512" style="enable-background:new 0 0 512 512;" xml:space="preserve">
<path d="M406.816,278.48h-24V154.384C382.816,84.456,325.928,27.56,256,27.56S129.176,84.448,129.176,154.384v124.088h-24V154.384  C105.176,71.216,172.832,3.56,256,3.56s150.824,67.656,150.824,150.824V278.48H406.816z"/>
<path d="M380.616,190.808v158.344c37.896-6.496,66.768-39.416,66.768-79.168C447.376,230.232,418.512,197.304,380.616,190.808z"/>
<path d="M131.384,190.808v158.344c-37.896-6.496-66.768-39.416-66.768-79.168C64.624,230.232,93.488,197.304,131.384,190.808z"/>
<path style="fill:#E21B1B;" d="M149.104,190.808H131.4v158.344h17.704c5.216,0,9.48-4.264,9.48-9.48V200.288  C158.584,195.08,154.32,190.808,149.104,190.808z"/>
<g style="opacity:0.35;enable-background:new    ;">
	<rect x="131.384" y="234.36" style="fill:#FFFFFF;" width="27.184" height="71.256"/>
</g>
<path style="fill:#E21B1B;" d="M362.896,190.808c-5.216,0-9.48,4.264-9.48,9.48v139.384c0,5.216,4.264,9.48,9.48,9.48H380.6V190.808  H362.896z"/>
<g style="opacity:0.35;enable-background:new    ;">
	<rect x="353.44" y="234.36" style="fill:#FFFFFF;" width="27.184" height="71.256"/>
</g>
<g>
	<rect x="116.616" y="414.4" style="fill:#848484;" width="278.768" height="12"/>
	<rect y="496.44" style="fill:#848484;" width="512" height="12"/>
</g>
<g>
</g>
<g>
</g>
<g>
</g>
<g>
</g>
<g>
</g>
<g>
</g>
<g>
</g>
<g>
</g>
<g>
</g>
<g>
</g>
<g>
</g>
<g>
</g>
<g>
</g>
<g>
</g>
<g>
</g>
</svg>
