<?xml version="1.0" encoding="iso-8859-1"?>
<!-- Generator: Adobe Illustrator 19.0.0, SVG Export Plug-In . SVG Version: 6.00 Build 0)  -->
<svg xmlns="http://www.w3.org/2000/svg" xmlns:xlink="http://www.w3.org/1999/xlink" version="1.1" id="Layer_1" x="0px" y="0px" viewBox="0 0 512 512" style="enable-background:new 0 0 512 512;" xml:space="preserve">
<path style="fill:#E0E0E0;" d="M256,0C114.608,0,0,114.608,0,256c0,141.376,114.608,256,256,256s256-114.624,256-256  C512,114.608,397.392,0,256,0z"/>
<path style="fill:#CCCCCC;" d="M504.624,317.008L431.632,244l-353.04,88.16l179.776,179.776  C377.68,510.856,477.44,428.184,504.624,317.008z"/>
<path style="fill:#FFFFFF;" d="M377.2,218.544h-5.696c-5.664-23.824-27.136-41.68-52.816-41.68c-6.24,0-12.56,1.376-17.792,3.12  c-12.56-35.648-46.576-61.248-86.688-61.248c-50.784,0-91.952,40.96-91.952,91.488c0,3.184,0.176,6.32,0.48,9.424  c-33.376,5.744-58.992,34.8-58.992,69.584c0,38.88,31.968,70.704,71.04,70.704h242.384c39.072,0,71.04-31.808,71.04-70.704  C448.24,250.368,416.272,218.544,377.2,218.544z"/>
<polygon style="fill:#E21B1B;" points="171.912,328.928 256,411.784 340.088,328.928 296,328.928 296,238.344 216,238.344   216,328.928 "/>
<g>
</g>
<g>
</g>
<g>
</g>
<g>
</g>
<g>
</g>
<g>
</g>
<g>
</g>
<g>
</g>
<g>
</g>
<g>
</g>
<g>
</g>
<g>
</g>
<g>
</g>
<g>
</g>
<g>
</g>
</svg>
