<?xml version="1.0" encoding="iso-8859-1"?>
<!-- Generator: Adobe Illustrator 19.0.0, SVG Export Plug-In . SVG Version: 6.00 Build 0)  -->
<svg xmlns="http://www.w3.org/2000/svg" xmlns:xlink="http://www.w3.org/1999/xlink" version="1.1" id="Layer_1" x="0px" y="0px" viewBox="0 0 512 512" style="enable-background:new 0 0 512 512;" xml:space="preserve">
<rect x="183.976" y="357.984" style="fill:#333333;" width="144.08" height="108.336"/>
<polygon points="183.976,376.72 269.688,376.72 183.976,434.624 "/>
<g>
	<path style="fill:#E0E0E0;" d="M369.52,487.28H142.496c-8.808,0-16-7.208-16-16l0,0c0-8.808,7.208-16,16-16h227.008   c8.808,0,16,7.208,16,16l0,0C385.52,480.088,378.312,487.28,369.52,487.28z"/>
	<path style="fill:#E0E0E0;" d="M480,376.72H32c-17.6,0-32-14.4-32-32v-288c0-17.6,14.4-32,32-32h448c17.6,0,32,14.4,32,32v288   C512,362.32,497.6,376.72,480,376.72z"/>
</g>
<rect x="21.968" y="46.656" style="fill:#FFFFFF;" width="468.08" height="308.128"/>
<g>
	<rect x="302.912" y="231.12" style="fill:#E21B1B;" width="44.664" height="15.536"/>
	<rect x="302.912" y="201.68" style="fill:#E21B1B;" width="44.664" height="15.536"/>
	<rect x="302.912" y="172.232" style="fill:#E21B1B;" width="44.664" height="15.536"/>
	<rect x="302.912" y="142.784" style="fill:#E21B1B;" width="44.664" height="15.536"/>
	<rect x="233.68" y="231.12" style="fill:#E21B1B;" width="44.664" height="15.536"/>
	<rect x="233.68" y="201.68" style="fill:#E21B1B;" width="44.664" height="15.536"/>
	<rect x="233.68" y="172.232" style="fill:#E21B1B;" width="44.664" height="15.536"/>
	<rect x="233.68" y="142.784" style="fill:#E21B1B;" width="44.664" height="15.536"/>
	<rect x="233.68" y="113.2" style="fill:#E21B1B;" width="44.664" height="15.536"/>
	<rect x="233.68" y="83.76" style="fill:#E21B1B;" width="44.664" height="15.536"/>
	<rect x="164.416" y="231.12" style="fill:#E21B1B;" width="44.664" height="15.536"/>
	<rect x="164.416" y="201.68" style="fill:#E21B1B;" width="44.664" height="15.536"/>
	<rect x="164.416" y="172.232" style="fill:#E21B1B;" width="44.664" height="15.536"/>
</g>
<g>
	<rect x="186.04" y="281.12" style="fill:#666666;" width="139.92" height="8"/>
	<rect x="128" y="317.328" style="fill:#666666;" width="256" height="8"/>
</g>
<g>
</g>
<g>
</g>
<g>
</g>
<g>
</g>
<g>
</g>
<g>
</g>
<g>
</g>
<g>
</g>
<g>
</g>
<g>
</g>
<g>
</g>
<g>
</g>
<g>
</g>
<g>
</g>
<g>
</g>
</svg>
