<?xml version="1.0" encoding="iso-8859-1"?>
<!-- Generator: Adobe Illustrator 19.0.0, SVG Export Plug-In . SVG Version: 6.00 Build 0)  -->
<svg xmlns="http://www.w3.org/2000/svg" xmlns:xlink="http://www.w3.org/1999/xlink" version="1.1" id="Layer_1" x="0px" y="0px" viewBox="0 0 512 512" style="enable-background:new 0 0 512 512;" xml:space="preserve">
<path style="fill:#FFFFFF;" d="M104.808,508c-17.944,0-32.536-14.6-32.536-32.544V36.544c0-17.944,14.592-32.536,32.536-32.536  h302.384c17.944,0,32.536,14.592,32.536,32.536v438.912c0,17.944-14.592,32.544-32.536,32.544H104.808z"/>
<path style="fill:#CCCCCC;" d="M407.192,8c15.736,0,28.544,12.808,28.544,28.544v438.912c0,15.736-12.808,28.544-28.544,28.544  H104.808c-15.736,0-28.544-12.808-28.544-28.544V36.544C76.264,20.808,89.072,8,104.808,8H407.192 M407.192,0H104.808  C84.712,0,68.264,16.448,68.264,36.544v438.912c0,20.096,16.448,36.544,36.544,36.544h302.384c20.096,0,36.544-16.448,36.544-36.544  V36.544C443.736,16.448,427.288,0,407.192,0L407.192,0z"/>
<g>
	<rect x="128" y="355.44" style="fill:#666666;" width="256" height="8"/>
	<rect x="128" y="390.936" style="fill:#666666;" width="256" height="8"/>
	<rect x="128" y="427.12" style="fill:#666666;" width="256" height="8"/>
</g>
<g>
	<rect x="311.976" y="253.184" style="fill:#E21B1B;" width="53.288" height="18.528"/>
	<rect x="311.976" y="218.08" style="fill:#E21B1B;" width="53.288" height="18.528"/>
	<rect x="311.976" y="182.928" style="fill:#E21B1B;" width="53.288" height="18.528"/>
	<rect x="311.976" y="147.8" style="fill:#E21B1B;" width="53.288" height="18.528"/>
	<rect x="229.352" y="253.184" style="fill:#E21B1B;" width="53.288" height="18.528"/>
	<rect x="229.352" y="218.08" style="fill:#E21B1B;" width="53.288" height="18.528"/>
	<rect x="229.352" y="182.928" style="fill:#E21B1B;" width="53.288" height="18.528"/>
	<rect x="229.352" y="147.8" style="fill:#E21B1B;" width="53.288" height="18.528"/>
	<rect x="229.352" y="112.48" style="fill:#E21B1B;" width="53.288" height="18.528"/>
	<rect x="229.352" y="77.376" style="fill:#E21B1B;" width="53.288" height="18.528"/>
	<rect x="146.736" y="253.184" style="fill:#E21B1B;" width="53.288" height="18.528"/>
	<rect x="146.736" y="218.08" style="fill:#E21B1B;" width="53.288" height="18.528"/>
	<rect x="146.736" y="182.928" style="fill:#E21B1B;" width="53.288" height="18.528"/>
</g>
<g>
</g>
<g>
</g>
<g>
</g>
<g>
</g>
<g>
</g>
<g>
</g>
<g>
</g>
<g>
</g>
<g>
</g>
<g>
</g>
<g>
</g>
<g>
</g>
<g>
</g>
<g>
</g>
<g>
</g>
</svg>
