<?xml version="1.0" encoding="iso-8859-1"?>
<!-- Generator: Adobe Illustrator 19.0.0, SVG Export Plug-In . SVG Version: 6.00 Build 0)  -->
<svg version="1.1" id="Capa_1" xmlns="http://www.w3.org/2000/svg" xmlns:xlink="http://www.w3.org/1999/xlink" x="0px" y="0px"
	 viewBox="0 0 480 480" style="enable-background:new 0 0 480 480;" xml:space="preserve">
<path style="fill:#455A64;" d="M464,80H16C7.168,80,0,87.168,0,96v32c0,8.832,7.168,16,16,16h448c8.832,0,16-7.168,16-16V96
	C480,87.168,472.832,80,464,80z"/>
<path style="fill:#FFD54F;" d="M144,16H80c-8.832,0-16,7.168-16,16v416c0,8.832,7.168,16,16,16h64c8.832,0,16-7.168,16-16V32
	C160,23.168,152.832,16,144,16z"/>
<path style="fill:#FFC107;" d="M272,16h-64c-8.832,0-16,7.168-16,16v320c0,8.832,7.168,16,16,16h64c8.832,0,16-7.168,16-16V32
	C288,23.168,280.832,16,272,16z"/>
<path style="fill:#FF8F00;" d="M400,16h-64c-8.832,0-16,7.168-16,16v224c0,8.832,7.168,16,16,16h64c8.832,0,16-7.168,16-16V32
	C416,23.168,408.832,16,400,16z"/>
<g>
</g>
<g>
</g>
<g>
</g>
<g>
</g>
<g>
</g>
<g>
</g>
<g>
</g>
<g>
</g>
<g>
</g>
<g>
</g>
<g>
</g>
<g>
</g>
<g>
</g>
<g>
</g>
<g>
</g>
</svg>
