<?xml version="1.0" encoding="iso-8859-1"?>
<!-- Generator: Adobe Illustrator 19.0.0, SVG Export Plug-In . SVG Version: 6.00 Build 0)  -->
<svg version="1.1" id="Capa_1" xmlns="http://www.w3.org/2000/svg" xmlns:xlink="http://www.w3.org/1999/xlink" x="0px" y="0px"
	 viewBox="0 0 512 512" style="enable-background:new 0 0 512 512;" xml:space="preserve">
<g>
	<path style="fill:#455A64;" d="M288,448h-16V320c0-8.8-7.2-16-16-16s-16,7.2-16,16v128h-16c-26.5,0-48,21.5-48,48v16h160v-16
		C336,469.5,314.5,448,288,448z"/>
	<path style="fill:#455A64;" d="M192,96c8.8,0,16,7.2,16,16s-7.2,16-16,16h-48v32h48c8.8,0,16,7.2,16,16s-7.2,16-16,16h-48v32h224
		v-32h-48c-8.8,0-16-7.2-16-16s7.2-16,16-16h48v-32h-48c-8.8,0-16-7.2-16-16s7.2-16,16-16h46.9C359.1,41.8,312.3,0,256,0
		S152.9,41.8,145.1,96H192z"/>
	<path style="fill:#455A64;" d="M145.1,256c7.8,54.2,54.5,96,110.9,96s103.1-41.8,110.9-96H145.1z"/>
</g>
<g>
</g>
<g>
</g>
<g>
</g>
<g>
</g>
<g>
</g>
<g>
</g>
<g>
</g>
<g>
</g>
<g>
</g>
<g>
</g>
<g>
</g>
<g>
</g>
<g>
</g>
<g>
</g>
<g>
</g>
</svg>
