<?xml version="1.0" encoding="iso-8859-1"?>
<!-- Generator: Adobe Illustrator 19.0.0, SVG Export Plug-In . SVG Version: 6.00 Build 0)  -->
<svg version="1.1" id="Capa_1" xmlns="http://www.w3.org/2000/svg" xmlns:xlink="http://www.w3.org/1999/xlink" x="0px" y="0px"
	 viewBox="0 0 512 512" style="enable-background:new 0 0 512 512;" xml:space="preserve">
<path style="fill:#009688;" d="M480,64H32C14.368,64,0,78.368,0,96v320c0,17.664,14.368,32,32,32h448c17.664,0,32-14.336,32-32V96
	C512,78.368,497.664,64,480,64z"/>
<circle style="fill:#FAFAFA;" cx="192" cy="256" r="128"/>
<path style="fill:#FF9800;" d="M336,384c-4.832,0-9.664-2.208-12.8-6.4c-5.28-7.072-3.84-17.088,3.232-22.4L384,312v-72
	c0-8.832,7.168-16,16-16s16,7.168,16,16v80c0,5.024-2.368,9.792-6.4,12.8l-64,48C342.72,382.976,339.328,384,336,384z"/>
<path style="fill:#455A64;" d="M432,256h-64c-8.832,0-16-7.168-16-16v-96c0-8.832,7.168-16,16-16h64c8.832,0,16,7.168,16,16v96
	C448,248.832,440.832,256,432,256z"/>
<g>
	<path style="fill:#CFD8DC;" d="M272,272c-8.832,0-16-7.168-16-16c0-35.296-28.704-64-64-64c-8.832,0-16-7.168-16-16s7.168-16,16-16
		c52.928,0,96,43.072,96,96C288,264.832,280.832,272,272,272z"/>
	<path style="fill:#CFD8DC;" d="M192,352c-52.928,0-96-43.072-96-96c0-8.832,7.168-16,16-16s16,7.168,16,16
		c0,35.296,28.704,64,64,64c8.832,0,16,7.168,16,16S200.832,352,192,352z"/>
</g>
<g>
</g>
<g>
</g>
<g>
</g>
<g>
</g>
<g>
</g>
<g>
</g>
<g>
</g>
<g>
</g>
<g>
</g>
<g>
</g>
<g>
</g>
<g>
</g>
<g>
</g>
<g>
</g>
<g>
</g>
</svg>
