<?xml version="1.0" encoding="iso-8859-1"?>
<!-- Generator: Adobe Illustrator 19.0.0, SVG Export Plug-In . SVG Version: 6.00 Build 0)  -->
<svg version="1.1" id="Capa_1" xmlns="http://www.w3.org/2000/svg" xmlns:xlink="http://www.w3.org/1999/xlink" x="0px" y="0px"
	 viewBox="0 0 512.008 512.008" style="enable-background:new 0 0 512.008 512.008;" xml:space="preserve">
<g>
	<path style="fill:#455A64;" d="M64,512.008c-35.296,0-64-28.704-64-64s28.704-64,64-64s64,28.704,64,64S99.296,512.008,64,512.008z
		 M64,416.008c-17.632,0-32,14.336-32,32s14.368,32,32,32s32-14.336,32-32S81.632,416.008,64,416.008z"/>
	<path style="fill:#455A64;" d="M97.92,430.088c-4.096,0-8.192-1.568-11.328-4.672c-6.24-6.24-6.24-16.384,0-22.624l92.48-92.512
		c6.24-6.24,16.384-6.24,22.624,0s6.24,16.384,0,22.624l-92.48,92.512C106.112,428.552,102.016,430.088,97.92,430.088z"/>
</g>
<path style="fill:#B0BEC5;" d="M269.728,370.184c-32.768,0-65.536-12.48-90.496-37.408c-49.92-49.92-49.92-131.136,0-181.024
	L326.272,4.68c6.24-6.24,16.384-6.24,22.624,0s6.24,16.384,0,22.624l-147.04,147.072c-37.44,37.44-37.44,98.336,0,135.776
	c37.408,37.376,98.336,37.44,135.776,0L484.704,163.08c6.24-6.24,16.384-6.24,22.624,0c6.24,6.24,6.24,16.384,0,22.624
	L360.256,332.776C335.296,357.736,302.496,370.184,269.728,370.184z"/>
<g>
</g>
<g>
</g>
<g>
</g>
<g>
</g>
<g>
</g>
<g>
</g>
<g>
</g>
<g>
</g>
<g>
</g>
<g>
</g>
<g>
</g>
<g>
</g>
<g>
</g>
<g>
</g>
<g>
</g>
</svg>
