<?xml version="1.0" encoding="iso-8859-1"?>
<!-- Generator: Adobe Illustrator 19.0.0, SVG Export Plug-In . SVG Version: 6.00 Build 0)  -->
<svg version="1.1" id="Capa_1" xmlns="http://www.w3.org/2000/svg" xmlns:xlink="http://www.w3.org/1999/xlink" x="0px" y="0px"
	 viewBox="0 0 512 512" style="enable-background:new 0 0 512 512;" xml:space="preserve">
<path style="fill:#FFA000;" d="M199.008,276.26c0-30.528,24.736-55.264,55.264-55.264c5.504,0,10.688,1.056,15.712,2.528
	l15.296-22.56c3.328-4.896,3.648-11.264,0.896-16.48c-2.816-5.216-8.256-8.48-14.176-8.48h-77.504
	c-66.24-21.568-124.96-64.576-165.472-121.312c-4.032-5.664-11.264-8.032-17.92-5.952C4.512,50.884,0,57.06,0,64.004v384
	c0,6.976,4.512,13.12,11.136,15.264c1.6,0.48,3.232,0.736,4.864,0.736c5.088,0,9.984-2.4,13.024-6.72
	c39.168-54.912,95.68-97.152,159.2-118.976c3.296-1.12,6.112-3.264,8.064-6.144l14.784-21.792
	C203.648,300.932,199.008,289.188,199.008,276.26z"/>
<path style="fill:#FFC107;" d="M512,176.004H336h-32h-32c-61.76,0-112,50.24-112,112s50.24,112,112,112h64
	c61.76,0,112-50.24,112-112c0-17.248-4.256-33.408-11.232-48H512V176.004z M384,288.004c0,26.464-21.536,48-48,48h-64
	c-26.464,0-48-21.536-48-48s21.536-48,48-48h32h32C362.464,240.004,384,261.54,384,288.004z"/>
<path style="fill:#FFA000;" d="M436.768,240.004H336c20.832,0,38.432,13.408,45.056,32h65.024
	C444.352,260.804,441.504,249.924,436.768,240.004z"/>
<g>
</g>
<g>
</g>
<g>
</g>
<g>
</g>
<g>
</g>
<g>
</g>
<g>
</g>
<g>
</g>
<g>
</g>
<g>
</g>
<g>
</g>
<g>
</g>
<g>
</g>
<g>
</g>
<g>
</g>
</svg>
