<?xml version="1.0" encoding="iso-8859-1"?>
<!-- Generator: Adobe Illustrator 19.0.0, SVG Export Plug-In . SVG Version: 6.00 Build 0)  -->
<svg version="1.1" id="Capa_1" xmlns="http://www.w3.org/2000/svg" xmlns:xlink="http://www.w3.org/1999/xlink" x="0px" y="0px"
	 viewBox="0 0 511.964 511.964" style="enable-background:new 0 0 511.964 511.964;" xml:space="preserve">
<path style="fill:#607D8B;" d="M265.584,316.782c-4.864,0-9.664-2.208-12.8-6.4c-5.312-7.072-3.872-17.088,3.2-22.4l230.4-172.8
	c7.04-5.312,17.056-3.904,22.4,3.2c5.28,7.072,3.84,17.088-3.232,22.4l-230.368,172.8
	C272.304,315.726,268.944,316.782,265.584,316.782z"/>
<path style="fill:#FFC107;" d="M431.984,431.982h-416c-5.888,0-11.264-3.232-14.048-8.384s-2.56-11.424,0.64-16.352l208-320
	c2.944-4.544,8-7.264,13.408-7.264l0,0c5.408,0,10.464,2.752,13.408,7.296l68.128,104.96c4.8,7.424,2.72,17.344-4.672,22.144
	c-7.328,4.768-17.312,2.72-22.144-4.736l-54.72-84.288L45.456,399.982h357.088l-53.76-82.816
	c-4.768-7.424-2.688-17.344,4.704-22.144c7.36-4.768,17.28-2.72,22.144,4.704l69.76,107.52c3.2,4.928,3.392,11.232,0.64,16.352
	C443.248,428.75,437.872,431.982,431.984,431.982z"/>
<path style="fill:#455A64;" d="M239.984,367.982c-26.464,0-48-21.536-48-48s21.536-48,48-48s48,21.536,48,48
	S266.448,367.982,239.984,367.982z"/>
<g>
</g>
<g>
</g>
<g>
</g>
<g>
</g>
<g>
</g>
<g>
</g>
<g>
</g>
<g>
</g>
<g>
</g>
<g>
</g>
<g>
</g>
<g>
</g>
<g>
</g>
<g>
</g>
<g>
</g>
</svg>
