<?xml version="1.0" encoding="iso-8859-1"?>
<!-- Generator: Adobe Illustrator 19.0.0, SVG Export Plug-In . SVG Version: 6.00 Build 0)  -->
<svg version="1.1" id="Capa_1" xmlns="http://www.w3.org/2000/svg" xmlns:xlink="http://www.w3.org/1999/xlink" x="0px" y="0px"
	 viewBox="0 0 512 512" style="enable-background:new 0 0 512 512;" xml:space="preserve">
<path style="fill:#FFC107;" d="M512,256c0-39.424-28.704-72.064-66.304-78.624c21.728-31.296,18.912-74.624-8.8-102.304
	c-27.648-27.68-70.944-30.496-102.304-8.8C328.064,28.736,295.424,0,256,0s-72.064,28.736-78.624,66.304
	c-31.296-21.76-74.592-18.912-102.272,8.8c-27.712,27.648-30.528,70.944-8.8,102.272C28.736,183.936,0,216.576,0,256
	s28.704,72.064,66.272,78.624c-21.696,31.328-18.88,74.624,8.8,102.304c15.52,15.52,35.968,23.296,56.448,23.296
	c16.064,0,32.064-4.96,45.824-14.496C183.936,483.296,216.576,512,256,512s72.064-28.704,78.624-66.272
	c13.76,9.536,29.76,14.464,45.824,14.464c20.512,0,40.928-7.744,56.48-23.296c27.648-27.648,30.496-70.944,8.8-102.304
	C483.296,328.064,512,295.424,512,256z M338.784,405.536c-5.056-5.024-12.896-6.432-19.264-2.688
	c-0.736,0.448-1.184,1.12-1.824,1.664c-0.96,0.064-1.92-0.096-2.88,0.16c-7.232,1.824-11.776,8.352-11.776,15.488h-94.048
	c0-7.136-4.544-13.664-11.808-15.488c-0.992-0.256-1.92-0.096-2.912-0.16c-0.64-0.512-1.088-1.216-1.824-1.632
	c-6.4-3.744-14.208-2.304-19.264,2.688l-66.752-66.752c5.024-5.056,6.464-12.864,2.656-19.296c-0.416-0.704-1.088-1.152-1.6-1.792
	c-0.064-0.96,0.096-1.92-0.128-2.912c-1.824-7.264-8.352-11.84-15.52-11.808V208.96c7.136-0.064,13.696-4.512,15.52-11.776
	c0.256-1.056,0.096-2.08,0.16-3.136c0.48-0.576,1.184-0.864,1.6-1.568c3.808-6.432,2.4-14.24-2.656-19.296l66.752-66.752
	c5.056,5.088,12.896,6.496,19.296,2.688c0.704-0.416,1.152-1.088,1.792-1.632c0.96-0.064,1.92,0.096,2.912-0.128
	c7.232-1.824,11.744-8.384,11.776-15.52h94.048c0,7.136,4.544,13.696,11.776,15.52c1.088,0.256,2.144,0.352,3.2,0.384
	c0.512,0.448,0.896,0.992,1.472,1.376c6.304,3.776,14.176,2.368,19.264-2.656l66.752,66.752c-5.024,5.056-6.464,12.832-2.688,19.264
	c0.416,0.704,1.152,0.992,1.664,1.6c0.064,1.024-0.128,2.048,0.16,3.104c1.792,7.264,8.288,11.776,15.488,11.776v94.048
	c-7.2-0.064-13.696,4.544-15.488,11.808c-0.256,0.96-0.064,1.92-0.128,2.88c-0.544,0.64-1.216,1.088-1.664,1.824
	c-3.808,6.4-2.368,14.208,2.688,19.264L338.784,405.536z"/>
<path style="fill:#455A64;" d="M256,128c70.592,0,128,57.408,128,128s-57.408,128-128,128s-128-57.408-128-128S185.408,128,256,128
	 M256,64C149.952,64,64,149.952,64,256s85.952,192,192,192s192-85.952,192-192S362.048,64,256,64L256,64z"/>
<g>
</g>
<g>
</g>
<g>
</g>
<g>
</g>
<g>
</g>
<g>
</g>
<g>
</g>
<g>
</g>
<g>
</g>
<g>
</g>
<g>
</g>
<g>
</g>
<g>
</g>
<g>
</g>
<g>
</g>
</svg>
