<?xml version="1.0" encoding="iso-8859-1"?>
<!-- Generator: Adobe Illustrator 19.0.0, SVG Export Plug-In . SVG Version: 6.00 Build 0)  -->
<svg version="1.1" id="Capa_1" xmlns="http://www.w3.org/2000/svg" xmlns:xlink="http://www.w3.org/1999/xlink" x="0px" y="0px"
	 viewBox="0 0 511.984 511.984" style="enable-background:new 0 0 511.984 511.984;" xml:space="preserve">
<path style="fill:#455A64;" d="M9.384,502.6L9.384,502.6c-12.512-12.512-12.512-32.768,0-45.248l181.024-181.024l45.248,45.248
	L54.632,502.6C42.152,515.112,21.864,515.112,9.384,502.6z"/>
<path style="fill:#F44336;" d="M484.68,253.576L258.408,27.304c-6.24-6.24-16.384-6.24-22.624,0l-158.4,158.4
	c-6.24,6.24-6.24,16.384,0,22.624L303.656,434.6c3.136,3.136,7.232,4.672,11.328,4.672s8.192-1.568,11.328-4.672l158.4-158.368
	c3.008-3.008,4.672-7.072,4.672-11.328S487.688,256.584,484.68,253.576z"/>
<g>
	<path style="fill:#D32F2F;" d="M496.008,303.496c-4.096,0-8.192-1.568-11.328-4.672L213.16,27.304c-6.24-6.24-6.24-16.384,0-22.624
		s16.384-6.24,22.624,0l271.52,271.52c6.24,6.24,6.24,16.384,0,22.624C504.2,301.96,500.104,303.496,496.008,303.496z"/>
	<path style="fill:#D32F2F;" d="M337.608,461.896c-4.096,0-8.192-1.568-11.328-4.672L54.76,185.672c-6.24-6.24-6.24-16.384,0-22.624
		s16.384-6.24,22.624,0l271.52,271.52c6.24,6.24,6.24,16.384,0,22.624C345.8,460.328,341.704,461.896,337.608,461.896z"/>
</g>
<g>
	<path style="fill:#FAFAFA;" d="M179.24,213c-4.096,0-8.192-1.568-11.328-4.672c-6.24-6.24-6.24-16.384,0-22.624l67.872-67.872
		c6.24-6.24,16.384-6.24,22.624,0s6.24,16.384,0,22.624l-67.872,67.84C187.4,211.432,183.336,213,179.24,213z"/>
	<path style="fill:#FAFAFA;" d="M224.488,258.248c-4.096,0-8.192-1.568-11.328-4.672c-6.24-6.24-6.24-16.384,0-22.624l67.872-67.904
		c6.24-6.24,16.384-6.24,22.624,0s6.24,16.384,0,22.624l-67.872,67.904C232.68,256.68,228.584,258.248,224.488,258.248z"/>
	<path style="fill:#FAFAFA;" d="M269.736,303.496c-4.096,0-8.192-1.568-11.328-4.672c-6.24-6.24-6.24-16.384,0-22.624l67.872-67.904
		c6.24-6.24,16.384-6.24,22.624,0s6.24,16.384,0,22.624l-67.872,67.904C277.928,301.96,273.832,303.496,269.736,303.496z"/>
	<path style="fill:#FAFAFA;" d="M314.984,348.744c-4.096,0-8.192-1.568-11.328-4.672c-6.24-6.24-6.24-16.384,0-22.624l67.904-67.872
		c6.24-6.24,16.384-6.24,22.624,0c6.24,6.24,6.24,16.384,0,22.624l-67.904,67.872C323.176,347.208,319.08,348.744,314.984,348.744z"
		/>
</g>
<g>
</g>
<g>
</g>
<g>
</g>
<g>
</g>
<g>
</g>
<g>
</g>
<g>
</g>
<g>
</g>
<g>
</g>
<g>
</g>
<g>
</g>
<g>
</g>
<g>
</g>
<g>
</g>
<g>
</g>
</svg>
