<?xml version="1.0" encoding="iso-8859-1"?>
<!-- Generator: Adobe Illustrator 19.0.0, SVG Export Plug-In . SVG Version: 6.00 Build 0)  -->
<svg version="1.1" id="Capa_1" xmlns="http://www.w3.org/2000/svg" xmlns:xlink="http://www.w3.org/1999/xlink" x="0px" y="0px"
	 viewBox="0 0 512 512" style="enable-background:new 0 0 512 512;" xml:space="preserve">
<g>
	<path style="fill:#FFA000;" d="M144.418,224h-48c0-8.832-7.168-16-16-16s-16,7.168-16,16v32c0,8.832,7.168,16,16,16s16-7.168,16-16
		h48c8.832,0,16-7.168,16-16S153.25,224,144.418,224z"/>
	<path style="fill:#FFA000;" d="M144.418,192h-48c-8.832,0-16-7.168-16-16s7.168-16,16-16h48c8.832,0,16,7.168,16,16
		S153.25,192,144.418,192z"/>
</g>
<path style="fill:#FFC107;" d="M443.746,324.672l-160-160c-4.928-4.896-12.448-6.048-18.592-2.944
	c-29.984,15.232-48.256,58.944-55.616,133.312l-49.152-240.8C159.458,24.16,134.722,0,104.418,0c-30.88,0-56,25.12-56,56v24
	c0,8.832,7.168,16,16,16s16-7.168,16-16V56c0-13.248,10.752-24,24-24c13.152,0,23.872,10.624,24,23.744c0,0.192,0,0.352,0,0.544
	v349.888c0,58.368,47.456,105.824,105.824,105.824c37.44,0,72.32-19.904,91.04-51.936c36.864-63.04,76.032-101.536,110.24-108.384
	c5.824-1.152,10.464-5.408,12.192-11.072C449.442,335.008,447.906,328.832,443.746,324.672z"/>
<g>
	<path style="fill:#FFA000;" d="M80.418,96h-32c-8.832,0-16-7.168-16-16s7.168-16,16-16h32c8.832,0,16,7.168,16,16
		S89.25,96,80.418,96z"/>
	<path style="fill:#FFA000;" d="M465.538,301.248l-158.368-158.4c-18.656-18.72-49.184-18.752-67.904,0
		c-18.72,18.72-18.72,49.152,0,67.872l158.4,158.4c9.056,9.056,21.12,14.048,33.952,14.048s24.864-4.992,33.952-14.048
		C484.258,350.4,484.258,319.968,465.538,301.248z"/>
</g>
<g>
</g>
<g>
</g>
<g>
</g>
<g>
</g>
<g>
</g>
<g>
</g>
<g>
</g>
<g>
</g>
<g>
</g>
<g>
</g>
<g>
</g>
<g>
</g>
<g>
</g>
<g>
</g>
<g>
</g>
</svg>
