<?xml version="1.0" encoding="iso-8859-1"?>
<!-- Generator: Adobe Illustrator 19.0.0, SVG Export Plug-In . SVG Version: 6.00 Build 0)  -->
<svg version="1.1" id="Capa_1" xmlns="http://www.w3.org/2000/svg" xmlns:xlink="http://www.w3.org/1999/xlink" x="0px" y="0px"
	 viewBox="0 0 512 512" style="enable-background:new 0 0 512 512;" xml:space="preserve">
<path style="fill:#607D8B;" d="M271.994,448v16c0,26.56-21.44,48-48,48s-48-21.44-48-48v-16H271.994z"/>
<path style="fill:#ECEFF1;" d="M271.994,112v336h-96V220.48c-42.88,9.92-90.88-1.6-122.56-29.76c-3.52-2.88-5.44-7.36-5.44-11.84
	V45.12c0-4.48,1.92-8.96,5.44-11.84c24-21.44,56.32-33.28,90.56-33.28C214.714,0,271.994,50.24,271.994,112z"/>
<g>
	<path style="fill:#90A4AE;" d="M159.994,64c-8.832,0-16,7.168-16,16s7.168,16,16,16s16,7.168,16,16s7.168,16,16,16s16-7.168,16-16
		C207.994,85.536,186.458,64,159.994,64z"/>
	<path style="fill:#90A4AE;" d="M96.634,96h-0.32c-8.832,0-15.84,7.168-15.84,16s7.328,16,16.16,16s16-7.168,16-16
		S105.466,96,96.634,96z"/>
</g>
<path style="fill:#4CAF50;" d="M430.202,349.6c19.52-6.112,33.792-24.096,33.792-45.6c0-26.464-21.536-48-48-48h-32
	c-8.832,0-16,7.168-16,16v128c0,8.832,7.168,16,16,16s16-7.168,16-16v-37.312l35.2,46.912c3.168,4.192,7.968,6.4,12.8,6.4
	c3.328,0,6.72-1.024,9.6-3.2c7.072-5.312,8.512-15.328,3.232-22.4L430.202,349.6z M399.994,288h16c8.8,0,16,7.2,16,16s-7.2,16-16,16
	h-16V288z"/>
<g>
</g>
<g>
</g>
<g>
</g>
<g>
</g>
<g>
</g>
<g>
</g>
<g>
</g>
<g>
</g>
<g>
</g>
<g>
</g>
<g>
</g>
<g>
</g>
<g>
</g>
<g>
</g>
<g>
</g>
</svg>
