<?xml version="1.0" encoding="iso-8859-1"?>
<!-- Generator: Adobe Illustrator 19.0.0, SVG Export Plug-In . SVG Version: 6.00 Build 0)  -->
<svg version="1.1" id="Capa_1" xmlns="http://www.w3.org/2000/svg" xmlns:xlink="http://www.w3.org/1999/xlink" x="0px" y="0px"
	 viewBox="0 0 480 480" style="enable-background:new 0 0 480 480;" xml:space="preserve">
<path style="fill:#ECEFF1;" d="M448,48H32C14.368,48,0,62.368,0,80v320c0,17.664,14.368,32,32,32h416c17.664,0,32-14.336,32-32V80
	C480,62.368,465.664,48,448,48z"/>
<g>
	<path style="fill:#455A64;" d="M64,48v208c0,8.832,7.168,16,16,16h16v160h32V272h16c8.832,0,16-7.168,16-16V48H64z"/>
	<path style="fill:#455A64;" d="M192,48v208c0,8.832,7.168,16,16,16h16v160h32V272h16c8.832,0,16-7.168,16-16V48H192z"/>
	<path style="fill:#455A64;" d="M320,48v208c0,8.832,7.168,16,16,16h16v160h32V272h16c8.832,0,16-7.168,16-16V48H320z"/>
</g>
<g>
</g>
<g>
</g>
<g>
</g>
<g>
</g>
<g>
</g>
<g>
</g>
<g>
</g>
<g>
</g>
<g>
</g>
<g>
</g>
<g>
</g>
<g>
</g>
<g>
</g>
<g>
</g>
<g>
</g>
</svg>
