<?xml version="1.0" encoding="iso-8859-1"?>
<!-- Generator: Adobe Illustrator 19.0.0, SVG Export Plug-In . SVG Version: 6.00 Build 0)  -->
<svg version="1.1" id="Capa_1" xmlns="http://www.w3.org/2000/svg" xmlns:xlink="http://www.w3.org/1999/xlink" x="0px" y="0px"
	 viewBox="0 0 512.01 512.01" style="enable-background:new 0 0 512.01 512.01;" xml:space="preserve">
<path style="fill:#FFC107;" d="M403.557,128.362c-58.656-17.632-214.176-64.384-245.6-120.224
	c-3.584-6.304-10.944-9.504-18.016-7.584c-7.04,1.824-11.936,8.192-11.936,15.456v256c0,7.264,4.896,13.632,11.936,15.456
	c1.376,0.384,2.72,0.544,4.064,0.544c5.664,0,11.04-3.04,13.952-8.128c31.008-55.04,182.464-101.216,243.84-119.68
	c43.264,0.96,78.208,36.32,78.208,79.808c0,44.096-35.872,80-80,80h-32c-8.832,0-16,7.168-16,16s7.168,16,16,16h32
	c61.76,0,112-50.24,112-112C512.005,179.466,463.621,130.282,403.557,128.362z"/>
<g>
	<path style="fill:#009688;" d="M400.005,384.01h-352c-8.832,0-16,7.168-16,16v96c0,8.832,7.168,16,16,16h352
		c8.832,0,16-7.168,16-16v-96C416.005,391.178,408.837,384.01,400.005,384.01z"/>
	<path style="fill:#009688;" d="M368.005,320.01h-288c-8.832,0-16,7.168-16,16v64c0,8.832,7.168,16,16,16h288
		c8.832,0,16-7.168,16-16v-64C384.005,327.178,376.837,320.01,368.005,320.01z"/>
</g>
<g>
	<path style="fill:#00796B;" d="M432.005,416.01h-416c-8.832,0-16-7.168-16-16s7.168-16,16-16h416c8.832,0,16,7.168,16,16
		S440.837,416.01,432.005,416.01z"/>
	<path style="fill:#00796B;" d="M432.005,512.01h-416c-8.832,0-16-7.168-16-16s7.168-16,16-16h416c8.832,0,16,7.168,16,16
		S440.837,512.01,432.005,512.01z"/>
</g>
<g>
</g>
<g>
</g>
<g>
</g>
<g>
</g>
<g>
</g>
<g>
</g>
<g>
</g>
<g>
</g>
<g>
</g>
<g>
</g>
<g>
</g>
<g>
</g>
<g>
</g>
<g>
</g>
<g>
</g>
</svg>
