<?xml version="1.0" encoding="iso-8859-1"?>
<!-- Generator: Adobe Illustrator 19.0.0, SVG Export Plug-In . SVG Version: 6.00 Build 0)  -->
<svg version="1.1" id="Capa_1" xmlns="http://www.w3.org/2000/svg" xmlns:xlink="http://www.w3.org/1999/xlink" x="0px" y="0px"
	 viewBox="0 0 448.046 448.046" style="enable-background:new 0 0 448.046 448.046;" xml:space="preserve">
<g>
	<path style="fill:#455A64;" d="M352.039,284.174V16.046c0-6.144-3.52-11.744-9.056-14.432c-5.6-2.72-12.128-1.952-16.928,1.92
		L184.583,116.718L352.039,284.174z"/>
	<path style="fill:#455A64;" d="M128.039,128.046h-32c-17.664,0-32,14.336-32,32v128c0,17.664,14.336,32,32,32h74.368
		l155.616,124.512c2.912,2.304,6.464,3.488,10.016,3.488c2.336,0,4.704-0.544,6.944-1.6c5.536-2.656,9.056-8.256,9.056-14.4v-80
		L128.039,128.046z"/>
</g>
<path style="fill:#FFC107;" d="M432.039,448.046c-4.096,0-8.192-1.568-11.328-4.672l-416-416c-6.24-6.24-6.24-16.384,0-22.624
	s16.384-6.24,22.624,0l416,416c6.24,6.24,6.24,16.384,0,22.624C440.231,446.478,436.135,448.046,432.039,448.046z"/>
<g>
</g>
<g>
</g>
<g>
</g>
<g>
</g>
<g>
</g>
<g>
</g>
<g>
</g>
<g>
</g>
<g>
</g>
<g>
</g>
<g>
</g>
<g>
</g>
<g>
</g>
<g>
</g>
<g>
</g>
</svg>
