<?xml version="1.0" encoding="iso-8859-1"?>
<!-- Generator: Adobe Illustrator 19.0.0, SVG Export Plug-In . SVG Version: 6.00 Build 0)  -->
<svg version="1.1" id="Capa_1" xmlns="http://www.w3.org/2000/svg" xmlns:xlink="http://www.w3.org/1999/xlink" x="0px" y="0px"
	 viewBox="0 0 512 512" style="enable-background:new 0 0 512 512;" xml:space="preserve">
<path style="fill:#455A64;" d="M288.058,0h-256c-17.632,0-32,14.368-32,32v448c0,17.664,14.368,32,32,32h256
	c17.664,0,32-14.336,32-32V32C320.058,14.368,305.722,0,288.058,0z M288.058,64v352h-256V64H288.058z"/>
<rect x="32.058" y="64" style="fill:#FAFAFA;" width="256" height="352"/>
<g>
	<path style="fill:#FFC107;" d="M437.082,74.976c-6.24-6.24-16.384-6.24-22.624,0s-6.24,16.384,0,22.624
		c87.328,87.328,87.328,229.44,0,316.8c-6.24,6.24-6.24,16.384,0,22.624c3.136,3.136,7.232,4.672,11.328,4.672
		s8.192-1.568,11.328-4.672C536.89,337.184,536.89,174.784,437.082,74.976z"/>
	<path style="fill:#FFC107;" d="M391.802,120.224c-6.24-6.24-16.384-6.24-22.624,0s-6.24,16.384,0,22.624
		c30.208,30.24,46.88,70.432,46.88,113.152s-16.672,82.912-46.88,113.12c-6.24,6.24-6.24,16.384,0,22.624
		c3.136,3.136,7.232,4.672,11.328,4.672s8.192-1.568,11.328-4.672c36.256-36.256,56.224-84.448,56.224-135.744
		S428.09,156.512,391.802,120.224z"/>
	<path style="fill:#FFC107;" d="M253.178,218.784C227.802,144.864,178.234,144,176.058,144l0,0c-8.832,0-16,7.168-16,16v129.952
		c-5.024-1.184-10.368-1.952-16-1.952c-26.496,0-48,14.336-48,32s21.504,32,48,32s48-14.336,48-32V182.656
		c9.664,6.656,21.728,19.968,30.88,46.56c2.848,8.352,12,12.8,20.32,9.92C251.61,236.256,256.058,227.168,253.178,218.784z"/>
</g>
<g>
</g>
<g>
</g>
<g>
</g>
<g>
</g>
<g>
</g>
<g>
</g>
<g>
</g>
<g>
</g>
<g>
</g>
<g>
</g>
<g>
</g>
<g>
</g>
<g>
</g>
<g>
</g>
<g>
</g>
</svg>
