<?xml version="1.0" encoding="iso-8859-1"?>
<!-- Generator: Adobe Illustrator 19.0.0, SVG Export Plug-In . SVG Version: 6.00 Build 0)  -->
<svg version="1.1" id="Capa_1" xmlns="http://www.w3.org/2000/svg" xmlns:xlink="http://www.w3.org/1999/xlink" x="0px" y="0px"
	 viewBox="0 0 512 512" style="enable-background:new 0 0 512 512;" xml:space="preserve">
<path style="fill:#455A64;" d="M346.016,483.456L272,424.32V336c0-8.832-7.168-16-16-16s-16,7.168-16,16v88.288l-74.016,59.2
	c-6.88,5.536-8,15.584-2.496,22.496c3.168,3.968,7.84,6.016,12.512,6.016c3.488,0,7.04-1.152,9.984-3.488L256,452.48l69.984,55.968
	c2.976,2.336,6.496,3.488,10.016,3.488c4.672,0,9.344-2.048,12.512-6.016C354.016,499.072,352.896,488.992,346.016,483.456z"/>
<path style="fill:#607D8B;" d="M480,352H32c-17.632,0-32-14.336-32-32V32C0,14.368,14.368,0,32,0h448c17.664,0,32,14.368,32,32v288
	C512,337.664,497.664,352,480,352z M480,320v16V320L480,320z"/>
<path style="fill:#FAFAFA;" d="M438.624,49.44C379.68,22.656,310.752,27.296,256,60.896C201.248,27.264,132.224,22.688,73.376,49.44
	C67.68,52.032,64,57.728,64,64v240c0,8.832,7.168,16,16,16h352c8.832,0,16-7.168,16-16V64C448,57.728,444.352,52.032,438.624,49.44z
	"/>
<g>
	<path style="fill:#90A4AE;" d="M208,160h-64c-8.832,0-16-7.168-16-16s7.168-16,16-16h64c8.832,0,16,7.168,16,16
		S216.832,160,208,160z"/>
	<path style="fill:#90A4AE;" d="M208,224h-64c-8.832,0-16-7.168-16-16s7.168-16,16-16h64c8.832,0,16,7.168,16,16
		S216.832,224,208,224z"/>
</g>
<path style="fill:#ECEFF1;" d="M432,320c8.832,0,16-7.168,16-16V64c0-6.272-3.648-11.968-9.376-14.56
	C379.68,22.656,310.752,27.296,256,60.896V320H432z"/>
<g>
	<path style="fill:#90A4AE;" d="M336,224h-32c-8.832,0-16-7.168-16-16s7.168-16,16-16h32c8.832,0,16,7.168,16,16
		S344.832,224,336,224z"/>
	<path style="fill:#90A4AE;" d="M368,160h-64c-8.832,0-16-7.168-16-16s7.168-16,16-16h64c8.832,0,16,7.168,16,16
		S376.832,160,368,160z"/>
</g>
<g>
</g>
<g>
</g>
<g>
</g>
<g>
</g>
<g>
</g>
<g>
</g>
<g>
</g>
<g>
</g>
<g>
</g>
<g>
</g>
<g>
</g>
<g>
</g>
<g>
</g>
<g>
</g>
<g>
</g>
</svg>
