<?xml version="1.0" encoding="iso-8859-1"?>
<!-- Generator: Adobe Illustrator 19.0.0, SVG Export Plug-In . SVG Version: 6.00 Build 0)  -->
<svg version="1.1" id="Capa_1" xmlns="http://www.w3.org/2000/svg" xmlns:xlink="http://www.w3.org/1999/xlink" x="0px" y="0px"
	 viewBox="0 0 480 480" style="enable-background:new 0 0 480 480;" xml:space="preserve">
<path style="fill:#2196F3;" d="M448,16H32C14.368,16,0,30.336,0,48v384c0,17.664,14.368,32,32,32h416c17.664,0,32-14.336,32-32V48
	C480,30.336,465.664,16,448,16z"/>
<g>
	<rect x="64" y="368" style="fill:#FAFAFA;" width="64" height="32"/>
	<rect x="160" y="368" style="fill:#FAFAFA;" width="64" height="32"/>
	<rect x="256" y="368" style="fill:#FAFAFA;" width="64" height="32"/>
	<rect x="352" y="368" style="fill:#FAFAFA;" width="64" height="32"/>
	<rect x="64" y="304" style="fill:#FAFAFA;" width="64" height="32"/>
	<rect x="160" y="304" style="fill:#FAFAFA;" width="64" height="32"/>
	<rect x="256" y="304" style="fill:#FAFAFA;" width="64" height="32"/>
	<rect x="352" y="304" style="fill:#FAFAFA;" width="64" height="32"/>
	<rect x="160" y="240" style="fill:#FAFAFA;" width="64" height="32"/>
	<rect x="256" y="240" style="fill:#FAFAFA;" width="64" height="32"/>
	<rect x="352" y="240" style="fill:#FAFAFA;" width="64" height="32"/>
	<rect x="160" y="176" style="fill:#FAFAFA;" width="64" height="32"/>
	<rect x="352" y="176" style="fill:#FAFAFA;" width="64" height="32"/>
	<rect x="160" y="112" style="fill:#FAFAFA;" width="64" height="32"/>
</g>
<g>
</g>
<g>
</g>
<g>
</g>
<g>
</g>
<g>
</g>
<g>
</g>
<g>
</g>
<g>
</g>
<g>
</g>
<g>
</g>
<g>
</g>
<g>
</g>
<g>
</g>
<g>
</g>
<g>
</g>
</svg>
