<?xml version="1.0" encoding="iso-8859-1"?>
<!-- Generator: Adobe Illustrator 19.0.0, SVG Export Plug-In . SVG Version: 6.00 Build 0)  -->
<svg version="1.1" id="Capa_1" xmlns="http://www.w3.org/2000/svg" xmlns:xlink="http://www.w3.org/1999/xlink" x="0px" y="0px"
	 viewBox="0 0 512 512" style="enable-background:new 0 0 512 512;" xml:space="preserve">
<path style="fill:#7B1FA2;" d="M16,96h96c8.832,0,16,7.168,16,16v288c0,8.832-7.168,16-16,16H16c-8.832,0-16-7.168-16-16V112
	C0,103.168,7.168,96,16,96z"/>
<path style="fill:#BA68C8;" d="M400,96h96c8.832,0,16,7.168,16,16v288c0,8.832-7.168,16-16,16h-96c-8.832,0-16-7.168-16-16V112
	C384,103.168,391.168,96,400,96z"/>
<path style="fill:#9C27B0;" d="M112,32h288c8.832,0,16,7.168,16,16v416c0,8.832-7.168,16-16,16H112c-8.832,0-16-7.168-16-16V48
	C96,39.168,103.168,32,112,32z"/>
<path style="fill:#FFC107;" d="M274.976,128.288c-4.672-0.928-9.536,0.352-13.184,3.392S256,139.232,256,144v150.464
	c-9.408-4-20.192-6.464-32-6.464c-35.904,0-64,21.088-64,48s28.096,48,64,48s64-21.088,64-48V165.952
	c14.496,6.464,32,18.656,32,40.032c0,8.832,7.168,16,16,16s16-7.168,16-16C352,155.968,301.632,133.28,274.976,128.288z"/>
<g>
</g>
<g>
</g>
<g>
</g>
<g>
</g>
<g>
</g>
<g>
</g>
<g>
</g>
<g>
</g>
<g>
</g>
<g>
</g>
<g>
</g>
<g>
</g>
<g>
</g>
<g>
</g>
<g>
</g>
</svg>
