<?xml version="1.0" encoding="iso-8859-1"?>
<!-- Generator: Adobe Illustrator 19.0.0, SVG Export Plug-In . SVG Version: 6.00 Build 0)  -->
<svg version="1.1" id="Capa_1" xmlns="http://www.w3.org/2000/svg" xmlns:xlink="http://www.w3.org/1999/xlink" x="0px" y="0px"
	 viewBox="0 0 512 512" style="enable-background:new 0 0 512 512;" xml:space="preserve">
<circle style="fill:#CFD8DC;" cx="320" cy="256" r="192"/>
<circle style="fill:#FAFAFA;" cx="320" cy="256" r="48"/>
<path style="fill:#2196F3;" d="M288,32H32C14.368,32,0,46.368,0,64v384c0,17.664,14.368,32,32,32h256c17.664,0,32-14.336,32-32V64
	C320,46.368,305.664,32,288,32z"/>
<path style="fill:#FAFAFA;" d="M178.976,128.288c-4.672-0.928-9.504,0.352-13.184,3.392C162.144,134.72,160,139.232,160,144v150.464
	c-9.408-4-20.192-6.464-32-6.464c-35.904,0-64,21.088-64,48s28.096,48,64,48s64-21.088,64-48V165.952
	c14.496,6.464,32,18.656,32,40.032c0,8.832,7.168,16,16,16s16-7.136,16-15.968C256,155.968,205.6,133.28,178.976,128.288z"/>
<g>
</g>
<g>
</g>
<g>
</g>
<g>
</g>
<g>
</g>
<g>
</g>
<g>
</g>
<g>
</g>
<g>
</g>
<g>
</g>
<g>
</g>
<g>
</g>
<g>
</g>
<g>
</g>
<g>
</g>
</svg>
