<?xml version="1.0" encoding="iso-8859-1"?>
<!-- Generator: Adobe Illustrator 19.0.0, SVG Export Plug-In . SVG Version: 6.00 Build 0)  -->
<svg version="1.1" id="Capa_1" xmlns="http://www.w3.org/2000/svg" xmlns:xlink="http://www.w3.org/1999/xlink" x="0px" y="0px"
	 viewBox="0 0 512 512" style="enable-background:new 0 0 512 512;" xml:space="preserve">
<g>
	<path style="fill:#455A64;" d="M295.996,480h-48V301.76c0-8.832-7.168-16-16-16s-16,7.136-16,16V480h-48c-8.832,0-16,7.168-16,16
		s7.168,16,16,16h128c8.832,0,16-7.168,16-16S304.828,480,295.996,480z"/>
	<path style="fill:#455A64;" d="M329.244,226.048l-84.48-98.24c-3.04-3.584-6.752-5.632-12.288-5.568
		c-4.704,0.032-9.184,2.176-12.16,5.824l-176.64,213.76c-5.28,6.336-4.8,15.648,1.024,21.504l48,48
		C95.804,414.4,99.9,416,103.996,416c3.424,0,6.848-1.088,9.728-3.328l213.152-163.52c3.456-2.656,5.728-6.656,6.144-11.04
		C333.5,233.76,332.124,229.376,329.244,226.048z"/>
</g>
<circle style="fill:#ECEFF1;" cx="343.996" cy="128" r="128"/>
<path style="fill:#90A4AE;" d="M265.916,27.296c-8.48,6.592-16.032,14.144-22.624,22.624l178.784,178.784
	c8.48-6.592,16.032-14.144,22.624-22.624L265.916,27.296z"/>
<g>
</g>
<g>
</g>
<g>
</g>
<g>
</g>
<g>
</g>
<g>
</g>
<g>
</g>
<g>
</g>
<g>
</g>
<g>
</g>
<g>
</g>
<g>
</g>
<g>
</g>
<g>
</g>
<g>
</g>
</svg>
