<?xml version="1.0" encoding="iso-8859-1"?>
<!-- Generator: Adobe Illustrator 19.0.0, SVG Export Plug-In . SVG Version: 6.00 Build 0)  -->
<svg version="1.1" id="Capa_1" xmlns="http://www.w3.org/2000/svg" xmlns:xlink="http://www.w3.org/1999/xlink" x="0px" y="0px"
	 viewBox="0 0 512 512" style="enable-background:new 0 0 512 512;" xml:space="preserve">
<path style="fill:#455A64;" d="M256,480H128c-8.832,0-16-7.168-16-16V348.8c0-8.832,7.168-16,16-16s16,7.168,16,16V448h96v-48
	c0-8.832,7.168-16,16-16s16,7.168,16,16v64C272,472.832,264.832,480,256,480z"/>
<path style="fill:#ECEFF1;" d="M424.96,34.752c-4.416-2.976-10.016-3.616-14.912-1.6l-320,128C84,163.584,80,169.44,80,176v160
	c0,6.528,4,12.448,10.048,14.848l320,128c1.92,0.768,3.936,1.152,5.952,1.152c3.168,0,6.272-0.928,8.96-2.752
	c4.416-2.976,7.04-7.936,7.04-13.248V48C432,42.688,429.376,37.728,424.96,34.752z"/>
<g>
	<path style="fill:#F44336;" d="M480,0h-64c-8.832,0-16,7.168-16,16v480c0,8.832,7.168,16,16,16h64c8.832,0,16-7.168,16-16V16
		C496,7.168,488.832,0,480,0z"/>
	<path style="fill:#F44336;" d="M96,160H32c-8.832,0-16,7.168-16,16v160c0,8.832,7.168,16,16,16h64c8.832,0,16-7.168,16-16V176
		C112,167.168,104.832,160,96,160z"/>
</g>
<g>
</g>
<g>
</g>
<g>
</g>
<g>
</g>
<g>
</g>
<g>
</g>
<g>
</g>
<g>
</g>
<g>
</g>
<g>
</g>
<g>
</g>
<g>
</g>
<g>
</g>
<g>
</g>
<g>
</g>
</svg>
