<?xml version="1.0" encoding="iso-8859-1"?>
<!-- Generator: Adobe Illustrator 19.0.0, SVG Export Plug-In . SVG Version: 6.00 Build 0)  -->
<svg version="1.1" id="Capa_1" xmlns="http://www.w3.org/2000/svg" xmlns:xlink="http://www.w3.org/1999/xlink" x="0px" y="0px"
	 viewBox="0 0 512 512" style="enable-background:new 0 0 512 512;" xml:space="preserve">
<path style="fill:#455A64;" d="M352,512L352,512c-17.664,0-32-14.336-32-32V192h64v288C384,497.664,369.664,512,352,512z"/>
<path style="fill:#FFC107;" d="M448,112l-32-32l-32,32l-32-32l-32,32l-32-32l-32,32c0-61.76,42.88-112,96-112S448,50.24,448,112z"/>
<path style="fill:#F44336;" d="M448,112c0,61.76-42.88,112-96,112s-96-50.24-96-112l32-32l32,32l32-32l32,32l32-32L448,112z"/>
<path style="fill:#455A64;" d="M160,0L160,0c-17.664,0-32,14.336-32,32v288h64V32C192,14.336,177.664,0,160,0z"/>
<path style="fill:#F44336;" d="M256,400l-32,32l-32-32l-32,32l-32-32l-32,32l-32-32c0,61.76,42.88,112,96,112S256,461.76,256,400z"
	/>
<path style="fill:#FFC107;" d="M256,400c0-61.76-42.88-112-96-112s-96,50.24-96,112l32,32l32-32l32,32l32-32l32,32L256,400z"/>
<g>
</g>
<g>
</g>
<g>
</g>
<g>
</g>
<g>
</g>
<g>
</g>
<g>
</g>
<g>
</g>
<g>
</g>
<g>
</g>
<g>
</g>
<g>
</g>
<g>
</g>
<g>
</g>
<g>
</g>
</svg>
