<?xml version="1.0" encoding="iso-8859-1"?>
<!-- Generator: Adobe Illustrator 19.0.0, SVG Export Plug-In . SVG Version: 6.00 Build 0)  -->
<svg version="1.1" id="Capa_1" xmlns="http://www.w3.org/2000/svg" xmlns:xlink="http://www.w3.org/1999/xlink" x="0px" y="0px"
	 viewBox="0 0 512 512" style="enable-background:new 0 0 512 512;" xml:space="preserve">
<path style="fill:#607D8B;" d="M240,448v16c0,26.56,21.44,48,48,48s48-21.44,48-48v-16H240z"/>
<path style="fill:#ECEFF1;" d="M240,112v336h96V220.48c42.88,9.92,90.88-1.6,122.56-29.76c3.52-2.88,5.44-7.36,5.44-11.84V45.12
	c0-4.48-1.92-8.96-5.44-11.84C434.56,11.84,402.24,0,368,0C297.28,0,240,50.24,240,112z"/>
<g>
	<path style="fill:#90A4AE;" d="M352,64c8.832,0,16,7.168,16,16s-7.168,16-16,16s-16,7.168-16,16s-7.168,16-16,16s-16-7.168-16-16
		C304,85.536,325.536,64,352,64z"/>
	<path style="fill:#90A4AE;" d="M415.36,96h0.32c8.832,0,15.84,7.168,15.84,16s-7.328,16-16.16,16s-16-7.168-16-16
		S406.528,96,415.36,96z"/>
</g>
<path style="fill:#4CAF50;" d="M128,416H64c-8.832,0-16-7.168-16-16V272c0-8.832,7.168-16,16-16s16,7.168,16,16v112h48
	c8.832,0,16,7.168,16,16S136.832,416,128,416z"/>
<g>
</g>
<g>
</g>
<g>
</g>
<g>
</g>
<g>
</g>
<g>
</g>
<g>
</g>
<g>
</g>
<g>
</g>
<g>
</g>
<g>
</g>
<g>
</g>
<g>
</g>
<g>
</g>
<g>
</g>
</svg>
