<?xml version="1.0" encoding="iso-8859-1"?>
<!-- Generator: Adobe Illustrator 19.0.0, SVG Export Plug-In . SVG Version: 6.00 Build 0)  -->
<svg version="1.1" id="Capa_1" xmlns="http://www.w3.org/2000/svg" xmlns:xlink="http://www.w3.org/1999/xlink" x="0px" y="0px"
	 viewBox="0 0 512 512" style="enable-background:new 0 0 512 512;" xml:space="preserve">
<path style="fill:#90A4AE;" d="M480,304h-64v-48c0-88.224-71.776-160-160-160S96,167.776,96,256v48H32v-48
	C32,132.48,132.48,32,256,32c123.488,0,224,100.48,224,224V304z"/>
<g>
	<path style="fill:#455A64;" d="M96,288H32c-17.632,0-32,14.336-32,32v128c0,17.664,14.368,32,32,32h64c17.632,0,32-14.336,32-32
		V320C128,302.336,113.632,288,96,288z"/>
	<path style="fill:#455A64;" d="M480,288h-64c-17.664,0-32,14.336-32,32v128c0,17.664,14.336,32,32,32h64c17.664,0,32-14.336,32-32
		V320C512,302.336,497.664,288,480,288z"/>
</g>
<g>
</g>
<g>
</g>
<g>
</g>
<g>
</g>
<g>
</g>
<g>
</g>
<g>
</g>
<g>
</g>
<g>
</g>
<g>
</g>
<g>
</g>
<g>
</g>
<g>
</g>
<g>
</g>
<g>
</g>
</svg>
