<?xml version="1.0" encoding="iso-8859-1"?>
<!-- Generator: Adobe Illustrator 19.0.0, SVG Export Plug-In . SVG Version: 6.00 Build 0)  -->
<svg version="1.1" id="Capa_1" xmlns="http://www.w3.org/2000/svg" xmlns:xlink="http://www.w3.org/1999/xlink" x="0px" y="0px"
	 viewBox="0 0 511.976 511.976" style="enable-background:new 0 0 511.976 511.976;" xml:space="preserve">
<path style="fill:#FFC107;" d="M346.24,215.624c-0.608-0.96-1.312-1.856-2.112-2.656l-45.12-45.12
	c-0.832-0.768-1.696-1.504-2.624-2.112c-47.616-30.72-100.096-30.752-130.656-0.224c-15.2,14.944-23.072,35.872-22.88,59.552
	c-43.04-8.832-83.36,1.28-110.912,28.832C11.328,274.344,0,303.176,0,335.048c0,43.232,19.904,87.84,54.592,122.304
	c34.528,34.72,79.104,54.624,122.304,54.624h0.032c31.872,0,60.672-11.328,81.088-31.872c27.584-27.584,37.76-67.84,28.864-110.944
	c22.784,0.672,44.608-7.648,59.424-22.848C376.96,315.688,376.928,263.176,346.24,215.624z"/>
<circle style="fill:#FAFAFA;" cx="192" cy="319.976" r="48"/>
<g>
	<path style="fill:#455A64;" d="M128,431.976c-4.096,0-8.192-1.568-11.328-4.672l-32-32c-6.24-6.24-6.24-16.384,0-22.624
		s16.384-6.24,22.624,0l32,32c6.24,6.24,6.24,16.384,0,22.624C136.192,430.408,132.096,431.976,128,431.976z"/>
	<path style="fill:#455A64;" d="M439.424,117.8l-45.248-45.248c-6.24-6.24-6.24-16.384,0-22.624L439.424,4.68
		c6.24-6.24,16.384-6.24,22.624,0l45.248,45.248c6.24,6.24,6.24,16.384,0,22.624L462.048,117.8
		C455.808,124.04,445.664,124.04,439.424,117.8z"/>
	<path style="fill:#455A64;" d="M294.304,240.296l-22.624-22.624c-6.24-6.24-6.24-16.384,0-22.624L418.752,47.976L464,93.224
		L316.928,240.296C310.688,246.568,300.544,246.568,294.304,240.296z"/>
</g>
<g>
</g>
<g>
</g>
<g>
</g>
<g>
</g>
<g>
</g>
<g>
</g>
<g>
</g>
<g>
</g>
<g>
</g>
<g>
</g>
<g>
</g>
<g>
</g>
<g>
</g>
<g>
</g>
<g>
</g>
</svg>
