<?xml version="1.0" encoding="iso-8859-1"?>
<!-- Generator: Adobe Illustrator 19.0.0, SVG Export Plug-In . SVG Version: 6.00 Build 0)  -->
<svg version="1.1" id="Capa_1" xmlns="http://www.w3.org/2000/svg" xmlns:xlink="http://www.w3.org/1999/xlink" x="0px" y="0px"
	 viewBox="0 0 512 512" style="enable-background:new 0 0 512 512;" xml:space="preserve">
<path style="fill:#00796B;" d="M479.68,96.32V160h-448V96.32c0-35.2,28.8-64,64-64h320C450.88,32.32,479.68,61.12,479.68,96.32z"/>
<path style="fill:#009688;" d="M479.68,160v256.32c0,35.2-28.8,64-64,64h-320c-35.2,0-64-28.8-64-64V160H479.68z"/>
<g>
	<path style="fill:#455A64;" d="M112,0C50.24,0,0,50.24,0,112c0,8.832,7.168,16,16,16h96c8.832,0,16-7.168,16-16V16
		C128,7.168,120.832,0,112,0z"/>
	<path style="fill:#455A64;" d="M112,384H16c-8.832,0-16,7.168-16,16c0,61.76,50.24,112,112,112c8.832,0,16-7.168,16-16v-96
		C128,391.168,120.832,384,112,384z"/>
	<path style="fill:#455A64;" d="M496,384h-96c-8.832,0-16,7.168-16,16v96c0,8.832,7.168,16,16,16c61.76,0,112-50.24,112-112
		C512,391.168,504.832,384,496,384z"/>
	<path style="fill:#455A64;" d="M400,128h96c8.832,0,16-7.168,16-16C512,50.24,461.76,0,400,0c-8.832,0-16,7.168-16,16v96
		C384,120.832,391.168,128,400,128z"/>
</g>
<circle style="fill:#B0BEC5;" cx="256" cy="320" r="112"/>
<path style="fill:#455A64;" d="M256,448c-70.592,0-128-57.408-128-128s57.408-128,128-128s128,57.408,128,128S326.592,448,256,448z
	 M256,224c-52.928,0-96,43.072-96,96s43.072,96,96,96s96-43.072,96-96S308.928,224,256,224z"/>
<g>
	<path style="fill:#FAFAFA;" d="M192.64,96h-0.32c-8.832,0-15.84,7.168-15.84,16s7.328,16,16.16,16s16-7.168,16-16
		S201.472,96,192.64,96z"/>
	<path style="fill:#FAFAFA;" d="M256.64,96h-0.32c-8.832,0-15.84,7.168-15.84,16s7.328,16,16.16,16c8.832,0,16-7.168,16-16
		S265.472,96,256.64,96z"/>
	<path style="fill:#FAFAFA;" d="M320.64,96h-0.32c-8.864,0-15.84,7.168-15.84,16s7.328,16,16.16,16s16-7.168,16-16
		S329.472,96,320.64,96z"/>
</g>
<g>
</g>
<g>
</g>
<g>
</g>
<g>
</g>
<g>
</g>
<g>
</g>
<g>
</g>
<g>
</g>
<g>
</g>
<g>
</g>
<g>
</g>
<g>
</g>
<g>
</g>
<g>
</g>
<g>
</g>
</svg>
