<?xml version="1.0" encoding="iso-8859-1"?>
<!-- Generator: Adobe Illustrator 19.0.0, SVG Export Plug-In . SVG Version: 6.00 Build 0)  -->
<svg version="1.1" id="Capa_1" xmlns="http://www.w3.org/2000/svg" xmlns:xlink="http://www.w3.org/1999/xlink" x="0px" y="0px"
	 viewBox="0 0 511.995 511.995" style="enable-background:new 0 0 511.995 511.995;" xml:space="preserve">
<path style="fill:#2196F3;" d="M409.587,278.77l-83.552-50.592l-43.136-41.888l-60.448-94.752c-3.488-5.472-9.952-8.32-16.384-7.136
	c-6.4,1.184-11.424,6.144-12.768,12.512l-21.728,105.088L9.235,277.97c-5.888,2.752-9.536,8.832-9.216,15.36
	c0.352,6.496,4.64,12.16,10.816,14.24l144.256,49.312l49.312,144.288c2.112,6.144,7.744,10.432,14.272,10.784
	c0.288,0.032,0.576,0.032,0.864,0.032c6.176,0,11.84-3.552,14.496-9.216l76.448-163.328l95.872-31.776
	c5.952-1.984,10.144-7.2,10.88-13.408C417.907,288.05,414.931,282.002,409.587,278.77z"/>
<path style="fill:#FAFAFA;" d="M224.019,335.986c-4.096,0-8.192-1.568-11.328-4.672l-32-32c-6.24-6.24-6.24-16.384,0-22.624
	s16.384-6.24,22.624,0l32,32c6.24,6.24,6.24,16.384,0,22.624C232.211,334.418,228.115,335.986,224.019,335.986z"/>
<g>
	<path style="fill:#455A64;" d="M439.443,117.81l-45.248-45.248c-6.24-6.24-6.24-16.384,0-22.624L439.443,4.69
		c6.24-6.24,16.384-6.24,22.624,0l45.248,45.248c6.24,6.24,6.24,16.384,0,22.624l-45.248,45.248
		C455.827,124.05,445.683,124.05,439.443,117.81z"/>
	<path style="fill:#455A64;" d="M294.323,240.306l-22.624-22.624c-6.24-6.24-6.24-16.384,0-22.624L418.771,47.986l45.248,45.248
		L316.947,240.306C310.707,246.578,300.563,246.578,294.323,240.306z"/>
</g>
<g>
</g>
<g>
</g>
<g>
</g>
<g>
</g>
<g>
</g>
<g>
</g>
<g>
</g>
<g>
</g>
<g>
</g>
<g>
</g>
<g>
</g>
<g>
</g>
<g>
</g>
<g>
</g>
<g>
</g>
</svg>
