<?xml version="1.0" encoding="iso-8859-1"?>
<!-- Generator: Adobe Illustrator 19.0.0, SVG Export Plug-In . SVG Version: 6.00 Build 0)  -->
<svg version="1.1" id="Capa_1" xmlns="http://www.w3.org/2000/svg" xmlns:xlink="http://www.w3.org/1999/xlink" x="0px" y="0px"
	 viewBox="0 0 512 512" style="enable-background:new 0 0 512 512;" xml:space="preserve">
<path style="fill:#455A64;" d="M112,512c-8.832,0-16-7.168-16-16V304c0-8.832,7.168-16,16-16s16,7.168,16,16v192
	C128,504.832,120.832,512,112,512z"/>
<path style="fill:#90A4AE;" d="M272,32h-96C96.608,32,32,96.608,32,176v128c0,8.832,7.168,16,16,16h128c8.832,0,16-7.168,16-16v-96
	c0-8.832,7.168-16,16-16h64c8.832,0,16-7.168,16-16V48C288,39.168,280.832,32,272,32z"/>
<path style="fill:#ECEFF1;" d="M368,0h-96c-8.832,0-16,7.168-16,16v192c0,8.832,7.168,16,16,16h96c61.76,0,112-50.24,112-112
	S429.76,0,368,0z"/>
<g>
</g>
<g>
</g>
<g>
</g>
<g>
</g>
<g>
</g>
<g>
</g>
<g>
</g>
<g>
</g>
<g>
</g>
<g>
</g>
<g>
</g>
<g>
</g>
<g>
</g>
<g>
</g>
<g>
</g>
</svg>
