<?xml version="1.0" encoding="iso-8859-1"?>
<!-- Generator: Adobe Illustrator 19.0.0, SVG Export Plug-In . SVG Version: 6.00 Build 0)  -->
<svg version="1.1" id="Capa_1" xmlns="http://www.w3.org/2000/svg" xmlns:xlink="http://www.w3.org/1999/xlink" x="0px" y="0px"
	 viewBox="0 0 512.048 512.048" style="enable-background:new 0 0 512.048 512.048;" xml:space="preserve">
<path style="fill:#FFA000;" d="M498.904,435.598L106.68,82.318c4.832-18.048-2.72-41.696-20.928-59.904
	C61.528-1.778,27.736-7.218,10.264,10.254C-7.208,27.758-1.768,61.518,22.424,85.742c18.432,18.432,42.4,25.888,60.544,20.704
	l352.64,392.48c17.472,17.472,45.824,17.472,63.328,0C516.44,481.454,516.408,453.07,498.904,435.598z"/>
<path style="fill:#FFC107;" d="M13.144,435.598l392.224-353.28c-4.832-18.048,2.752-41.696,20.96-59.904
	c24.192-24.192,57.984-29.632,75.456-12.16s12.032,51.264-12.16,75.456c-18.432,18.432-42.4,25.888-60.544,20.704L76.44,498.894
	c-17.472,17.472-45.824,17.472-63.328,0S-4.36,453.07,13.144,435.598z"/>
<g>
</g>
<g>
</g>
<g>
</g>
<g>
</g>
<g>
</g>
<g>
</g>
<g>
</g>
<g>
</g>
<g>
</g>
<g>
</g>
<g>
</g>
<g>
</g>
<g>
</g>
<g>
</g>
<g>
</g>
</svg>
