<?xml version="1.0" encoding="iso-8859-1"?>
<!-- Generator: Adobe Illustrator 19.0.0, SVG Export Plug-In . SVG Version: 6.00 Build 0)  -->
<svg version="1.1" id="Capa_1" xmlns="http://www.w3.org/2000/svg" xmlns:xlink="http://www.w3.org/1999/xlink" x="0px" y="0px"
	 viewBox="0 0 512.029 512.029" style="enable-background:new 0 0 512.029 512.029;" xml:space="preserve">
<path style="fill:#F44336;" d="M464.008,256.018h-416c-8.832,0-16,7.168-16,16v224c0,8.832,7.168,16,16,16h416
	c8.832,0,16-7.168,16-16v-224C480.008,263.186,472.84,256.018,464.008,256.018z"/>
<g>
	<path style="fill:#607D8B;" d="M363.208,111.698c-5.408,0-10.72-2.752-13.728-7.776c-4.576-7.584-2.08-17.408,5.504-21.952
		l132.8-79.68c7.488-4.512,17.408-2.112,21.952,5.472c4.576,7.584,2.08,17.408-5.504,21.952l-132.8,79.68
		C368.84,110.962,365.992,111.698,363.208,111.698z"/>
	<path style="fill:#607D8B;" d="M148.776,111.698c-2.784,0-5.632-0.736-8.224-2.272l-132.8-79.68
		C0.2,25.202-2.264,15.346,2.28,7.794C6.824,0.21,16.648-2.254,24.232,2.29l132.8,79.68c7.584,4.544,10.016,14.368,5.472,21.952
		C159.528,108.946,154.216,111.698,148.776,111.698z"/>
</g>
<path style="fill:#ECEFF1;" d="M476.168,261.618c-5.792-6.72-15.872-7.456-22.56-1.728l-100.736,86.368l-85.536-85.568
	c-6.24-6.24-16.384-6.24-22.624,0l-85.536,85.536L58.408,259.89c-6.688-5.76-16.8-4.992-22.528,1.728
	c-5.792,6.688-4.992,16.8,1.728,22.528l106.4,91.232v120.64c0,8.832,7.168,16,16,16s16-7.168,16-16V374.642l80-80l80,80v121.376
	c0,8.832,7.168,16,16,16s16-7.168,16-16v-120.64l106.4-91.232C481.128,278.418,481.928,268.306,476.168,261.618z"/>
<g>
	<path style="fill:#455A64;" d="M336.008,160.018c-26.464,0-48-21.536-48-48s21.536-48,48-48s48,21.536,48,48
		S362.472,160.018,336.008,160.018z"/>
	<path style="fill:#455A64;" d="M176.008,160.018c-26.464,0-48-21.536-48-48s21.536-48,48-48s48,21.536,48,48
		S202.472,160.018,176.008,160.018z"/>
</g>
<g>
	<path style="fill:#FFC107;" d="M496.008,192.018h-480c-8.832,0-16,7.168-16,16v64c0,8.832,7.168,16,16,16h480
		c8.832,0,16-7.168,16-16v-64C512.008,199.186,504.84,192.018,496.008,192.018z"/>
	<path style="fill:#FFC107;" d="M496.008,512.018h-480c-8.832,0-16-7.168-16-16s7.168-16,16-16h480c8.832,0,16,7.168,16,16
		S504.84,512.018,496.008,512.018z"/>
</g>
<g>
</g>
<g>
</g>
<g>
</g>
<g>
</g>
<g>
</g>
<g>
</g>
<g>
</g>
<g>
</g>
<g>
</g>
<g>
</g>
<g>
</g>
<g>
</g>
<g>
</g>
<g>
</g>
<g>
</g>
</svg>
