<?xml version="1.0" encoding="iso-8859-1"?>
<!-- Generator: Adobe Illustrator 19.0.0, SVG Export Plug-In . SVG Version: 6.00 Build 0)  -->
<svg version="1.1" id="Capa_1" xmlns="http://www.w3.org/2000/svg" xmlns:xlink="http://www.w3.org/1999/xlink" x="0px" y="0px"
	 viewBox="0 0 480 480" style="enable-background:new 0 0 480 480;" xml:space="preserve">
<path style="fill:#546E7A;" d="M351.936,456.928C331.072,414.464,320,367.136,320,320c0-4.256-1.696-8.352-4.704-11.328
	c-3.04-3.04-6.912-3.52-11.392-4.672l-126.4,0.96c-8.768,0.064-15.872,7.232-15.872,16c0,46.848-11.04,93.856-31.936,135.904
	c-2.464,4.96-2.176,10.848,0.736,15.552C133.312,477.12,138.464,480,144,480h193.6c5.536,0,10.656-2.848,13.6-7.52
	C354.08,467.744,354.368,461.92,351.936,456.928z"/>
<path style="fill:#FFA000;" d="M400,48H80c-8.832,0-16,7.168-16,16c0,198.944,88.384,288,176,288c87.584,0,176-89.056,176-288
	C416,55.168,408.832,48,400,48z"/>
<path style="fill:#FFD54F;" d="M416,0H64c-8.832,0-16,7.168-16,16v32c0,8.832,7.168,16,16,16h352c8.832,0,16-7.168,16-16V16
	C432,7.168,424.832,0,416,0z"/>
<g>
</g>
<g>
</g>
<g>
</g>
<g>
</g>
<g>
</g>
<g>
</g>
<g>
</g>
<g>
</g>
<g>
</g>
<g>
</g>
<g>
</g>
<g>
</g>
<g>
</g>
<g>
</g>
<g>
</g>
</svg>
