<?xml version="1.0" encoding="iso-8859-1"?>
<!-- Generator: Adobe Illustrator 19.0.0, SVG Export Plug-In . SVG Version: 6.00 Build 0)  -->
<svg version="1.1" id="Capa_1" xmlns="http://www.w3.org/2000/svg" xmlns:xlink="http://www.w3.org/1999/xlink" x="0px" y="0px"
	 viewBox="0 0 480 480" style="enable-background:new 0 0 480 480;" xml:space="preserve">
<path style="fill:#455A64;" d="M278.944,17.577c-5.568-2.656-12.128-1.952-16.928,1.92L106.368,144.009H32
	c-17.664,0-32,14.336-32,32v128c0,17.664,14.336,32,32,32h74.368l155.616,124.512c2.912,2.304,6.464,3.488,10.016,3.488
	c2.368,0,4.736-0.544,6.944-1.6c5.536-2.656,9.056-8.256,9.056-14.4v-416C288,25.865,284.48,20.265,278.944,17.577z"/>
<path style="fill:#FFC107;" d="M464,224.009H336c-8.832,0-16,7.168-16,16s7.168,16,16,16h128c8.832,0,16-7.168,16-16
	S472.832,224.009,464,224.009z"/>
<g>
</g>
<g>
</g>
<g>
</g>
<g>
</g>
<g>
</g>
<g>
</g>
<g>
</g>
<g>
</g>
<g>
</g>
<g>
</g>
<g>
</g>
<g>
</g>
<g>
</g>
<g>
</g>
<g>
</g>
</svg>
