<?xml version="1.0" encoding="iso-8859-1"?>
<!-- Generator: Adobe Illustrator 19.0.0, SVG Export Plug-In . SVG Version: 6.00 Build 0)  -->
<svg version="1.1" id="Capa_1" xmlns="http://www.w3.org/2000/svg" xmlns:xlink="http://www.w3.org/1999/xlink" x="0px" y="0px"
	 viewBox="0 0 512 512" style="enable-background:new 0 0 512 512;" xml:space="preserve">
<path style="fill:#455A64;" d="M256,496c-8.832,0-16-7.168-16-16v-96c0-8.832,7.168-16,16-16s16,7.168,16,16v96
	C272,488.832,264.832,496,256,496z"/>
<path style="fill:#FFA000;" d="M256,208C128.768,208,0,240.96,0,304s128.768,96,256,96s256-32.96,256-96S383.232,208,256,208z"/>
<path style="fill:#FFC107;" d="M256,144C128.768,144,0,176.96,0,240s128.768,96,256,96s256-32.96,256-96S383.232,144,256,144z"/>
<path style="fill:#FFA000;" d="M256,112c-46.24,0-96,15.008-96,48s49.76,48,96,48s96-15.008,96-48S302.24,112,256,112z"/>
<path style="fill:#455A64;" d="M256,160c-8.832,0-16-7.168-16-16V32c0-8.832,7.168-16,16-16s16,7.168,16,16v112
	C272,152.832,264.832,160,256,160z"/>
<g>
</g>
<g>
</g>
<g>
</g>
<g>
</g>
<g>
</g>
<g>
</g>
<g>
</g>
<g>
</g>
<g>
</g>
<g>
</g>
<g>
</g>
<g>
</g>
<g>
</g>
<g>
</g>
<g>
</g>
</svg>
