<?xml version="1.0" encoding="iso-8859-1"?>
<!-- Generator: Adobe Illustrator 19.0.0, SVG Export Plug-In . SVG Version: 6.00 Build 0)  -->
<svg version="1.1" id="Capa_1" xmlns="http://www.w3.org/2000/svg" xmlns:xlink="http://www.w3.org/1999/xlink" x="0px" y="0px"
	 viewBox="0 0 512 512" style="enable-background:new 0 0 512 512;" xml:space="preserve">
<circle style="fill:#CFD8DC;" cx="256" cy="256" r="256"/>
<g>
	<circle style="fill:#FAFAFA;" cx="256.32" cy="255.68" r="48"/>
	<path style="fill:#FAFAFA;" d="M256,448c-105.888,0-192-86.112-192-192c0-8.832,7.168-16,16-16s16,7.168,16,16
		c0,88.224,71.776,160,160,160c8.832,0,16,7.168,16,16S264.832,448,256,448z"/>
	<path style="fill:#FAFAFA;" d="M432,272c-8.832,0-16-7.168-16-16c0-88.224-71.776-160-160-160c-8.832,0-16-7.168-16-16
		s7.168-16,16-16c105.888,0,192,86.112,192,192C448,264.832,440.832,272,432,272z"/>
</g>
<g>
</g>
<g>
</g>
<g>
</g>
<g>
</g>
<g>
</g>
<g>
</g>
<g>
</g>
<g>
</g>
<g>
</g>
<g>
</g>
<g>
</g>
<g>
</g>
<g>
</g>
<g>
</g>
<g>
</g>
</svg>
