<?xml version="1.0" encoding="iso-8859-1"?>
<!-- Generator: Adobe Illustrator 19.0.0, SVG Export Plug-In . SVG Version: 6.00 Build 0)  -->
<svg version="1.1" id="Capa_1" xmlns="http://www.w3.org/2000/svg" xmlns:xlink="http://www.w3.org/1999/xlink" x="0px" y="0px"
	 viewBox="0 0 512 512" style="enable-background:new 0 0 512 512;" xml:space="preserve">
<path style="fill:#2196F3;" d="M396.864,128.032C381.952,54.016,317.088,0,240,0C173.696,0,114.944,40.448,91.136,101.536
	C37.824,117.6,0,167.712,0,224c0,70.592,57.408,128,128,128h272c61.76,0,112-50.24,112-112
	C512,177.248,459.296,126.336,396.864,128.032z"/>
<path style="fill:#FAFAFA;" d="M384,240c0-14.368-6.368-27.872-17.472-37.056l-0.288-0.224c-11.04-8.896-25.376-12.512-39.648-9.792
	l-160.032,32C144.224,229.408,128,249.216,128,272v80h256V240z"/>
<path style="fill:#FFC107;" d="M346.144,227.616c-3.712-3.008-8.544-4.224-13.28-3.328l-160,32C165.376,257.824,160,264.384,160,272
	v150.464c-9.408-4-20.192-6.464-32-6.464c-35.904,0-64,21.088-64,48s28.096,48,64,48s64-21.088,64-48V349.12l128-25.6v66.976
	c-9.408-4.032-20.192-6.496-32-6.496c-35.904,0-64,21.088-64,48s28.096,48,64,48c35.872,0,64-21.088,64-48V240
	C352,235.2,349.856,230.656,346.144,227.616z M192,316.48v-31.36l128-25.6v31.36L192,316.48z"/>
<g>
</g>
<g>
</g>
<g>
</g>
<g>
</g>
<g>
</g>
<g>
</g>
<g>
</g>
<g>
</g>
<g>
</g>
<g>
</g>
<g>
</g>
<g>
</g>
<g>
</g>
<g>
</g>
<g>
</g>
</svg>
