<?xml version="1.0" encoding="iso-8859-1"?>
<!-- Generator: Adobe Illustrator 19.0.0, SVG Export Plug-In . SVG Version: 6.00 Build 0)  -->
<svg version="1.1" id="Capa_1" xmlns="http://www.w3.org/2000/svg" xmlns:xlink="http://www.w3.org/1999/xlink" x="0px" y="0px"
	 viewBox="0 0 512 512" style="enable-background:new 0 0 512 512;" xml:space="preserve">
<circle style="fill:#CFD8DC;" cx="256" cy="208" r="192"/>
<circle style="fill:#FAFAFA;" cx="256" cy="208" r="48"/>
<g>
	<path style="fill:#455A64;" d="M80,496c-8.832,0-16-7.168-16-16v-32c0-8.832,7.168-16,16-16s16,7.168,16,16v32
		C96,488.832,88.832,496,80,496z"/>
	<path style="fill:#455A64;" d="M432,496c-8.832,0-16-7.168-16-16v-32c0-8.832,7.168-16,16-16s16,7.168,16,16v32
		C448,488.832,440.832,496,432,496z"/>
</g>
<path style="fill:#607D8B;" d="M496,240H16c-8.832,0-16,7.168-16,16v192c0,8.832,7.168,16,16,16h480c8.832,0,16-7.168,16-16V256
	C512,247.168,504.832,240,496,240z"/>
<g>
	<path style="fill:#FAFAFA;" d="M272,336H80c-8.832,0-16-7.168-16-16s7.168-16,16-16h192c8.832,0,16,7.168,16,16
		S280.832,336,272,336z"/>
	<path style="fill:#FAFAFA;" d="M400,400c-26.464,0-48-21.536-48-48s21.536-48,48-48s48,21.536,48,48S426.464,400,400,400z M400,336
		c-8.8,0-16,7.2-16,16s7.2,16,16,16s16-7.2,16-16S408.8,336,400,336z"/>
</g>
<g>
</g>
<g>
</g>
<g>
</g>
<g>
</g>
<g>
</g>
<g>
</g>
<g>
</g>
<g>
</g>
<g>
</g>
<g>
</g>
<g>
</g>
<g>
</g>
<g>
</g>
<g>
</g>
<g>
</g>
</svg>
