<?xml version="1.0" encoding="iso-8859-1"?>
<!-- Generator: Adobe Illustrator 19.0.0, SVG Export Plug-In . SVG Version: 6.00 Build 0)  -->
<svg version="1.1" id="Capa_1" xmlns="http://www.w3.org/2000/svg" xmlns:xlink="http://www.w3.org/1999/xlink" x="0px" y="0px"
	 viewBox="0 0 512 512" style="enable-background:new 0 0 512 512;" xml:space="preserve">
<path style="fill:#455A64;" d="M0,32v448c0,17.664,14.368,32,32,32h32V0H32C14.368,0,0,14.368,0,32z"/>
<path style="fill:#2196F3;" d="M480,0H64v512h416c17.664,0,32-14.336,32-32V32C512,14.368,497.664,0,480,0z"/>
<circle style="fill:#CFD8DC;" cx="288" cy="256" r="160"/>
<g>
	<circle style="fill:#FAFAFA;" cx="288" cy="256" r="32"/>
	<path style="fill:#FAFAFA;" d="M400,272c-8.832,0-16-7.168-16-16c0-52.928-43.072-96-96-96c-8.832,0-16-7.168-16-16s7.168-16,16-16
		c70.592,0,128,57.408,128,128C416,264.832,408.832,272,400,272z"/>
</g>
<g>
</g>
<g>
</g>
<g>
</g>
<g>
</g>
<g>
</g>
<g>
</g>
<g>
</g>
<g>
</g>
<g>
</g>
<g>
</g>
<g>
</g>
<g>
</g>
<g>
</g>
<g>
</g>
<g>
</g>
</svg>
