<?xml version="1.0" encoding="iso-8859-1"?>
<!-- Generator: Adobe Illustrator 19.0.0, SVG Export Plug-In . SVG Version: 6.00 Build 0)  -->
<svg version="1.1" id="Capa_1" xmlns="http://www.w3.org/2000/svg" xmlns:xlink="http://www.w3.org/1999/xlink" x="0px" y="0px"
	 viewBox="0 0 512 512" style="enable-background:new 0 0 512 512;" xml:space="preserve">
<path style="fill:#009688;" d="M480,80H32C14.368,80,0,94.368,0,112v288c0,17.664,14.368,32,32,32h448c17.664,0,32-14.336,32-32V112
	C512,94.368,497.664,80,480,80z"/>
<path style="fill:#FAFAFA;" d="M342.4,256H169.6c-31.776,0-57.6-21.536-57.6-48s25.824-48,57.6-48h172.8
	c31.744,0,57.6,21.536,57.6,48S374.144,256,342.4,256z"/>
<g>
	<path style="fill:#455A64;" d="M160,272c-8.832,0-16-7.168-16-16s7.168-16,16-16c17.632,0,32-14.368,32-32s-14.368-32-32-32
		c-8.832,0-16-7.168-16-16s7.168-16,16-16c35.296,0,64,28.704,64,64S195.296,272,160,272z"/>
	<path style="fill:#455A64;" d="M352,272c-35.296,0-64-28.704-64-64s28.704-64,64-64c8.832,0,16,7.168,16,16s-7.168,16-16,16
		c-17.664,0-32,14.368-32,32s14.336,32,32,32c8.832,0,16,7.168,16,16S360.832,272,352,272z"/>
</g>
<polygon style="fill:#4DB6AC;" points="128,432 192,368 320,368 384,432 "/>
<path style="fill:#00796B;" d="M352,272H160c-35.296,0-64-28.704-64-64s28.704-64,64-64h192c35.296,0,64,28.704,64,64
	S387.296,272,352,272z M160,176c-17.632,0-32,14.368-32,32s14.368,32,32,32h192c17.664,0,32-14.368,32-32s-14.336-32-32-32H160z"/>
<g>
</g>
<g>
</g>
<g>
</g>
<g>
</g>
<g>
</g>
<g>
</g>
<g>
</g>
<g>
</g>
<g>
</g>
<g>
</g>
<g>
</g>
<g>
</g>
<g>
</g>
<g>
</g>
<g>
</g>
</svg>
