<?xml version="1.0" encoding="iso-8859-1"?>
<!-- Generator: Adobe Illustrator 19.0.0, SVG Export Plug-In . SVG Version: 6.00 Build 0)  -->
<svg version="1.1" id="Capa_1" xmlns="http://www.w3.org/2000/svg" xmlns:xlink="http://www.w3.org/1999/xlink" x="0px" y="0px"
	 viewBox="0 0 512 512" style="enable-background:new 0 0 512 512;" xml:space="preserve">
<path style="fill:#455A64;" d="M432,144c-8.832,0-16-7.168-16-16V80c0-17.632-14.336-32-32-32H128c-17.632,0-32,14.368-32,32v48
	c0,8.832-7.168,16-16,16s-16-7.168-16-16V80c0-35.296,28.704-64,64-64h256c35.296,0,64,28.704,64,64v48
	C448,136.832,440.832,144,432,144z"/>
<path style="fill:#1976D2;" d="M512,144v64H0v-64c0-17.6,14.4-32,32-32h448C497.6,112,512,126.4,512,144z"/>
<path style="fill:#2196F3;" d="M512,208v256c0,17.6-14.4,32-32,32H32c-17.6,0-32-14.4-32-32V208H512z"/>
<g>
	<circle style="fill:#FAFAFA;" cx="368" cy="352" r="80"/>
	<circle style="fill:#FAFAFA;" cx="144" cy="352" r="80"/>
	<circle style="fill:#FAFAFA;" cx="112" cy="160" r="16"/>
	<circle style="fill:#FAFAFA;" cx="176" cy="160" r="16"/>
	<circle style="fill:#FAFAFA;" cx="336" cy="160" r="16"/>
	<circle style="fill:#FAFAFA;" cx="400" cy="160" r="16"/>
</g>
<g>
</g>
<g>
</g>
<g>
</g>
<g>
</g>
<g>
</g>
<g>
</g>
<g>
</g>
<g>
</g>
<g>
</g>
<g>
</g>
<g>
</g>
<g>
</g>
<g>
</g>
<g>
</g>
<g>
</g>
</svg>
