<?xml version="1.0" encoding="iso-8859-1"?>
<!-- Generator: Adobe Illustrator 19.0.0, SVG Export Plug-In . SVG Version: 6.00 Build 0)  -->
<svg version="1.1" id="Capa_1" xmlns="http://www.w3.org/2000/svg" xmlns:xlink="http://www.w3.org/1999/xlink" x="0px" y="0px"
	 viewBox="0 0 512 512" style="enable-background:new 0 0 512 512;" xml:space="preserve">
<path style="fill:#607D8B;" d="M239.987,448v16c0,26.56-21.44,48-48,48s-48-21.44-48-48v-16H239.987z"/>
<path style="fill:#ECEFF1;" d="M239.987,112v336h-96V220.48c-42.88,9.92-90.88-1.6-122.56-29.76c-3.52-2.88-5.44-7.36-5.44-11.84
	V45.12c0-4.48,1.92-8.96,5.44-11.84C45.427,11.84,77.747,0,111.987,0C182.707,0,239.987,50.24,239.987,112z"/>
<g>
	<path style="fill:#90A4AE;" d="M127.987,64c-8.832,0-16,7.168-16,16s7.168,16,16,16s16,7.168,16,16s7.168,16,16,16s16-7.168,16-16
		C175.987,85.536,154.451,64,127.987,64z"/>
	<path style="fill:#90A4AE;" d="M64.627,96h-0.32c-8.832,0-15.84,7.168-15.84,16s7.328,16,16.16,16s16-7.168,16-16
		S73.459,96,64.627,96z"/>
</g>
<path style="fill:#2196F3;" d="M383.987,512c-2.592,0-5.184-0.64-7.552-1.92c-5.184-2.752-8.448-8.16-8.448-14.08v-86.112
	l-72.832,36.448c-7.936,3.968-17.504,0.736-21.472-7.168c-3.968-7.904-0.736-17.504,7.168-21.472L348.211,384l-67.36-33.696
	c-7.904-3.968-11.104-13.568-7.168-21.472c3.968-7.872,13.568-11.104,21.472-7.168l72.832,36.448V272
	c0-5.92,3.264-11.328,8.448-14.112s11.488-2.464,16.448,0.8l96,64c4.736,3.168,7.424,8.64,7.104,14.304s-3.712,10.752-8.8,13.312
	L419.763,384l67.36,33.696c5.088,2.56,8.48,7.616,8.8,13.312c0.32,5.696-2.336,11.168-7.104,14.304l-96,64
	C390.163,511.104,387.091,512,383.987,512z M399.987,409.888v56.224l48.192-32.128L399.987,409.888z M399.987,301.92v56.224
	l48.192-24.096L399.987,301.92z"/>
<g>
</g>
<g>
</g>
<g>
</g>
<g>
</g>
<g>
</g>
<g>
</g>
<g>
</g>
<g>
</g>
<g>
</g>
<g>
</g>
<g>
</g>
<g>
</g>
<g>
</g>
<g>
</g>
<g>
</g>
</svg>
