<?xml version="1.0" encoding="iso-8859-1"?>
<!-- Generator: Adobe Illustrator 19.0.0, SVG Export Plug-In . SVG Version: 6.00 Build 0)  -->
<svg version="1.1" id="Capa_1" xmlns="http://www.w3.org/2000/svg" xmlns:xlink="http://www.w3.org/1999/xlink" x="0px" y="0px"
	 viewBox="0 0 512 512" style="enable-background:new 0 0 512 512;" xml:space="preserve">
<path style="fill:#455A64;" d="M512,90.528l-22.624-67.872L421.504,0v45.248l-16.8,16.8l-9.376-9.376
	c-6.24-6.24-16.384-6.24-22.624,0s-6.24,16.384,0,22.624l9.376,9.376L199.104,267.648l45.248,45.248L427.328,129.92l9.376,9.376
	c3.104,3.136,7.2,4.704,11.296,4.704s8.192-1.568,11.328-4.672c6.24-6.24,6.24-16.384,0-22.624l-9.376-9.376l16.8-16.8H512z"/>
<circle style="fill:#F44336;" cx="176" cy="336" r="176"/>
<g>
	<path style="fill:#D32F2F;" d="M92.16,397.216l-51.328,51.328c6.848,8.192,14.432,15.776,22.624,22.624l51.328-51.328
		L92.16,397.216z"/>
	<path style="fill:#D32F2F;" d="M272,352h79.2c0.48-5.28,0.8-10.592,0.8-16s-0.32-10.72-0.8-16H272V352z"/>
	<path style="fill:#D32F2F;" d="M259.84,397.216l-22.624,22.624l51.328,51.328c8.192-6.848,15.776-14.432,22.624-22.624
		L259.84,397.216z"/>
	<path style="fill:#D32F2F;" d="M80,320H0.8C0.32,325.28,0,330.592,0,336s0.32,10.72,0.8,16H80V320z"/>
	<path style="fill:#D32F2F;" d="M92.16,274.784l22.624-22.624l-51.328-51.328c-8.192,6.848-15.776,14.432-22.624,22.624
		L92.16,274.784z"/>
	<path style="fill:#D32F2F;" d="M192,511.2V432h-32v79.2c5.28,0.48,10.592,0.8,16,0.8S186.72,511.68,192,511.2z"/>
	<path style="fill:#D32F2F;" d="M259.84,274.784l51.328-51.328c-6.848-8.192-14.432-15.776-22.624-22.624l-51.328,51.328
		L259.84,274.784z"/>
	<path style="fill:#D32F2F;" d="M192,160.8c-5.28-0.48-10.592-0.8-16-0.8s-10.72,0.32-16,0.8V240h32V160.8z"/>
</g>
<path style="fill:#FAFAFA;" d="M176,448c-61.76,0-112-50.24-112-112s50.24-112,112-112s112,50.24,112,112S237.76,448,176,448z"/>
<path style="fill:#455A64;" d="M176,384c-4.096,0-8.192-1.568-11.328-4.672l-32-32c-6.24-6.24-6.24-16.384,0-22.624
	c6.24-6.24,16.384-6.24,22.624,0l32,32c6.24,6.24,6.24,16.384,0,22.624C184.192,382.432,180.096,384,176,384z"/>
<g>
</g>
<g>
</g>
<g>
</g>
<g>
</g>
<g>
</g>
<g>
</g>
<g>
</g>
<g>
</g>
<g>
</g>
<g>
</g>
<g>
</g>
<g>
</g>
<g>
</g>
<g>
</g>
<g>
</g>
</svg>
