<?xml version="1.0" encoding="iso-8859-1"?>
<!-- Generator: Adobe Illustrator 19.0.0, SVG Export Plug-In . SVG Version: 6.00 Build 0)  -->
<svg version="1.1" id="Capa_1" xmlns="http://www.w3.org/2000/svg" xmlns:xlink="http://www.w3.org/1999/xlink" x="0px" y="0px"
	 viewBox="0 0 480 480" style="enable-background:new 0 0 480 480;" xml:space="preserve">
<path style="fill:#ECEFF1;" d="M448,16H32C14.368,16,0,30.368,0,48v384c0,17.664,14.368,32,32,32h416c17.664,0,32-14.336,32-32V48
	C480,30.368,465.664,16,448,16z"/>
<rect x="96" y="16" style="fill:#455A64;" width="32" height="256"/>
<g>
	<rect x="96" y="304" style="fill:#90A4AE;" width="32" height="160"/>
	<rect x="224" y="176" style="fill:#90A4AE;" width="32" height="288"/>
</g>
<g>
	<rect x="224" y="16" style="fill:#455A64;" width="32" height="128"/>
	<rect x="352" y="16" style="fill:#455A64;" width="32" height="288"/>
</g>
<rect x="352" y="336" style="fill:#90A4AE;" width="32" height="128"/>
<circle style="fill:#2196F3;" cx="112" cy="288" r="48"/>
<circle style="fill:#4CAF50;" cx="240" cy="160" r="48"/>
<circle style="fill:#FFC107;" cx="368" cy="320" r="48"/>
<g>
</g>
<g>
</g>
<g>
</g>
<g>
</g>
<g>
</g>
<g>
</g>
<g>
</g>
<g>
</g>
<g>
</g>
<g>
</g>
<g>
</g>
<g>
</g>
<g>
</g>
<g>
</g>
<g>
</g>
</svg>
