<?xml version="1.0" encoding="iso-8859-1"?>
<!-- Generator: Adobe Illustrator 19.0.0, SVG Export Plug-In . SVG Version: 6.00 Build 0)  -->
<svg version="1.1" id="Capa_1" xmlns="http://www.w3.org/2000/svg" xmlns:xlink="http://www.w3.org/1999/xlink" x="0px" y="0px"
	 viewBox="0 0 512 512" style="enable-background:new 0 0 512 512;" xml:space="preserve">
<path style="fill:#FFA000;" d="M251.328,116.672l-64-64C184.32,49.696,180.256,48,176,48H32C14.368,48,0,62.368,0,80v48
	c0,4.256,1.696,8.32,4.672,11.328S11.744,144,16,144h224c6.464,0,12.32-3.904,14.784-9.888
	C257.28,128.128,255.904,121.28,251.328,116.672z"/>
<path style="fill:#FFC107;" d="M480,112H16c-8.832,0-16,7.168-16,16v304c0,17.664,14.368,32,32,32h448c17.664,0,32-14.336,32-32V144
	C512,126.368,497.664,112,480,112z"/>
<path style="fill:#FAFAFA;" d="M178.976,144.288c-4.672-0.928-9.504,0.352-13.184,3.392C162.144,150.72,160,155.232,160,160v150.464
	c-9.408-4-20.192-6.464-32-6.464c-35.904,0-64,21.088-64,48s28.096,48,64,48s64-21.088,64-48V181.952
	c14.496,6.464,32,18.656,32,40.032c0,8.832,7.168,16,16,16s16-7.136,16-15.968C256,171.968,205.6,149.28,178.976,144.288z"/>
<g>
</g>
<g>
</g>
<g>
</g>
<g>
</g>
<g>
</g>
<g>
</g>
<g>
</g>
<g>
</g>
<g>
</g>
<g>
</g>
<g>
</g>
<g>
</g>
<g>
</g>
<g>
</g>
<g>
</g>
</svg>
