<?xml version="1.0" encoding="iso-8859-1"?>
<!-- Generator: Adobe Illustrator 19.0.0, SVG Export Plug-In . SVG Version: 6.00 Build 0)  -->
<svg version="1.1" id="Capa_1" xmlns="http://www.w3.org/2000/svg" xmlns:xlink="http://www.w3.org/1999/xlink" x="0px" y="0px"
	 viewBox="0 0 512 512" style="enable-background:new 0 0 512 512;" xml:space="preserve">
<path style="fill:#ECEFF1;" d="M320,0H96C78.368,0,64,14.368,64,32v448c0,17.664,14.368,32,32,32h320c17.664,0,32-14.336,32-32V128
	L320,0z"/>
<path style="fill:#CFD8DC;" d="M320,0v96c0,17.664,14.336,32,32,32h96L320,0z"/>
<path style="fill:#FFC107;" d="M274.976,192.288c-4.672-0.864-9.536,0.352-13.184,3.392S256,203.232,256,208v150.464
	c-9.408-4-20.192-6.464-32-6.464c-35.904,0-64,21.088-64,48s28.096,48,64,48s64-21.088,64-48V229.952
	c14.496,6.464,32,18.656,32,40.032c0,8.832,7.168,16,16,16s16-7.168,16-16C352,219.968,301.632,197.28,274.976,192.288z"/>
<g>
</g>
<g>
</g>
<g>
</g>
<g>
</g>
<g>
</g>
<g>
</g>
<g>
</g>
<g>
</g>
<g>
</g>
<g>
</g>
<g>
</g>
<g>
</g>
<g>
</g>
<g>
</g>
<g>
</g>
</svg>
