<?xml version="1.0" encoding="iso-8859-1"?>
<!-- Generator: Adobe Illustrator 19.0.0, SVG Export Plug-In . SVG Version: 6.00 Build 0)  -->
<svg version="1.1" id="Capa_1" xmlns="http://www.w3.org/2000/svg" xmlns:xlink="http://www.w3.org/1999/xlink" x="0px" y="0px"
	 viewBox="0 0 511.992 511.992" style="enable-background:new 0 0 511.992 511.992;" xml:space="preserve">
<path style="fill:#455A64;" d="M320,511.992c-3.904,0-7.84-1.44-10.944-4.32c-6.432-6.016-6.784-16.16-0.736-22.624l72.832-77.952
	c0.512-0.704,1.024-1.376,1.664-2.016l4.544-4.64c0.256-0.256,0.512-0.512,0.736-0.704C395.68,391.32,400,379.992,400,367.992
	c0-26.464-21.536-48-48-48c-13.472,0-26.272,5.664-35.136,15.488c-0.512,0.544-0.992,1.056-1.568,1.536L188.64,484.184
	c-0.128,0.16-0.256,0.288-0.384,0.448c-15.264,17.376-37.184,27.36-60.256,27.36c-44.096,0-80-35.872-80-80
	c0-19.552,7.008-38.112,19.776-52.48c0.384-0.576,0.832-1.12,1.312-1.632l63.136-68.704c6.016-6.528,16.128-6.912,22.624-0.96
	c6.496,5.984,6.944,16.096,0.96,22.592l-61.76,67.232c-0.416,0.64-0.896,1.184-1.408,1.76C84.48,408.408,80,419.832,80,431.992
	c0,26.464,21.536,48,48,48c14.208,0,27.168-5.984,36.512-16.832c0.096-0.128,0.224-0.256,0.32-0.384L291.36,315.8
	c0.576-0.672,1.184-1.28,1.856-1.824c14.848-16.512,36.288-25.984,58.784-25.984c44.128,0,80,35.872,80,80
	c0,20.576-7.68,40.032-21.664,54.816l-1.28,1.312l-77.376,82.816C328.544,510.264,324.288,511.992,320,511.992z"/>
<path style="fill:#607D8B;" d="M223.68,285.592l-45.28-45.28c-6.016-6.016-16.64-6.016-22.624,0l-33.92,33.952
	c-12.48,12.48-12.48,32.768,0,45.248l22.624,22.624c6.24,6.24,14.432,9.344,22.624,9.344s16.384-3.104,22.624-9.344l33.952-33.92
	c3.008-3.008,4.672-7.072,4.672-11.328S226.656,288.6,223.68,285.592z"/>
<path style="fill:#FFC107;" d="M449.952,14.04c-18.688-18.72-49.184-18.72-67.872,0L268.928,127.192
	c-6.24,6.24-6.24,16.384,0,22.624l45.248,45.248c3.008,3.008,7.072,4.672,11.328,4.672s8.32-1.696,11.328-4.672l113.12-113.152
	C468.672,63.224,468.672,32.76,449.952,14.04z"/>
<path style="fill:#455A64;" d="M359.424,195.064l-90.496-90.496c-6.24-6.24-16.384-6.24-22.624,0l-90.528,90.496
	c-18.688,18.72-18.688,49.184,0,67.872l45.248,45.28l0,0c9.056,9.056,21.12,14.048,33.952,14.048c12.8,0,24.864-4.992,33.952-14.048
	l90.528-90.528C365.696,211.448,365.696,201.336,359.424,195.064z"/>
<g>
</g>
<g>
</g>
<g>
</g>
<g>
</g>
<g>
</g>
<g>
</g>
<g>
</g>
<g>
</g>
<g>
</g>
<g>
</g>
<g>
</g>
<g>
</g>
<g>
</g>
<g>
</g>
<g>
</g>
</svg>
