<?xml version="1.0" encoding="iso-8859-1"?>
<!-- Generator: Adobe Illustrator 19.0.0, SVG Export Plug-In . SVG Version: 6.00 Build 0)  -->
<svg version="1.1" id="Capa_1" xmlns="http://www.w3.org/2000/svg" xmlns:xlink="http://www.w3.org/1999/xlink" x="0px" y="0px"
	 viewBox="0 0 512 512" style="enable-background:new 0 0 512 512;" xml:space="preserve">
<path style="fill:#607D8B;" d="M256,448v16c0,26.56-21.44,48-48,48s-48-21.44-48-48v-16H256z"/>
<path style="fill:#ECEFF1;" d="M256,112v336h-96V220.48c-42.88,9.92-90.88-1.6-122.56-29.76c-3.52-2.88-5.44-7.36-5.44-11.84V45.12
	c0-4.48,1.92-8.96,5.44-11.84C61.44,11.84,93.76,0,128,0C198.72,0,256,50.24,256,112z"/>
<g>
	<path style="fill:#90A4AE;" d="M144,64c-8.832,0-16,7.168-16,16s7.168,16,16,16s16,7.168,16,16s7.168,16,16,16s16-7.168,16-16
		C192,85.536,170.464,64,144,64z"/>
	<path style="fill:#90A4AE;" d="M80.64,96h-0.32c-8.832,0-15.84,7.168-15.84,16s7.328,16,16.16,16s16-7.168,16-16
		S89.472,96,80.64,96z"/>
</g>
<path style="fill:#607D8B;" d="M464,224h-16v-16c0-8.832-7.168-16-16-16h-96c-8.832,0-16,7.168-16,16v16h-16
	c-8.832,0-16,7.168-16,16v256c0,8.832,7.168,16,16,16h160c8.832,0,16-7.168,16-16V240C480,231.168,472.832,224,464,224z"/>
<g>
	<rect x="320" y="416" style="fill:#8BC34A;" width="128" height="32"/>
	<rect x="320" y="352" style="fill:#8BC34A;" width="128" height="32"/>
	<rect x="320" y="288" style="fill:#8BC34A;" width="128" height="32"/>
</g>
<g>
</g>
<g>
</g>
<g>
</g>
<g>
</g>
<g>
</g>
<g>
</g>
<g>
</g>
<g>
</g>
<g>
</g>
<g>
</g>
<g>
</g>
<g>
</g>
<g>
</g>
<g>
</g>
<g>
</g>
</svg>
